<mxfile host="app.diagrams.net" agent="Mozilla/5.0 (Windows NT 10.0; Win64; x64) AppleWebKit/537.36 (KHTML, like Gecko) Chrome/141.0.0.0 Safari/537.36" version="28.2.7">
  <diagram name="Страница — 1" id="rkJX_OwKzP0SuWpS52VZ">
    <mxGraphModel dx="1295" dy="715" grid="1" gridSize="10" guides="1" tooltips="1" connect="1" arrows="1" fold="1" page="1" pageScale="1" pageWidth="827" pageHeight="1169" math="0" shadow="0">
      <root>
        <mxCell id="0" />
        <mxCell id="1" parent="0" />
        <mxCell id="1SWu9gg4s54Sxi2x8I6W-1" value="" style="rounded=0;whiteSpace=wrap;html=1;" vertex="1" parent="1">
          <mxGeometry x="120" y="280" width="190" height="150" as="geometry" />
        </mxCell>
        <mxCell id="1SWu9gg4s54Sxi2x8I6W-2" value="" style="rounded=0;whiteSpace=wrap;html=1;" vertex="1" parent="1">
          <mxGeometry x="610" y="280" width="170" height="150" as="geometry" />
        </mxCell>
        <mxCell id="1SWu9gg4s54Sxi2x8I6W-3" value="" style="rounded=0;whiteSpace=wrap;html=1;" vertex="1" parent="1">
          <mxGeometry x="354" y="280" width="206" height="150" as="geometry" />
        </mxCell>
        <mxCell id="1SWu9gg4s54Sxi2x8I6W-4" value="source layer" style="text;html=1;whiteSpace=wrap;strokeColor=none;fillColor=none;align=center;verticalAlign=middle;rounded=0;" vertex="1" parent="1">
          <mxGeometry x="146.75" y="250" width="110" height="30" as="geometry" />
        </mxCell>
        <mxCell id="1SWu9gg4s54Sxi2x8I6W-6" value="" style="shape=image;verticalLabelPosition=bottom;labelBackgroundColor=default;verticalAlign=top;aspect=fixed;imageAspect=0;image=data:image/png,iVBORw0KGgoAAAANSUhEUgAAAZ0AAAGeCAYAAABPS9wMAAAAAXNSR0IArs4c6QAAAARnQU1BAACxjwv8YQUAAAAJcEhZcwAADsMAAA7DAcdvqGQAAGx4SURBVHhe7Z0HgB1Vvf9/t20v6b0nJBCKgCAIPjtFEB5FeaCRIuijybOhvr+Kiu2JjycICERAkSKgIpBQRAQ10qREEghJSO892Wy/9f/7/uae3dmbu5vdJDu5e/f72fwyc2fOzJw5c+b3nVPmTCijCCGEEBIA4eyUEEII6XUoOoQQQgKDokMIISQwKDqEEEICg6JDCCEkMCg6hBBCAoOiQwghJDAoOoQQQgKDokMIISQwKDqEEEICg6JDCCEkMCg6hBBCAoOiQwghJDAoOoQQQgKDokMIISQwKDqEEEICg6JDCCEkMCg6hBBCAoOiQwghJDAoOoQQQgKDokMIISQwKDqEEEICg6JDCCEkMCg6hBBCAoOiQwghJDBCGSU7TwKgs+Tu6WUIhULZue7DY3SfII7RHXprv4TsLyg6AYKk7iy5g3ByPEb3CeIYXZG7v329f0L2FxSdXiKdTks47NVeYj6ZTEpLS4ukUqm8DoTOuvsUyzG6Q3V1tUQikewvQvo+FJ1ewAlOQ0ODzJ07V1544QVZvXq1bNiwQZqbmy2MP9kxvydOrieOjsfo3WO4B4x9zdFHHy0XXnihjBs3juJDigKKTi8AsXnkkUfkpptukn/9619WunElHCS33wG6+Z5ehp44UQeP0X2COEZ3QDw+9rGPycyZM2X06NHZpYT0XSg6ewlKNXA4MIjN3/72N/nJT34izz//vK3HcvcUjKR2yc1kJ53hF7BoNGpVs2eddZb87//+r4wZM6bXSlWEBAFFZy+A4AA4ia1bt8r1118v9957r6xbt66DwDj8zoSQfOTmGQiMe7BBiQfCc9BBB2XXEtL3oOjsJXAIW7ZskSuuuMKq1OAc8GQKXNJimV9wKD6kK1AV60BeQT5Cew7sox/9qNx8880yceLEbAhC+hYUnb0ASVdXVyff+ta3rM7diQ3AOr+44HdJSUlbYzCTnfhBfkDeaG1ttQeZ3PzhF5+Pf/zjcvvtt8vQoUM7VN0CPtCQQoeisxfAOdxyyy1yzTXXmPj4QbLCAVRVVcmUKVNk+vTpZrW1tdkQhHj4heKXv/ylvPHGG52KDkQG86eddppV5+aWeCg6pNCh6OwFb7/9tpxyyimycuXK7BIPOAYk66RJk+Sqq66SD33oQ+YcysrK2AhMuuSTn/ykPPzww7uIjgOi4uyEE06Qn/3sZzJt2rTsWooOKXwoOnsASjgQj7PPPtschHMCbjmAI/jd735npRwsg7lwDjoIksu///u/y6xZs9rykx+XXzDFbYvq2o985CPsTk36FHzs7iHOEcyZM0dmz55tXVohKE67MT3iiCPk8ccft+o01wAMo8iQ3YH8488n/ocVrHOG5WhDfOqpp+TLX/6yvXiM31hHSCFD0ekhuNkTiYSVcDDFTe5/IsUT53e/+10ZP368/XZiQ2dA9gTkG5RokJ+cGLk8B8P873//e7n44otlyZIl9pt5jRQyFJ09AO/kvPzyy+YE3I2PEg9+n3zyyXL88cfbMuckMM1nhDj8QpErHHhw+dKXviSnnnpqh7zjwuH3M888YyWepUuXtgkSIYUIRWcPWLVqlWzcuLHNMeCmx00+cOBAe4FvwIABbVVuFBfSE5yQ5DJ8+HB56KGH5KSTTmp7wMkVnz//+c/yta99zd4bcw9DhBQaFJ0egpt5/fr1snPnzl0EBd2h0Y6Dm51iQ/Y1eGkUIxKgxySEx4E8ifYcTB977DF7URmjYjAPkkKEorMHNDU17fIiKG74QYMGyZAhQ+xm51Mm2dcgTw0bNkx+8IMfmPCgNO1vM0QeBBgZ4/LLL5dFixYxH5KCg6LTQ3Cj44nT3eDuaRI3dywWMydASG+A/IX8hkE/77zzTmvjcbh8iHyJvPiXv/zF2nhQFex/QCJkf0PR6SH+J0d3o3fG7tYT0hOQn/BQA2GB3XDDDW1Vbf68hnXxeNy6U6MDwrZt21jiIQUDRWcfghufQkN6CzcQKPIYhAYdVr7//e+b8EBocoUHv9HG87nPfc66UxNSCFB09jEUHRIEyGcoveCLoj/96U9tEFD8zs1/qA7Gi8pf/OIXTXj8I1gTsj+g6BDSB0FJBoKCKToXoDs12niwzAGBgUGM/vSnP8lXvvIV2bx5M4WH7FcoOoT0QZxwoI0H842NjXLdddfZ2G3ocOCAKAGEQYnnyiuvlBUrVrS18bCthwQNRYeQPoj/PR1UqcFGjhxpQzDljlzghAcC88c//tG6Uy9cuNCWu5KQM0J6G4oOIX0cVKmhdAPRQBvPbbfdZsMx5QKRgRA999xzVtW2Zs2a7BpCgoOiQ0gfx5VkID4YhBZVbrfeeqtVtWGwUOAv9cAwZA6EB+MIOlwYQnoTig4hfRyIhRMeVLtBfGpqamzkAvRq83cucNVoqFbDSOmXXHKJLF68mFVrJDAoOoQUGRAhiAoGCYXwYJBQCI+/tAOw7Mknn7Sv26I7tVtOSG9C0SGkiIBwQEzcKAXoXIDu1Pi0dW71mRskFEPm4D0ef1UbIb0FRYeQPgJEA9VgueLhB4LjqsowD1FBO8/1119vbTylpaW2zr8PhHn66afl0ksvZecC0utQdAgpUiAsTlxQ4rn22mvte09+8XIChflHH33UhMd1pyakN6DoEFLEOOGBuIwaNUpuuukmOe2007Jr20s8aAOC0KBXG0anXr58OYWH9AoUHUL6Aa4jAarXbrnlFjnjjDOsO7WrjnMGocGQOV//+tetjQdiRMi+hKJDSD/AVaPhJdKqqirr1YaqttzPIrjOBa479bJlyyg8ZJ9C0SGkn+Cq2iAqI0aMkB/+8Ify0Y9+1Eo7DvcyKV4wnTVrlnzhC18w4SFkX0HRIaQf4Uo8YPTo0fK73/3OhsxxL5WipON6vSGs+wLpxo0b2cZD9gkUHUL6Af4qNIgKDNVmGJ0aXyBF5wJXynG4UhFeIL3iiitk3bp1bWJEyJ5C0SGkH+IXjsGDB1t36hNPPDG7xANhnMigjefzn/+8vPPOOx0EjJCeQtEhpB8C4UBpx3UkwOjUP//5z63Ek1uSwW+EeeaZZ+RLX/qStfFgmTNCegJFhxBiJZra2lq54447bJBQ150a+MUF3am/9rWvyaZNm6z9h5CeQtEhhLSBEg16teFDcCgFOSA6/u7Ul112maxevTq7lpDuQ9EhpMDwt5m4UoYrafQ26Fzghszxt/Gg1OPigPg99thj1p160aJFJkSEdBeKDiEFBpy6X3iCAsfEiAV4Rwfv8fz2t7+1Nh5X4nFxgsjA0J366quvtl5tGFSUkO5A0dlLgnoCJaS3cXnZlWogJD/72c/klFNOsTYevxC69U888YR9FgFtPCzxkO5QkKLjMj+mztzT1d6af597YtgHwA2I337cMlrxmrv+mC9G3Pm593jQnRpD5kB4sM4vPPgNQxvPf/7nf7Z9gdTtg5B8FJToIMOisRIZO5X2xnvCfCEZqh7ckyBuLud8sAzrYAgHcrel9X1zpIt0PDKcI/I0psjLmB8zZoz83//9n1W1+dPAgWVPPfWUlXjwHo8TI0LyEdJMVVCPbHi6CkXCsrNup6xbu1ZeeeUVaWpq2mfdM/PdND0BN+ILL7xgw4e0trZml3pMmTLFevWgXtzduKR4wPUcP368HHrIITJ0yFApr6zIrtl7XH6BY0eVFXCOu7y8XO666y77CFtzc7M94AQF4oB7Eoa2nYsvvlgef/xx++3APQEQFqNX/+IXv5ChQ4daPHkPkFwKRnTspsukbViO2U/+Se761Z3y2iv/lG3btutKDRDq7EbrWfT39iZAPF3VQy7YtysFFUiykn1MeUmpjBo9Sk466WT57MWflXcdcYRE9oEIWP4vQNEBLj/juOg08P/+3/+T2bNnW/wQZxdPJzKnn366/PSnP5VJkybZ8r2950hxsd9Fx91syLg7tmySH37/+3LPgw/L9h34XntC7zxkWHXkndYEBht97wbsfPypkIpjOMybrBgJ6SWPqGX08sKma4nnhz/6kbV37O0Vd/dBIYqOH8Rz7dq18s1vftOEx+Hi6qqXTzjhBOuEMHnyZIvv/owzKSz2e05wT0Gtibj85PobZOZdv5Ed27dLMpEQ1KglUxk1FO+TnRiK/8EZbq52wUHc/YabEjcgrRgtpf8lMilJpNU0T7799tvyla98Rea+/rpd+2IG9ykMeR9tPPfee6+9QOrExt3HTjzdkDkQKCxrv2dIf2e/iw4yLaqqXnrxJfnd738nza0tkki2SgilBY0d2ne8/IxMm8+Q6fMt78wQfm8M+/BwUtNu+F/Xa0mIVjzmlWx1HuglRkkWeTIej8viRQvl//7v+l3a94oJCAbuUxhKLO73jTfeaG047rMIbh26UqMNFp0LIMroTk3RIY6CEB1k0NmzZsmqlcv1aVKLN3pD67ORPlpqRtZ7PayznlPvaIi8MzRldsf82/SOeRWBtOIwL6/BYep1jegvFZxMCE/uulwDwB5/fLa88cYbRe1YXUkHQFxw3w4YMMBGLkD1InAdCvw88sgjbd2psQ0hBdGRAPXUH/nIR+TFF1/0FmjeDuGpSUsWsQMqZMK7Jkk8FLdVbU+cWdpuBu9+2D16uvvqjK005sftt7txIYWPXlNU44bVobZuaZEt/1wnycaUte/YZc5Or/nOd+Xb3/4Wlmh+dHLVfXAbIh/3hTYd4Beg7du3y6WXXmpVaqi18LsUN5oB2nhuuukmmThx4n6NP9n/FITobNmyRY499lhZunSp3apopDUHXhWST/x4hgw6ZKg06p/m9PZbuW2+Z9G3EtQ+OmN343UEO8+3nPRdMuZMR0aHyws3PisvPqoPR1ogD8Ofqi7gap911tnywIMPWuhweNcn/t3hFx10ScZ8IYoOQLxcqQZVaYhrLBaTGTNmmGAirbDM71oQHqNXz5w5U4YNG5ZdSvojBSE669evl2OOOUbWrF6jNzCqL9LmuqtGV8m5t10k22p2SlOk2QvsRwPRvZMgwG0yKFUra/+4VP72q+dEGnQhMh/yoNqJJ55kX9jM/yCye/yig15hzmlj6kQHXZELQXT8OPeBOKE79be+9S0TTYiRvzoN54EwaAP6yU9+whJPP6agrzpKPGm9oz1L72phFSed0mhBGfKdlzm9Sdu0n+JEFu2yeCEUbTwf+9jHTHDcOuDECW08l19+uY1One9dN1L88FGDkL1mz0o3xQLExZVk8AVSfAgO3an9ogMgMjCMTu26U5P+RwGKDjJq/76JCelrQHBgEBW039x8881WVei6U/tBmGeffbbtswj+ajhS/BR89RohpO8xcOBAG50anQf8uNIPhMeNTs0PwfUvCld0NG/28+pyQvosaMMZO3asXHfddd4wQVmxcW07mEJo0PkCL5AuWbLElpPip8BEBxnS/8Tj5rG8MyOEFCIQlkGDBtmQOeh5B+FxXa394oP3e772ta/Jhg0b9tlo8qRwKejqtY7kio2XaQkhhQfEBIb2HEwx6vSZZ55p7/O4Nh4XBjZr1iy54oorZM2aNfabFC99SHQIIX0J16MN1Wj4Auk111wjJ554YoeqNsyjdIMw6E595ZVX2ofgSPFSoKLDHgSE9GWcsDggKmjjuf322607NcQod6w2hPnTn/4kX/7yl2XVqlX2gikpPgpQdJBZKTqEFAMozUBcUK0GIcJXdW+55RbrXIDu1K6048BvdC7AezwYHgu/YaR4YPVan6VvtGvRXRAnGq6qraysTH6U/fida99xoCs1wqM7NQYRxejUuaUm0rcpONGx4UayrsqGkM8OOxLKhPLaviIkKYlkMJI1jheSsO0bMdEnsQyqAcIaF1hI0riJNFgsHJWoLoto2Eg6JNF0WGIpfapLRySaCktIl4UyYd1S53FK2C6T1vmk3kgpSYfVbGgV73x7AqLnpY8XR8QVQ/DD0noMpCJG6g6FIpZOiEsYn4pIefM4x1A4oqHQ0Kvr9Lxwltge+7L96xzApyVEz0OfWdWiun98HTKmDgLHw3rdi1oIZltgg7TuE2kJJ+J6Ie4BGhFLNszaf4hrxDOkqxpijesTCkWzh07ZEr1SahhqBQv3ER2ulXe2+3T/Su6TfzE87btzgMjAUNX24x//2F4gxfmiNOQEyJ0rOhf813/9l73HA4ohHUiBiY5lJ/MWOpedwvlhjbrIPH/7BpeNPYebxQ6MeGgcbI3+RqZPZqQ8VCEV6UoJ71Dh2RaSki0hqd5ZLoMaamRkfIiMaB0qg5sHSlVdua4PS0lDTCoSFVKSinlCFY15x7D9Z2d7isXPiyNil4Gj1WUxKZGypFpLiZTsjErJ1ojU1FfJ0JbBMioxTIY0DZDa+kqpbaiydeX1MSlvKZPSeKmKZlQFVAXFztVLX7sUOg/hMfFRwipAeiZSHq6Q0rQeKxNTK1Urk7I0prASiSZE94l9ee9k9MRfIKh31SEsKugqkBXhcilLlUgsrueV0DPV8yzFuaa840YSKvYq/IhzRgVR1Vy37MFBCwQ44WJ9uncCA/FAd+r77rvPxmrrTFAwZM5Xv/pV2bhxI7tTFwkFNcr06tWr7aNY5uDVc5SNLZNzb/2s7KjaKS3hlmzofYudvN3fmPMExjlZG1DUlqMMgKf5sDo3FZfIYBlZOkLGlw+X4RWDZEjNYKmOVUspHH6oVNKRsDQn49LYWi9bWrbKxubNsnL7elndskq2RbZIUzquz+BpLSXpszh8su69xy7GiYI+yZuT1cJEWI89IFQrw2JDZEzNCBldOVKGlw2X2rKBUl1SpfELS1yPHc8kpCXVLPUtDbK1cZusadL41a+WjfGNUic7JWkDqeIgWiLDeWvJzYRND5TUhAlraQ4CM7hssDp5LdFktMSmv620odsgnBanNFIJ2ZKokwZp1bTE9tgn4rn7s9UCmaJik4rq+aWkRJ+Ch2i6l+px9Kc5L6QblMzmNXxS07QuuUMaMg16PJRKcfU0ffbBo5U5yVStrHlkicy58+8i9boQ31NKW27dp6NMF/L3dPYW524wdeeMtpv//u//ttG18TVWYNc0ux521llnyc9+9jMZPXq0/SZ9l34vOgAJgGwMc4mBZMFNXxIukUhSxSZRKhMGTpDpw6fLxEETZWTFcBkk1fq8r0/Xau2VPWGr1MF+IFlJdXpJ/WuQRlnXuE6WbV8mC9Yv0OlyaSxt8T5OF9NtenoZVK0yqZSWALQkFY/JQBkgR4w9QqaPmC6jKkZKTTQrgmqII2QDZwg33P7nVcPVS1x2ZOpkS9MmWbR5kczX+K1qWCvJ0qTEwwl14FpigchpFCGS6URIRqmgnX/UuVKtpYyILveq3vQ8NFBExRln35pslCcWPS1v1C2QeFQlATuwWOyetGUEfSrWTaLNIoePPVhOnnaKVCTL20pc/qybUqHcpoLz5JtPyZKmpZKI4My8UpmNDJ099p6CY1F09h53zVw6JbX0gvPBGGzf/OY35bHHHrPfLj2QBpjCUCLC+z5Tp05tSwO3H9J36Lu5dx+CbGvtHlnHCtB2UxmtlPLWUhklw+X0g0+Vz777AjlzzGlyTMURMlHGqKOvVdmpknL9K1EXjyonSFAsa/i/XN1+jYYZo/t4d+W75LQxp8hlR18knzzsdBkdGyGlrRoy1fPLEFJnVxWtkPJkhRw95j3yuQ9dIudMPUuOr3mPHBiZJMMzQ1WGavT4Kj2qGmh3gihCfhAvxBelhvJMhSDkAaHxcmzlu+WsCR+Xi475lHxo0vulJl4lFaFKE9GkFqWQNGjfisVKpX5no5TvLJHDoofIobHD5LDYQWoHyiHRg23+XbGD5cjyI+TgwdMlFs+2K2F7NexndxLghUe6pEWvghw8cLpMl4Pk4KhabJrZISV6vKwdFD1AhkeGSKrRE7dMCB8SQ+nUOyYpDJyAONyAoGPGjJHbbrvNvreD337hcdM///nPNmTOsmXL2j4eR/oeFJ0seBpOhdVhhb2G54gKQWl9WI6oPliues/lcsbIj8tYlZ/STMycN8oMVrVl5j2R4kkfS51D9bofeGCvaf0V1e1H6H5OHnGSXPrui+TdA4+UinilOdl8eHvb1UWXqPOvaCyVMyafJudP+5QcGj5YpaPWRAW7sjiZUGh5RksNaSzPxshz//DGuj6kJRlUiWkMEddaFaoDwpPkM5PPkfOP/JS1A6GNKKpP9Rkt9SB8XJq13FYvb218W6cogWJ/KEtpqcuOgFRIq7TFZMrwSVIbrlXn752fnYnN4j8c0Vu+K7qPjMZJNxhSPkQmDzjAzs3bA7braCk93tvbFsqG5GZJRHHWiIWmuVUV2lFJAeJECCUa9GpDd+qTTz657TPXTlggPOjZhvd4vv71r9snsl2pifQtcMcWDMhe5h/goLJTzxmrw7On1xyzQPsG7Mn6OmlGjqVLZGhqiJw89WQ5/+gZMrl8rDl5E5yUlhZUkFCF5D2JdxQajVYH84PQpaGobYeyxpTSKfKZoz4lJ044QQYmh0hJqkxvMoiG7hM3m3e/2QRCEVLHj23DyYgMT4+Uf3/XmfKRcR+SwSo3ZSmvbIXqPQBnbU/5mn7onWZ7wW+szMYL8Uas2mUI0pPRmJVp6aJCjhl0lHz6PefK1NgkKWst0TCoqoKcaEqVhmTB5rdlq/6h11rHlMgeTxlRMlwmVI+TUFKXmAPxQrRdYgTKhu2ACmZEw4c0rUdUDJMRWoop11SDeHnx9f5wXGyd0L8FmxZIa6jZSnUu36A60MMdzW9kf+OqEJE3ksmkCQ96tWF0aleFhinCue7Ujz76qFx22WX2eXtA8elbeFe1kDBn7nkKq2Ix5wEXkeevzaHsC3Rn6vBLIqVSlaqUk6aeIB+bcIqWSkaqE45ITNfBCaINxdoU0JEmDTeLUoTn+iw6aNHHTaCGNhOA5c6wBJujoqtM3eg4GS2nTTpFPjD+g1IeL9f96xOeHsueADWkTc20tIQealpkqlZJOOHAk+SDwz8kg7RkUqpiE0F1hO4XWDxUuMw96zSsYuV1zYakZCSZxpve2D/CoITiOktDdLxSGaQIxzmk4iA5fdrJMjw8VMJpdJfWdeh9pPtb3bhWVtat0C290qF3dpgH3tnW6F4OG30IVEF/6jKLpMUwi3/eB9JQD4YHgImDJsiw8ECTVE9QskHUUujEoMfcltkmq+pWWUk1nES1GvYLgfTOywudz8j+BHnbVZ+hdIMpOgvgC6RudGq/OSA8V111VdtnEZx4kcKn8ERnP4EeVSXq1irrSuUEFYATR31IqtJw53CUMTVNKvVR5vCQ9/FT1cdzaHC1aXvaToZbJIXGd3XK5vJUhEw8LFS7i22/fcRaXk6d8H45fOhBEmuJqHNXMdDdQka8skNWEFJp6yp8+IDpcuTIg3UrVGeh+7UXMYsWooP7T3+gqajVKsOarVfaFqmXbWotkaQub9XYxrFXDeyJBjaN6v84ZxN7dfoVKkiHDpos7x57pKR3hKQ0oqKoNzgcQDzUIss2LNPSBcQMVXnou4azthgpiF9Upo2eIgNKBlh3cy/HeaIQyZ6nC+0H1yOqpcvKZIVMGDpeSkKlutTb3v+wARFs0vOYv3qB1DXVi6qvno2ei4bZda+kkEGeggAltcSDT1/ff//9NlYbSjh+XJvP008/bR+C27p1q21H+gbmAoj6Kn2Kj7WUyFEjjpKPTviIliBqpTJcZo7egKPzGdoKmqVFnfh2WSGrZF7zW/Jq47/k5cbX5dWm+TI/vlCXr5EdoTp1iV4XaQd24QfdD4bJADlp+odlZGqIxJJe+QPVYtY2gZtRN0JPuoHhWnnf+GOs8R+SCIVBicWTJz0Gdq5XdbuKy5utC+WxFY/LnfN/I798/Vdy+yszZeZrd8mv598njyx7Qv6583WN4Xo9C8QPm3nVc23x0/1gHqWVYye9RyZVoZpMj5O9vzMlaVlfv0E2xbeqgMHVw9F7WcorqOBXWOM6WMYPVOFIlWSfVnFeFipru6KyJ6F4RsZVjrHeeP70A9nTtJLhTj3XeevekrTqb8rUGinh7dsdifQNICaucwFKLz//+c+t155/yByIkKtqe+qpp2yQUHwWgfQNKDpZ0E4yrnqCnHroaeoih2hpw3uKRuaHY4frsuct/FRrCcVlUeM7Mmvpk3LX63fLbf/6pfx87m3ys9dulxvmqr16u9zxxn3y5MpnZHnLSt1Wt8ZNg33kAAcbU485LTpJzjwY3YK1tGNdfXEwuE1vq1A8LGOrxspB1dOszxxe5AReGQUhEU+ve/ZTq56Rma/eJQ+uelj+tOOv8nzLP+X1+Gvyj5aX5Mmdz8lv1z0it867ywRp3o7FVvvliYmXJbz3ZHSBxiOSKbdOFMeNe7dkWtAlQUVOS3DpaEo2t26VjcktKOO1xcL+1wmEMpyJqjiWy7TBB2gpzcqNutKrCkS7XDb4LkD6QomQHDR4qj4ADNLfiBe2ypYgLRSWpGVNfK0s3blcRUdTQot6SDb0XPNSLn+ak8IFwoIXSCEsGJ36e9/7nnWXdrgSEYAw/fGPf5TPf/7zNmQOSzyFj+dhiAwJDZCPTfqgDNNpqbVx4MkaTtx7wrYHaJ0mMi2iz/byu6WPya0v/UqeXPGsLGxcJptSqLhqkOZwo7SEG7SksUXerJ8vTyx/Um5/+Zfy9NZnZGuo82oA1N5FpUQOG36ETBl4gERa1e3Cc6MRB44TnRiawzJ52CSp0dIO2pHQqK8Bsn8eiMMzK/4sj897UjantkgmiiF3kpJIxb1qMKv2Q6kkLo2hRlmwfbHcPfc+mdf0liRNdbz4oa8b9m0eXCnRv0PHHyK10RoTRE/oQrKjtU6W7FhukgNhQNkLWyA+nrvHsqhMGzFFBpXVSgZVc1in/+FFU+/P++0H4WrKq+SQsQdLmV4R7NHFDuZIZFKyZMMyaYg22/7sPaKcfZG+B/I+Hvhwv0yYMEFuvvlma+Pxg3UQHUxR1YZBQtGdOrc6jhQWBSg6frfin4cnybWe07Y3m/F+RZMlMq5yrBxSPVWqraVEl7snZeeI9XAorWwKbZY/zHtYnlz0lGwu2y5Nla3SEG6SJqukSkhCHXtzulkdfKu0lLTKtmidLEuvkvtefUCeXf032RlqMJfv4U3xP1wx3p2pkko5esK7pTxVrlFof05HNGrClTJu8BgVBK/rs4c/HUIqdVvlpVWvSGtNQlpjreqAU+iXIJGonhVKGLofCCmqBxHjxmiLrA1tlL+/M0fq9M9KZNl9+acQjsGRITJywEgboQBVWBhppiHTLIu2oaSUsJA+3WpDy0oyPDpURlQN073gnZ32QCY2avhlGgonAqGPh2RQ6WCrWsM2COBJa3uaoMptZ7JOlm9ZrunfqOeqAoZ9ZffXEW/bXa3w6O9P605MYG7InKqqKrnzzjutV5u/OzXWQWSSyaR1p0Ybz6ZNm2xbUpgUnuj4vRbm7bf96MR6SHb/aHDHIJVwaGWtVfKuEe+SEeEh1vANz2xH1d3bEXQbjCtQr47tsZVPyQtbXpTW2kZp1d+pdKv6X3Tv1WDq1DH6mWDgSU3aUCqqzj0sraVp2VHZJE8v/au8uOWVbAsKcE/6cKd6KfSgKGUdUDVRhpYMsTf/JVuFFlKnXq5xG1BSjT1LROO468ULyc7WRtmhLjgRS6kAJlUY4Jr1eLrvCMRC9483clCdloFw6LpkiZYWdiyTJS1LVIha9fQ1PLQH9Yu4efVY6CJeJhVSFq6STDKs+1XT7eOlSVnRsEy2pjdrCunxNK1MNnQbHBRVaDi7wTJIxg8Y73WS0P3aSANaJIGEmMhYHBEWlrbhhqaPPEwluEp/A91A/7mu0Ng7qvTWxdfIxsY1EinzxApOaFen7W2zqxUm/nOAY3XWX/CfM9LBnTs+i4DRqZ3weFXfHXEfglu+fDlLPAVK4YlOXnKdyJ6DPaH6Rf2mPanHMlEZWzZMDhl9oAoHnsK9cPBJcImecwpZSWZe3Zvy4jv/lKYIyjRwqBaye+jxtqa3y5xVL8l2K1HogfSf52TdQYE66Jg+4Q8YLiUmYvqnB8Jo1SgNeSFx2fTg+OHfVJehRGID36S0VJOC+0a5DSeD+OJlGbyp7+1JJya+6UxcGrTEsKF1EyoItTTWLA2RFqkPe9aohhIauiZXVpWpI/CqyABGtK5vbpBF6xZbTznDS7K2MACluAnDJkh1ukrFBq1C3rmg7QwChHQ3BxNGF4qoDCoZINNHTbVOFkZ2nwiYPSMTnXfqlsm2+E67ltgfKT6QL5zIjBo1yoQHL5DmioqrakMbDz59jS+QUngKjz4iOvsWiA66E+NFzHRTSqYPnSJDZWB2rYcnOI6wbNPyw5/nPytNJXFJlWi5JOZGiu4+qdKMLNyxRF7d+LqJGKq+kuo6vb+0Vc2hFxheHB1YPcDGO7NPBui2iI8WEizeuwBvCwVUG1Baa+1T0caQjQDdJlAGShUW2Kx9aUpawq3ywjsvye8WPiIPvPkHuX/+7+W3b3p2n9pD8x6WPyz+g6zcskxVQoVL42X7QpxUCBasXajn1JTdo8ZV1ztwHIjMiOrhMrJ0uERTqC7Lio6do5faJjoaMpKJyfDKYTIqNkxak83YhYGyjB0T+9Z/6D24YMtiaQ5pqrUfjhQRyBMwv3gMGTJEfv3rX+dt40F1HAQKbTz4AunmzZuza0mhkM+FFTlwb57Dw/N2ZbhCjhz3LsHoaQ5/VQYcXYtKwYIti2RZ0wppiXrtNskUGujVWfoM75bA2rfuCAalbInGZf7GBbJUVsqKxDpZkVwjK1NqybU6v1ZWpdbL+tRmCZfgfR2NS1pvNjU48VYtkTQmnGP3450TGKHy+ckjzpTplZOkOl6q+9BzVY+M78+EQiX6NIi2nagKRdgr7aHxXZ8gm2NxWdi0RJ5e+6w8vvFpeWzzEzJr45/MHtv4lMze9LQ8vvZPsjy1QhKl8WwK6vZq2M8725bKmuQ6XZ7//JHRELdJVRMk1KKxhehYQF1joqNlMqu/13JOMmYvhA7A66nRCt/+cEw1OCItptXLTlnVuFbiKoLtEkqKCXdvAYiKA+KCzgVnn322tfcAhENpJ5n0PoGAsdrwPR4MJsoST+HQD0UHDs87cQxpM7CsVoZWDFOXpUs0b7sM7sCTdUOqQd7ZuERa1dlChPDCJ15B7CkZjCUWTcv8bfPljhd/Lb946Q657aU75bYXMf2l3K7Tmc/fIXe+cJc8v/xFiavAoUoMDhaN5MlIUjbu2KhH1mPjJPKAvmITq6bIBcefL58+7Dx5f83xMik9QaobqqW0pVRKE2paAorquaNqDWeID9Bhf0mMBF2hAlehN22FKp7OZyr1aFVaHquMS6LEKhXN6WM7M900qedVpxKwdNOytgbcrJuw/z1RCUmZ/h00bKqEVaWwHsP64NAwhEyn0lq6i6LlSEbVjBSNqW3n7Q1XKCsteo1Qlbdo/TuyI77TOkVg1AVS/KCKzb2zU1NTI9dcc429QJqLKyHhC6SXXHKJVbWxc0FhUPCi47mt/A5lT9yM5770xFGKSOjTd81wfZ6utrYQz8F1BCJTl6yXVVtX2zD/eML3OiG0t7B0F4hVMt0iWyNbZHlopbwdXiILQ0tlkdk7Zot12Tv6e2N4szSHW7Ukoo4foqMRTsVS8s7ad2RnUh2t/uU6fyOjN2UmJuNkrHx46Afk/MNmyOffd7F86phz5f2T3idTKiZIZUOpVMbLpDwRk1ItVZSkUKrC2UDcIHJ6TBUSVLvBMCBoSpfjmPiWTgj1fHZcPawKQERLZYnSpLyzYanUNdchdDY+Gsai5kUOnTYmDJoog6sGa8ZT4VGha+9xpqG09IVRCoaUDJQxA0dr+Jhu7h3HTeycNSyq1uavfNNKf15nhXYw7/9NigdX2nHdqceNGyfXX3+9nHrqqbbcD0QGJRz0akNVGzoXkP1PQYkOshPch3Mh7U3GcCJuTbt5TreneNuiHaE8VSZjqsbq8zTexM/vpuByN7Zsk52JBtTHmZP0Rm2GQ2zfxlUDdGV6p6hFJBqJ6g2hDl2FBP4bZvMRde8QlwgcsTrzcEy3i+k2+mSnT/KtsYQsr18pi1qWSJO6XTfOG5yutXfoIewwNkVH5YiNzTY1PEU+Uv1+uWz8BfLfx3xRvnfSN+RT086W46vfI5PiY2Vga419YiES1w21kINOa0ndb0p3mFERk7QKckpTCPPIMjgIzlkNnQpS6aQkS9OypmmdrEuusbggnEbL0hVTgFGnh0ZGyOThUyQaV3FUhxBFbwYTNw2n6RPWOEyrmigjIxjrza4yzix7TL0A1jMwJGsy62Rx3VJNMxU4RCt7nDbDkuw8KS6c8Lju1NXV1dbGg15tbfeagnVuHlVt6E6NL5ACtw8SPHa7FhbmLrxZw5tHw/UuZmt6jueUMLZXVAaU15hj7HjMdiA6O1r06V2f/tP69A9wZO/oPYtBx2yOXx3N/jRy5mQVr9ea50xRukJvrR3hnfK3Vf+QzbJNmiOtGghx8rZHScRti/9xjmi3Qm82fMytTM93iNTKeBkjHxr9fvnMkZ+Syz/0n3LxcRfJJ6adKR8a8kGZmpkiw1qGSHW8XGLoYo0dqQrZXnEDq5hhzy717X+r/sM7Mzvlnfql1qHAC4WHBt0FAukMJihRHjr6IKnOoK3G24fDvigaT8vUwQcIvlGE9V4XaUd2R5oOCzculu2ZOm/fttSbaQttESbFCkTDCYercvvJT34ip59+uomRX3hcOHSnRq+2JUuWWCmIwrN/KEDR6V3cky8myKw1VdU633nmgyu3KqM0ugMjXDYzt3m33sUrlUF01AFrEaYp0iKvbfmXPLfy74IPQeNdHC/+COn9+UE026KqwoBqrVgmJjXpahmeHqKloMlybOV75MyxZ8hF0y+Qy97zn3LuoWfJMcPfJTWpColoyQc96Gz/eiM7MwGyPWOdd8zGTLMs3PGOtEqLl85tiaQ/dBaLkOGm1UyW4eVDNGU9afJMtS2RkNqyKpk0dLKV0uypFSu83RtedWejvLXmbavS80Jkw5F+B/II7mOICLpT/+AHP7Du1LmlnWRS7xOd/8Mf/mDv8bghc5yR4Oh3ouNA43VZWamUlXpDrHTwbD5QetgZr5N4RkVHgznnZuOGdbJNZ2Bbc6RZ6wrbuwZBLzMY4qt3hy5LSnO4Qf68+M/yyNJZslWFB33J0MKU63rteG3m4oqbEIKrs9aTwPu8GzqAV4fLZELpGHn/kPfJJQddLFcedZkcVX6ElDRHJJpEFSS+2aN7amuQdXv3SISTsqJxjWxLeyUQO0526sDsYBkooytHe1V2OHp2faQ5JBNrx8mw2FATHQ+sbN8BSntLG1fKih1rJVmisfflYN9hSD8CouGEZ/jw4XLHHXdYGw/uMVcF57/nnn32WfsQnOvVtrt7kexb+p3oOBfmuWBUAHWd4fBknQgnrLtz+4ZeicK58d5Db5QM2kYgGTgaenuFJBFJS1N5XP7yzt/lN3MfkDdaF8hm2aEljFbBmz9+Oo2ja59pywJeBRVexqyQcpWFgXJ45WFy8dEXyqmTT5QhyYH2WQU0wUSsim1X0pGMCc6q7Ws1JhjzwAdufJ3A0Itt0vBJUpopMYcA0cH51YZr5OgpR1l1IEp2tpn93z7FiAlL6ldIQ6YFlfpt27aHIP0Fv1i40oqrasPo1Pj0NT4KlwvCPvnkk9a5YMuWLexOHTD9TnT8IMu66rbOQWM/vo+Tbey2rTTjYsP2PL9HmKuE083eMH6waxREYloawBv75u11KT45nQxFtbSTlIaqFvlH48ty+2t3yu+XPSwL6hZIQ6pe94eweVyxLdA9uz7Kajg0qrn8ffHstPRHqbr/ETJEzhn973LqlI9KdbzMesa1FU1ywDs/O5ONsnjdEpU+iJ9rb0J4THEUlKxiMnbIOBlUPkBLTRAdzwaEauWA2im6PqwlpPas6Q6Hd5UwFNGiHe94nS2sowG21UcDmBeM9GNQsgHoTv2d73wnb3dqiAxKRehO/bnPfc7aePLdg6R3KEDRQYlCM4DzfPhtYEE+6ynYJ9pJ4LTg0JBJ1XlZntt1/ygLlaLyScPCrSGcs+7j9ueVWjBvmdy3E/y2DspZB6pLbDlKWN54Zp7cIbao4oqqU0YVWSoSly3JjTJnxRz51dzfyi1zfyUPrntU5qbnyyb9a1Q3jZ5uJgLYT8qb2pXXHXr7xMAzEWvkxy8cy/5pMCyvKa2UD43/Nzlh4gcl3IS084sU9gDD/5DltCzeukjWynpdEJGUigrOy9M5rPd6Dg6NDpdJlVOlNFmuwqpHjkdk6vBpWr4apCGyaa1Pskgu7zgZ68yxJbFZVjYtVTVu1bihTUfXeodXXFywnRcba3/qY+Q+wTsjneOqz5BOmEJUxo4dK//7v/9rVW0oAQFMXXoiDEo8GJ0an77GbxjpXQpPdOx+y95gHcTHcyYdbc/B1olUQpriLTrv9uXft2doeK+Oee/xeLHKxi076RlwpG5Wj2qmRzHzfmM5BsW06iVd7koBiIv354X1dqHrtHSRKklLS1mrbIhukbk758kf5v9Bbn32Nrn9n3fIrOVPyFvxBbJONtiYb83RVmkKNemus8KGkobTOFjHWZ1BGkRkgNTKiVraOWTEdImoQCA+ngFvHn4RowpsSW6VpY3LVBKwwIuzJzfZ+KtVSoVMrBgvZalSiajoVIQqZdKwSfZCqMYIW7aF9bZHe05CVm9fIzuS21XE4rprlT5dAcN6hMQx2rYy5+2s7+AcKNkzICyxGF43CMnAgQPtC6SnnXZam+A4cXL2l7/8xbpTY8gcCk/vU4Alnd5Gb2Zz2iFpSbZIXesOc7+eg9oVNGgPLB0gZaEyLVYgjHOfNttNEFAzuDrJVNhrc0FpIYyB1PTgKNhgxGUMhBlNlUgsieFr0LSfPZ5ubr3XTIjQDRlN/7h0ahmMio3yBUoCCcmUtEqoplU2lm2WV1rekAeWPyo3vnirXP/yTXLHkgdk1vqn5ZVtc2VFy0rZKQ2ShH5gN7pr7wVQVIml9Mj+Gw+BIjbi84cP+KCMiA7RuObJPJqGKAE1hVrkzZULrI0JZ4D08mKLXzqnE4yYPX3gBKnSdMXo19V4IXTwGC1TxjSEluVwvl5oM5wfRiFYvmmFxBPZ9iJLF92dhcVRCNFsgacfBSIDAYnH4/LjH//YvkDq704NsD6h+WnWrFnyhS98QdasWWPL3T7IvmcXv1H8ODco5sQ27tykT+SoAMoPRGdY+TCpiFToHLZ1z+E9z5TYIpQMS2VTpRw/7Fg5Y8yp8olRp5mdOfI0OXuE/h5xspw24sPy3hFHSFW6VMNnN8x+JhrHRvsSetVZFRSezPQGwTngfFp0gyadx0um6aiGLU1LXbheljetlBdXvyiPLnxC7nnjIbnttbvljnn3yBObnpZlskYFqEUSJl4QG3dumFqsNaOg+i0mkysmyujqkRjz04TTpaUHhFVLXrG0rNi8QjbEvSF7UFr0SmfOMOp0RMZUjpDhJYMl1hCRsWWjZECkVpcirAvlgf3jXDfIZnlny1LrA4HdwTG4PZooIzAhil94YOhOfe2119oLpK4k40qUCItl6E59+eWXW3dq0nv0O9HxsqK6J/2HIWY27vQco9fwvStwmIPLBtvozSEMZWwe0Vfa6QFwvHDcwyLD5NSpp8gnJ50l/zH5bLNPTjlLzplyhtrp8smpp8tx446SMi3tlES0xKMO3j5XENftW0M6VQnQeVgsEZVoQqVRxQwOW+8wFRyNHW4m/UPJJakKkShNSXNps2wvrZO1JZtkQeYdmbP9Rbln7v1y+z9myj82vCCNIe9LP23uu8376750Bb6pM1AGyOgaFR397YXDcTy8rfSoEXQoaJClW5epDPp6sbmARlgGRGvloNEHSmVzmRw8eJru2XtR15OyXEIyf9Nbsim+VSOipT0NYKKLNd4laY8uIYo9lGSFBZ0HIDwzZ8404cnFhX3mmWesV9vq1authOTEi+w7+p3owC15DdTqsGIZ2Vy/Sbant9tyD2Sy9owGR14TrZHhA4dLNIyGdjg3Xb8HeREOFQMIDChBc/kQKZdKKbWxAvCHPl34K9XlVYJ3UZHh4+mElSiqw1VyQO1kmV59oBxWMV0OqTpQbZocXDFNDqo4QKZXHSDjoiOlIqmlI4ub/zxwbnps9dToCRcJaXlGBSYRa5HWmhZZkFgo987/rTyw7CH7hAOqyJxDN7CNCllU0w0lv8HZzy6gPchWW9J5+/e6GHjv0yzasti+z+M9V+YjJlNHTdNSzkg5sGq8pgTacxQU76wzhaILsKxRy2/zV79to2HjN0p33tHbsWjkLiREceJTUlIit956q1W1od3HrQMo7SSTSXnqqadMeLZt22ZiReHZtxSe6Nj19TKBeTPzaDCsyGc9Bc4K7RbqVtUDb2+pk1XbMF4Y3KyP7O7hRitDlXLYqEOktqU6O0IyKtrQtuL7s8dsz13j2T97BrYPOEhUiOGLmeoz5dBRU7XEUKmlHuzf6zuGFy+tLUMN7nb7zp3SooKD7s+RTFQOGDFNZhz5KfncUReY/ee7P+vZ0eerXSiXHHmRvHv8URJuVZm0NEP8YF5JxAzJqVOLj+7XRq7WmGVKM9JU1iJzlr0g/1z5ig1j03YNHNjQYlkiFbEqjVOJ3axehwSkJ6r9dN92jIwkIglZ2bJGJQyCbsWiXcCiSaUT5N8mvk/GlGOAT7Qd4UBYk91AJxhwdEPTOlmzdYVkokhJ71h+7CEC25ridrTsmrxG+hcQloqKCvnud7/bNkioEySICwzVcRgyB92pXa82su8owJKORsl5R7/z2cVdWIA9AA4QmUgdrxY7GtKN8va6hdYe0obt3ts/jg5neHDNQXLYoEOlJKGlkhBehffCwOm2mz9u6u7dflxmToZkSGyAHDH2EH2qV7GxsdywFUoJ7RVLKN1s2rFFkiqKkag6+lBUStPlMkZGyiQZKxNltExOj5NJqfEyITVGJssEXTpaxlWMk7J0qYmOiQ2e4OwpzqWhHk1nYRhcE9+ugeEvFUlJfbhJ3lz7pqYFevR5cWkjO4tJKA2RhOggjCsXZfednSbDSVmf2CDrdqzWtfZx7A67c9SmquX9U94ng2KDrfoOwWyQUexEQeogPgs3viVNqToJRbxj2brs/tw0n+CY6XqLW46R/ocr1YwfP15++tOftlW1ueXAlWwef/xx606N93jQ2YDsG+A1+hXe0z+6P2N4GX0iL0nJvA1vyibZ7PlE543cCAQKyiJDZICcevCJUpuslUyLrgubVFj3ZgzHH86gR1lUkiGMPo0eZV63YjhvhImmYlLeXC7vGX20DI8M031CZBAfT6xwWO8roUnZlN4qK+rWSkp3Y84/k5SG5i22DlV73jZZ1PFbe4uGG1c+UoaVD7bF3guTELWU7Re9vDoDohFWAYyoNTbis9SIB+KW1Vb94TbHsZtTTSYqKB0iHM4SwOejVxvC4uOgjYlmWbl1tTTqny/GHUBvIrxBDvJVY0A+d8hOWbJzhUh5TBLZKj0HxYN0F1eScT3Y8AXSBx98UD72sY9Z6caBko2rVkNV21e/+lWOXLAP6XeiAzcG4LrwQJ2OhWRbaIfMWzvfhlgxz6lBPClARlUHqpkNwjOhbIx84vDTZWRohJSk8EEEVIdlvR42wwa2XVYYUKLSHWA065J4iUypnSLHjT3W2i5sx4pXAQbXrttreHywemXLatkc3ypxFZtkOiXJTFzqmrZq/NR5W3c2BMYBNZ5682BPiMuI2FCZNmyalCUrJJbRY6RR2tG4dOGYscqTDhVPTZCh1cN1TzFJt7284/3v7SKt5cG41CfqVXTwYW3vJkRbjneMdnFD+qEL9/ItK21gUq9XXH5yu7H6QWXahpZNsqx+tdjrQT7nQEhPyM1j6CjQ1NQk1113nbXxlNo4jLuGmz17tlx11VXWucAJF9lz+t8dbMqgpvnK3L16yabSJnlj/TxZm1injt1rqHaGcBGMWqBP2OUqPe8f+h45eeoJMig0VCKtXtUXvpHj7dcrLYga2iH0hzphLatouBHlo+Sjh35UppROVtEp091q0mvmxgWA8MAAXPmra16XbejcoIJoAqZx3NmyTTa3bDYn7L3N6QP70ePUSJUcO/kYGVc2QUrj5Vrq0FKX7ta1tZhO5RjUIq0yk9GiSXmoQo6ZDlEs08V4V6e9xOPJqJaEpMm6mWM8Ojf0jNcd2tsh5mCYxzeCNmqc1yWz8d4NuTc7jmjv5mxfJZsz2yWuccIRcExC9hQnGihhI8+hV9v3vvc9G53aPQC5vOjCYsgcjE69YMECtvHsJf1MdOA61XGh2kkdt+d4ITxJWbZjqby8+ZVsbyuIAMowyFzqasPqMrPVSSXhcnn/qOPl0sMvlPdUHSYD66skWodhXMokpqWfmDrvCCxZIuH6kNQ2VspRVYfKZUefL+/W8Cj1YP8ooaCEgao4rwNBRt1rSpY0rZQF6xdIKpKQkJaw7JPOqmkN6VZ5bcU8CxMNeY34uHr4Bo0byRmdEMZHx8unDv+ETI6Mk7L6mJSgS3USouTJW65hebRZZEhzrZw57TSZXjNV94LqOqSNunikEeb1D/GsyzTJlqZtmh4QgI7uH79cAz+2jejGW1u3y/y1C+2cc9l1iQ/dT6sKd7P+rdi8Suc1PVTE8bXR7CEI6TH+BxtUqUF4ICIYnfqWW26RU045xYQHOPFxhu7UqGpDiSeZzP+KBdk98DwFBrwcLDvf5pqwINf2HGyNk8eh0IurIdokf1/+vKxIrDbHjhDuKCZUNsU4bKVSrSWKQ6sOkguPniEXvvczcsqUE+WQ0oNkYnqCTEiPlwNkshwoU+TDIz4gnz3+Avnsey+QA2NTpDSlJQprk/Di7h3BO8OUlo42yVZ5av4zsjPUhN7Eks7WIVtVlTrcV1a+JsvSK2yZ4UXKMwV7q9Ly2KGl0+Rz77tAzjz0VJmmxx2bGilDWwfKgNYBUt1arVYlA+I1MjwxSMbpuqOqD5WLjpshJ475kJ4dOm2XmSB6ZHeutOjf4h1LZO3OdZZmwNLHBdVffklA6aY1Fpc317yl5aNm+91d0LsO6bNR02TVztWSiqIyL6GHaI9Pt9FNEKtcI/0bV2JxL5BWVVXJL37xCxMef3dqV6WGzgRPP/102+jUZM/QB9Js+XE/sn79ejnmmGPsCQIdosxxqXMpG1sm5976WdlRtVNawi3Z0HsHHCRO2MoZ5i0994NRjcOJkBxReoR85pjzVEBGSySMlhw4T3yxRss+Ga/o7ZV/UBrAs74nSegF1xBvlpZMUipTMamOVUhpSZmF97oMQOK8Lb2SjQe2R/tJS6pVZm14Qn6/8FFpLkPJCoKjYTWgN2q0lmOaMvLRMR+Wz065UKqiFbpaV7odKWi/sXPSE8T2cPTbUttlW+NWWbdjs2xPaBxTjVYtVlNaIUNjNTKmYriMrZ4o5eEKjZfJcNv5xVBFqMu8MQUysl22yP/Nu03e3Pa2tJZ07M3jouJpgs1hqcWlJl4lXzrsMjl88OEqZyUIkMW7Ep0BkXu87i/ywGu/kx0VOzXeKLGFJOKKUwGC22RQqlbWPLJE5tz5d5F6XYiLow8RiM2JJ55kg0fieu8J2D+2xRhhTzzxhC1zTrG8vFzuuusua3dobm7u0OhN9g1+N7hq1SrrUo2hcXBNktlSDeZRCkJYdD7AYKJTpkzx7nFek27T/1JK8xYco19wgI1KEE3Kgsa35Q9v/FHWyHpr30lZZoS8qDPWDZ2b9NyzJygojFeHK2Vk2VCZgB5kVYOlUp062nvQ3drJjreVN3Ao3AmyMtpwdoYa5KWdc+WvS56XVJmusV5n3rE8wcEvPVpFTOaue1PmbH9ZGqRRd4ewulINp4OyAfyx9TjWeZTK0FPuwJpp8oFxx8vHJ39UPjn143L2AafIqeM+Iv828jg5sPZAKcuU6cbeGQGcj/ecZ5VstrROJWz28mfl7U3vaKkDMeuIiU2HxdkfujFGe3h7w2JNTV+3dMM7Xj5wPZo1/IK1C6Q15A3KCsHxrhsh+xYIBwxMmDBB/ud//kdOOumkDmKEeTwIIJy/O7Vb5w9LOqffiQ6ylZe1dnVe+KxAU3mzvLLpdXlo7h9lmz7bN4bQ3dc19XuN2NjSn3AoB6CjGlpn0D05nVSXiS6X9teO2w5TLEcINMyvkQ3yhzdnyZYwGstbdQ2ERkNowPZ96BNXOCM7og3yxwWzZXF6uW7bYg49G9rAPAzhMVoahAd/JcmolsBKZZDU6BN7tVQlK7TUUan6FpNoJGYjDiBeMOuoYGKHUpyWwqRVXtrxivxp4V8kXpaUhIliR9q2NRAbFyM9T433sroVstOKB1iDCsP29flA2mxIbJLF6xfrw0DKRM0TnWyAIoYObP8BQUlqyWbw4MHywAMPdPj0NYDoYD2uD9p4vva1r9no1KT79DvR6Qy8nIneXmhyaS5vlTn1L8hv5t0jK1Or1Omi27IKjhUjNLCzNsepDh493PQnhokpiZSoE/dKNH68IWI8QxknruWVuc1vyi3P3ykrwmutXSmN0gvCaKb2HCwyvCd4SV3WEkvI+uhG+eWLv5HnG/4p9RkMW5OwtqJQJqkyg4+kIR7t5SvMRaMaJxUX7Cei8QupQTpSEQ3jHTKrVrZUN4LbT2gM6+RvW/4qs956ROqr6iSODgQ9zDXoiLG6eY28s01LSfrnCU72uJ2AUubbGxfr+TWpmmfPQzfz5ooTODIM0+JExzk7zKNrr/836T1QhQZDGw5eIHXdqV0HAwfWo8SDXm2okiPdg6LTAc/Ro6apNZqW17fMlzuf/7U8tfZJWR1apQ4XXxA1bbGwbs6AP8A6Nc+Xeg7CD3wFqsua1KWulHXyyOrH5cFXHpQNybWSjLToJhAbX4nD8EpXOJa9A6Pigu7Ym5Ib5KFXfy+/X/6ELNa91YUbJKlOCe0vXuUczHPv2AKxcr+tnKIHwMWHmYjYAb3Q6Jq8Q+O4KL1KHln+pDy8YJasS2zQOCbV8eHDaV2oRR7Sel4o5axu+4y1nqd1qFCyk1zq9G/emvnwAPp0iSVe3FxqFBMQEdd+M2LECJv6wfskGI6FYhMMTvDRTjNy5Ej5wQ9+YFVtWOYv9QD8/uMf/yiXXXaZdafmNdo9hS86dg07Xujeod2p4WiZUFiaKuKyMrpOHl74sNz30n0yZ/3zNiBmS0ifw9VQtYUnd1RBZcsHnnvXHcDRwtlDIDCGNT5A1hxKyNZQnbyw8VX59cv3y6yVT8vG6GZpjbVo5nVVSG0KYL/dvNdJoP2CtUZbZHNsq/xp7d9VGO+ROetekE0auwYViyYtJcC5Y9BNHNurzvKEx/vfM++MvUFqEhpfvPDZKM2yUffz3Irn5fa//1oeX/aMrItskpYS+ySbxgYlNYtYt0Hc0Va1fPtKq7LEsDat4VZp1hJQi6YJqu9ybUXzSisdmchnG+sR254due/gHN3BBx/cwbFhHoL0wgsvZJeQoEDao5ocDwI333zzLiMXYD2q2hAGvdrwIbgVK3y9S0leCq/3ml5IGzNMnVvZ2Ao599aLZEc1eq81eoE7gHDtN+i+w3OriIa1I6irj8VLpCJZIeOqRsshY6fJ1OETZEzU++gYugtEbZzoqCZoWOPvJAgONW4isD6+VRZtWSRz18yV5VvUmVaIVZV5YbNily3lAJSY3IXBFL8hOpgCC6sGkYolwhJpFRlSNUjeNeYIOXDgQTKudqR17Ubs0KbjdWjwpMf2p3+uTLVdSyEN+rexaZ0s2rxI3lq7QNbWr1WhUTnFlxWsJ53DUsab7TZ6pFRIhqRr5MRDPyijqobpbmKSCml6pb3zz+XVTW/IC6tekXQEcdZ4aAmxp2K3L8Ft0pu91wCO8fLLL8sJJ5wgDQ0Ntsy/P+z/uOOOs2od9pbqPdwDAAyCAtFH1RpKnJdeeqldB1wDv+t085/4xCfkpptukqFDh+5SHUc8ClB0vPYLtCl4ovNZFZ26gEUnF2sVsS97RtTBl6TCMrCkWgaXDJKBFQOktmqAVJfW2IufJgIlEUmkWqWhaafsaN0pmxu2ySa1uvROadYSipSEJYFRC6z9BskPwbEDteHEBViInN8QDE94BAMfeB3Z9FKWJsqlPFUpA8prZGj1EBlQViu15dVSWVIhEaSt7gfbJ/Vmam7VUlG8WbY0b5WtjVtlZ2KnNGVUIiNx68lnr8PmRmwPCYciEkuKVKiKxVRwMDZdOjvSQz4xadB0aoq0mHNtz6K50+BAHHpbdEBdXZ09Ub/44os55y7ynve8xz69jE8wg709Ftk9Lo0hPLgW8FHXXHONjckG4XFgHV40xRSjV6M79aRJk+wa8jp1hKKzWzznbolkh9Iygj6d20gAWGfOHh9Q0z91pFiGZ1A8n2PsNIwmgOo3VBGF8eQDR6J/yVRS96Ehzanvegm6Eh2PrOjoXESn9uaPBoRQ4Kva2MY+pYDyFwYkRbw0ztgP1nktPBo3PT4q/xDfKNpPdGEkEvWe8DCkzy7H7Sk4il5Rc6DZ0opGwluqy5B+Oo9z8YP4hSPe03waaQcHb3hbBg1ukyBKOniavu666+T73/9+B6fmQNsBnB4atunMggHpDMO1wXTTpk3Waw2dCHJxDwonnnii3HDDDTJt2rTsGuJgGX23qHNGe4s18nuN+XhqR5sPnHtSdQRf5oTFowlp0VJCc7hFrVXiMRUe3SCtzikcCVk7j2tnwXBtEBzPhe6d84C/Tqr3huBgf7Y3/S+jx0wgXpGkdYJoCeFz1p616m+YjaGmcYT/SqOqS4UmmWzVGwcdBiyKZnsOBEbTSveR0oMkNd2SmuvQVoMdtw1rY7/bDTc3hNracyxA8YNzhpigpDNx4kRzYH5QXfOrX/3KRAm93BDeVfO4Ka13DA9hSG8wbNgwue+++6xEk1uScSWiZ599Vr7yla/YAzXpCEVnN5gomNeF4Hiik+uE4fQxcCjeR0lF0CCvpYfsbyxHFZV1LFDx8tpwsuUMWw4HvAdeNRsHTLA3CCDMXmDNxhdm6/W3xa0tLn5DKP0vGwfbtoPpQm/VXgHpsdKMGUp7sK53jLjD+hvTp0+Xc889t20oFgccX2trq7UZnHPOOTJnzhxr+4GTc+0HcIC03jEIjEtnXIef/exnNoJE7nVCOFwrlHy/+MUvWg1OkmO1tVGYHQmghQVSvWaOTwUD34lBNRYcJxw1HHwHrOgCvCcdbztvCfbidTOG8GjQtFcJh8qmVLbaKIaigI/2bV0cvHmHVx3lVVMZ+lMlxGbxJKH6kt2oPYx/F1hlQdTaQyGebqn731u7t9j5Z+OT1tKOlXTwCyUZPVDuEdpjoet0JfKFh39NcOCaBtGmA3CsNWvWyGc/+1l7YnbdqYF7skaY2tpaOeyww0ykxo0bZ1/E3BfHJx1x6e0MwgNRQRsOeqvdcccd1haXC8LieqG79fXXX29Vbfjd3ylA0dGLhf/UE5WNKc/2XqtX0cEnlHMJ5gZDAsEZuzYUc3u7HNotaE9Of8Jie5Mi79RsCcyVclCK6oz8a9rjAhAfE4zsAm+voH0uF7etF8J/FP9859vvKZ6bbsd++Q8JdGHH+PnJDdz74DYJSnRAUp+MITx4Ix5DrbhqGweervEbx4Plfu+f7Htc+rs0dlO8uAsRyofrXIDriG7Xo0ePtmX9+ToVnujog4DdxhCdXhjwszDo3J3uCf4L2H+zcu+C2yRI0YHIwJHNnTvXSjyLFi1qc2y5zs9/C/dnZ7Y/6cqNOpHBS6Zo50FpB+H7a6mHZb39AhzDvnMObm90N8UDHBJKL0cddZTcfvvt1hvKOSm/2PgFiIJTmOBhATZ//nzrAdefBQdQdAgpcN773vfaB8bwpIyh9AEEBqKE9gXXuA1HhnlMacGauw7uWviByKDkiipTV03qHhb6IxQdQvYQr22ud3FObfz48fL1r3/dRjbGp5XRcQDdpPEE7ZwY5uHY3JM1LXjrSkzwoID1/b1UWjBtOscee6y16QBrpC/qNh3S18Bt0qFNZycEwXMi4KSTT5YnHn+iV50JjgXDMbZv3y7PP/+8vPbaazYY6I4dO6wbL9k/uBIM3rNau3atzJs3L7umnfPOO09mzpxpvQzxINFfKQjRWbdunSc6a9ZojLILTXQq5bxbZljvtWYMLpaXfDe5/5Qw7w+Tbz43fHfJd2zQ2T46C98VPYnPnlKI59HVMXoar70/D9wmA1V0Vj+6RJ6H6NSp6NjnLLyvLZ0A0XnyyTZR6E3g4PxPy2gngLkRDHr7+GRXcE0Aqjwfeugh+fznP2+/3XJA0fEoSNFBtQXeki8fWy3n3XyubK/BmGV6Q+0SU9xc+W6w7IW2VXg/xH+B/du4eezY7dw/3xX+/eTS2T662qYzuhufPaVQz6Orm7L9Rm5nT86j+zc+7pKB6RpZqaLz4h1OdDDAK75flJGPnnySPB6Q6AAcx926BXAL93v8DwK//e1v5YILLuhwjQBFx6OgztzeU8eFyjoPvODovbGPC6eGqc13hnM8OC011NOZ4PiW5XVMbjvgD9uVuW06W5dveU+tq2PsKyvU8+hpnLo6Rk+X5zN1KJqfIm1vtSJrpTRvpiWJPJl9yTcoAYBzc+09/kZs2v4xdIt28+76kPwURElnw4YN9p7OmtXe1/fwxjqeZiuGl8unbrpQWoYmpCncbOs83AX1puoObOr9dqej0zaB8mUAW+T73TbvD98N2vbj35ejk315jVXefLfRp/qebtITLJpI73zsx/Po9BidxQn/dXYenRy7u+dhQUIyKFUjC+9/Q+bc8zd82rQNrP74qafJY489ZqITtMMpgFu43+OugSvpnH/++baM1Wu7st9FB4evr6830Vm0aKHdwHiYxDRTKnLoOUfIAe8/SFpKWjSsbdKG3dp6kb0p/vODwPlODQF3Cax0Fr4runDWPTp2V+xJvHpCV3Han+fR2TH2JE57sk07nohoPtuelpfvmiOb5m3CcN7eumxngiuuuFJuvukmbyHp1zzwwAMyY8YMm/eLDsbTo+joPbO/RQfdDNEIetZZZ8lTf/6TLtHoIEbuWlWqlamh1Jovpvsy9rv3P+3s7rj59rWnce1JvHpKoZ5HV8fYkzjt6Xm47eAj0E6Pb6tBcPTJKIz6Xy0tpfUWuvfee+1Jtj87E+JB0emagijp4EkSA+L9v299U+LJhIT0QuE7KyBSEtWbWn/g/jYvoV4gN8Ztp+D3LD09rZ6GB/k8GehqX51t0xl7Eq+eUojn0dX+O9tXT8+jm+eA0rSVdtDaiLzpte/Y94FCYRk7brz84x9zZPToUZafKTz9G1SvQXSQZyg6u7Lfz9y7mUVOP/10OfrdR0ksFPG6omZJxZOSSeiNntSLl1TngWkqx9K63Azzztyy7poerBtmg362GX7nM299z7bpzPzb9pblOy4sX1hn+cJ3Zfn20ZXl24ezfOFh+cLC8oWF5Qubx5A/LK/pY0/2C3n2sKR/lRWV1j0WgoO8TMEhyBvOyK7s9zsETwIwvGH9jW98Q2pqauzGRS8QJ0hdgTBBGvBnqnyZK98y0nfJvf6GzoYiYTn5YyfLhRde0HEdIaRTCqL3mosCxAdvWV9yySWycuVKa+/ZHUHf7E5Q/MVmkOuY/PMFkMRkL/BfP8zjoQhf7vz4xz8uN954o4wYMSK7lhCR+++/v616zZ93WL3mURCi43Aig++IoGH2r3/9q2zZssU6GnRHgIIAydXY2GhD9zjhcZmrrKzMSmy5ma07OIEihYe7npiiJD516lT7VPEZZ5xh72fACHFQdLqmoEQHwJHjgkBo4Nh37txp87kli/0Fqv2eeuop+dGPfmTig4zlMtfhhx9un7BFpupJsrp9kMID1xGGPIlrVFVVZSUbiA/yJJb1ZwdCdoWi0zUFJzp+EDWMJ1VIFwgZCaWwq666yt4vcsvggI4//niZNWuWOaaeJiv2QQoPd13c9cQUVWt+sIzXjzgoOl1T0GeOi4YbHBeoUAwgI8Hw280D53hQ3YKB/2Cu+oXWNw0lW1xnN8QJrmkuFBxCuk+fkFu/0y8kc/idTq4Dwm9a3zb/NcdvQsie03/LeIQQQgKHorOPwBOwv/7W4X9i7soIIaQ/QNEhhBASGBQdQgghgUHRIYQQEhgUHUIIIYFB0SGEEBIYFB1CCCGBQdEhhBASGBQdQgghgUHRIYQQEhgUHUIIIYFB0SGEEBIYFB1CCCGBQdEhhBASGBQdQgghgUHRIYQQEhgUHUIIIYFB0elF+HE2QgjpCEWHEEJIYFB0CCGEBAZFhxBCSGBQdPoomUwmO0cIIX2HkDoveq8egOS655575KqrrpKGhgZJpVISDodt+XHHHSezZ8+W2tpaC9ubHQlwPNhzzz0nd955pyxbtsyWp9Npm+aDHRtIfwF5HffhaaedJhdeeKFUVlYGlv/vv/9+mTFjhh3P717PPfdcmTlzplRUVJjP6K9QdHoIkqtQROett96Ss846S5YuXZpd2nUJiKJD+hO4F2KxmHz5y1+Wa6+9VqLRaCD3AEWna1i91oe5++67ZcmSJW03EjJ4V4ZSEI1W7ObyOkgmk3LHHXfIihUr7DfZ/1B0+iDuhlqzZk1bKcvdbH6wrpgNYussEolkz3pX8m1bbObSoTOwLt92xWT+NHBT3BOokairq9vl/iD7B4pOH6UrB4MbEE4YN1l/MVRz5oI0QDrlC19M1hX9KS84/POk8GCbTg9Bcu3vNh2UanDM8847Tx566KG2ZY7S0lIpKSnJ64iLDZwjqlDynSvqzh29dS32N+72xfnH4/FdHC7aNMrKyiyNkGeKFZw3LJFI2Ln6rzfuhzlz5siRRx4ZSBqwTadrKDo9BMm1v0UHx8K+/aLjLiOear/5zW9aBwPcfMXOvHnz5Nvf/rasW7euww1eVVUlv/nNb2TcuHHZJcUHzhcPG3BiP/3pT+Xee++1Zf50uOKKK+Syyy6TpqamLqsgHf5tCx13f7lzXrVqlVx99dWycuXKDg8hFJ0CQxOF9AC9yTN33313RoUlozcxclRGM1BGM1jm+OOPz2zfvt3CwHoLt2/NxHZcd3xYNBrN3HrrrRZGb7y2uBSrqTPJTJ482a6FSwPYkCFDMm+//XbebYrFcH31yd6mV155pZ13bjpce+21llcQrjvkO06hmsOlw6uvvpo55JBD7B7wp4GW9DKvvPKKhQuC++67z47rvy9h+pCYqa+vDywehUo/ltviRDO3PV1hqpm77SmwWE2djxnONxcsz7dNsZg7P+Bf7sflB5dOuzPkmb5i/njjHFF6wHy+vEAKB4pOEeKqUTDFjVisBufi5nOdLcgNU0yG88L1ddfYOV2AeZceTnTwjop/+84M4fqK5cYZ5wqD8JDChaJTZMDB4MbrLzhHk4tzum5arLhzz3eebll/yA84x/5yzfs6FB1CCCGBQdEhpA/iSnj9oRRDiguKDiGEkMCg6BBCCAkMig4hhJDAoOgQQggJDIoOIYSQwKDoFCH97T0FvpdBSN+BotMHyXWy+J1r/QV3rv31/Anpa1B0CCGEBAZFhxBCSGBQdAghhAQGRYcQQkhgUHQIIYQEBkWHEEJIYFB0CCGEBAZFhxBCSGBQdAghhAQGRYeQIoAfcyN9BYoOIUUARYf0FSg6RUzuGGS545PtzvaEfPvpysie0Vtp6N9vd62n5NvH7qwzuhOGFBYUHUL6OHC4LOmQvgJFh5AigKJD+gohfUpiubQHILnuueceueqqq6ShoUFSqZSEw2Fbftxxx8ns2bOltrbWwvaWI0in03bM8847Tx588EFb5i4jll9xxRVy5plnSktLi/129DQ+exL/nmanvUkjHOvNN9+U6667TjZv3mzp4qiurpYbb7xRxowZ02F5seBP52g0KjfffLM8+uijlp7+dRdddJF85jOfkXg8nl3SNUFcv315DLcvhFm5cqX86Ec/ktWrV3c4RmlpqcyZM0eOPPLIDvdDb3H//ffLjBkzdrkW5557rsycOVMqKioCiUfBoolCeoA6sMzdd9+dUWHJRCIR5KiMZqCMZrDM8ccfn9m+fbuFgfUWKnQ21Uxsx4UhHrnm1nW2vtitv5w38l++5bD+eO39+R5WVlaWeeWVV9rum97mvvvus+M6v+BMHxIz9fX1gcWjUGH1WhGCpygVRJtqZjfDfE8N++iJ5dvH7izffrprbh8AT/u54LzzbVcM5k9DnGc+3HVHeKSPm3Zl/mN01/LtpyvLt4/dWXf24/KCm5LChFenSEGVEqr+MA3K9CEm7/LeNoBzzQXrgk6DoAxp7Qy/O8OFd+mAaVfmwvfE8u2nK8u3j91Zd/cDsI4ULhQd0il+x9Zd6yn59tFd85P720/udsVo+fAvzw1fjEb6BhSdImZvqtb6gnUH//nnVscUi3VWvebIzQP59tHXDefl2F16kP0Le6/1ECRXIfdewzGnT58uo0ePlmQyacuKGVyD+fPnW089f1YuKSmRo48+WsrLy9uqXYoVON23335b1q1bZ2ngT4cDDjhAJkyYYHnBv7wYHXNra6vlBeQJP+y9VlhQdHoIkquQRScWi8n//M//yKc//WlJJBLmkIoVnPPcuXPtWqxYsaKDuAwaNEhmzZolkyZN6nDjFyPIZ9dcc43cdddddq7+dPjGN75h6ZObBsUoOgsXLpQrr7zSBNgPRafA0EQhPUBv6ILuMq2ik7n11lttvYqOhXWmT7tFZTi/v//975mJEyfaebs0gA0ePDjz5ptvZrQEZOHybV9Mdvnll1s+QF70p8N3vvMdu/ZIA7/l20dft1dffTVz0EEHZaLRaNt9AWOX6cKiH8ttcaLXtMNTLJ6o8BuG+WI1nLcfd74o+bk6/2I2d81z08F/7ph35t+2mAzp4C/pkcKDolOE4ObzT53oFKM5/GLrX+4PW0zmB79zxcbhwvq37Q9GCheKDiGEkMCg6BBCCAkMig4hhJDAoOgQQggJDIoOIYSQwKDoEEIICQyKDiGEkMCg6BBCCAkMig4hhJDAoOgQQggJDIoOIYSQwKDoEFLEYEw2Z4QUAhQdQgghgUHRIYQQEhgUHUIIIYFB0SGEEBIYFB1CCCGBQdEhhBASGBQdQgghgUHRIYQQEhgUHVKU4GXIUCjElyIJKTAoOqQoodgQUphQdAghRQMfNgofik6RgZsunU6bFTvuXDFFVZof/28XppjMXWN3brFYLHu2u+K26Q4ubF80pAUpfEJ6sfho0AOQXPfcc49cddVV0tDQIKlUSsLhsC0/7rjjZPbs2VJbW2thcx3hvgI3F4553nnnyYMPPmjL/JfxpJNOksMPP9zC9VYcCgGc88aNG+Wxxx6T+vr6NgeMcy4vL5fPfOYzMnDgwKJ0Rv7rXVpaKn/5y1/kxRdfzC5p533ve5/827/9m+XT7uQF/377Glu3bpVHHnlEduzY0eGaI33mzJkjRx55pN03vc39998vM2bMsPT2p+e5554rM2fOlIqKikDiUahQdHoIkqvQRQcUs9g43Dm7m9s/Bf75YkuP3Oud+9vhnJtbv7t06Gw/hU6+eLtzpegUFv33zIuYSCRiFo1G2+aL1XCO+RwpbnZ/ONzkPTH/tt2xfPvYneXbT3fNvx9UrWGKdMhNC/x24Ys5P+DckA7u/PPlCVIYUHSKEJS+ksmkJBIJmxarufN0VSnuqdJN3fpiNJybs3g83la16H+yBliPfOCmu7N8x+orhvjnnj8pPCg6hBBCAoOiU4S4qpRiN1e1kq8qxVUr5duuGA3XPB/9JS/AcL1J4cOOBD0EyVXoHQk+/OEPy1FHHWXVLsV8I+Kc161bJ08++WTbtXBUVlbKOeecI4MGDeqwvLv09NrtyW20N/nDfzxc4+eee05ef/317JJ23vve91rvNVQ9FTvbt2+3nozoveZPH3YkKCwoOj0EyVXIogMH9POf/1wuueQSczTFLjovvfSSXHTRRbJ27Vqr13cMHjxY/va3v8nUqVOLXnSwn69+9aty66232nLXxoXl3/nOd+Rb3/qWtLa2Fn1J4I033pCLL75Y3n777bY0ABSdwqL/nnmRgsyMqoaSkpJ+Ya5qJdfpQ2hw08PybVdM5npt5aaB+w2xceGK2XCOEBukBSlcKDpFBm46OBsYnA1EqJgN55jrbAGWO8u33e7MCVZ3Ld8+dmf59rOn5pwtzIF5lz75jl9sBjB1+d8ZKSwoOoQUEXSypNCh6BBCCAkMik4fJl/1AapUUMWQW9XS33BpU6xP/u76+q9zsZ4rKS4oOoQQQgKDokNIkcCSDukLUHQIIYQEBkWHEEJIYFB0CCGEBAZFhxBCSGBQdAghhAQGRYcQQkhgUHQIIYQEBkWHEEJIYFB0CCGEBAZFhxBCSGBQdAghhAQGRYcQQkhgUHQIIYQEBkWHEEJIYFB0CCkS+vNH+0jfgaJDSBHjvrFT7N/a4beE+g4UnSKnGG9GnFN/dzIuDVw6dJYm/s9Zdwf/frtje0K+/eyJObpaRwoPik4/oFhuQr9DwTSdTts82T0u7YrN/DiBZTVjYUPR6Sfku2H7okFo/OZf58e/vNjNf75d4d9mX1nuNQjScOxkMimJRMKM9A1CevG6zqmkA0iue+65R6666ippaGiQVCol4XDYlh933HEye/Zsqa2ttbC99cSFmw3HPPfcc+XBBx+047jLGI1G5cc//rGcc845FrdIJGLLi5XXX39d/uu//kvWrFlj6eIYNGiQPPzwwzJx4sSifPL137a45t/73vfkl7/8pZ2rPx2uvvpq+cIXvmDzyDMOt31u2vi37Q7Yvqfp29NjdIY7Ls4FtnjxYjvXJUuWmBg5ysrKZM6cOXLkkUd2SIPe4v7775cZM2ZY/PzXCffrzJkzpaKiIpB4FCoUnR6C5Cpk0QEHH3ywjBw50uJWzOCccQ3eeustaW5uzi71gKOBk8G0GPFfb4jOO++8IytXrrTf/nWTJ0+WSZMmtTnh3LySS1frOqOn+XxPjtEZODbuB+yztbVV5s2bJy0tLR2OQdEpLCg6PQTJVeiiA1DCwfLeikMh4M4Z1yBfNkYaIJ321ZN1IeE/X3eOuefp8oVLB/82neWLfOm4O3qax/bkGF2B/eHcEY9815qiU1j03zMvYtzNB2fcH8ydsx+XBnjCx41fzIY0wDQf/nTA1FluGjrzh+mu5dtPV5ZvH3tjOHfn4DHNzQuksKDoFDnOMRWrdYd82xWTOXbnbPNtW0xG+gYUHUIIIYFB0Sky3NNuvifBYjOHm3dVKzAsc9Nix6VH7rm68y/mNPCfu99I4cKOBD0EyVXIHQnQk+nzn/+8nHjiif3i3QV0k73ppptk06ZNHZwNrsGPfvQjGTZsmKVXseE/V1xzdJd+6qmnsks8kC/+4z/+Qz75yU9aXuit/Lg/8J+Lm0e3+RtuuEFWr17d4ZqzI0GBoYlCeoBm5szdd9+dUaeWiUQiyFEZzUAZzWCZ448/PrN9+3YLA+stVOhsqg7Fjo9jYwqLxWKZ2267zdbH4/G2uBSD4bydJZPJjDrSzPPPP5+ZPHmypYHfhgwZklmwYIGFy7evvm7+tMBvfQiyfAhzeQHpcO2111o6IS/4t+nrlpsOmJ87d27mkEMOsXvApQFMRSfzyiuvWLgguO+++yztnV9wdt5552Xq6+sDi0ehwuq1IkOvadtTlL/bdDEZwBTnifOFATcPUydky3K3LSZzYF4dWfbXrmA90qqYzJ8OMIf/2pPChKJTxPhvxmKgM0fT1Xl2ta6vk5sO+Sjm8wcuDfzn6R5CSGFC0SGEEBIYFB1C+iD5nvAJ6QtQdAghhAQGRYcQQkhgUHT6MP29eoVVS92D1XCkkKDoFBmuy7CbL0boRLsP04kUGhQdQgghgUHRIYQQEhgUHUIIIYFB0SGEEBIYFB1CCCGBQdEhhBASGBQdQgghgUHRIYQQEhgUHUIIIYFB0SGEEBIYFB1CCCGBQdEhhBQdbnw+Z+4T1/yq6P6HokMIISQwKDqEEEICg6JDCCEkMCg6hBBCAoOiQ/o8bBwmpO9A0SkyXG8dkE6nbepwXxUtJsM5wiKRSPYsPbAOuPXFbAC9szDvzhtgPpVKtU1zt8tnCNdTy7efrizfPvaFYd+k8AlphuRjYg9Act1zzz1y1VVXSUNDg2V23PBYftxxx8ns2bOltrbWwjrnv6/BzYVjnnfeefLggw/aMncZsfzb3/62XHDBBdLc3Gy/HcV2qXE+b7zxhnz961+X9evXSzKZzK4RuwYPPfSQTJgwwa5RMQPBvfbaa+W+++5rEx+A/Id8etlll1ka5ApzPvYkj/Q0n/dWPly4cKFcffXVsnLlyg55oaysTP7xj3/IEUccYb9767503H///TJjxgw7jv9czz33XJk5c6ZUVFR0uC/7GxSdHoLkKmTRATU1NZaxcy9tsV1qnA/Sv66uzub9T7pI+4EDB0osFssuKW7q6+ulqampg6NDHkE+qKqq6nYpoKd5ZE/yeG/lQwgN0gFTf7woOoUFRaeHILkKQXSwb4gOnubz4eLkp9guNc4n9zxzzxHp5K5Db12P/Q3O2Z23//z9543l3Tn/3PTbHXuSpj09Rndw+8x3rqWlpfL888/LkUce2e102BsoOl3DNp0+CjIzMi4s300EYUIYTJ3hdzEZcNPOwHp3/nhAKEbrThoAf17ozBC2J5ZvH7uzfPvZW3P45/10J51IMFB0+igQmrFjx+5y0+WCcM76K/40KEbrLvm2zbU9Id9+urKgKS8vt9qH/XFssisUnT4Ibh4Izac//WmZOHFi2zLgRMhvxUx3zjU3TDGbn3zrd2d7Qr79dGVBc/7558v48ePt2BSe/Q/bdHoIkmt/t+mARCJhvZGeffZZuf7662XVqlVtPXb8x/XP81KT/gLyPTpQnH322XLFFVdIdXV1dk3vwzadrqHo9BAkVyGIDsAxcQyITWtrq8UF+DM0RYf0R/BAhvsAvRfRjhSNRrNreh+KTtdQdHoIkqsQRAfHw/5zhcYtB7nH56Um/QV3b0Bwgu42T9Hpmv575n0cJyh4ooPhNwyZ2c3n4pbTaMVuAPdFf3lPqy9B0SGEEBIYFB1CCCGBQdEhhBASGBQdQgghgUHRIYQQEhgUHUIIIYFB0SGEEBIYFB1CCCGBQdEhhBASGBQdQgghgUHRIYQQEhgUHUIIIYFB0SGEEBIYFB1CCCGBQdEhhBASGBQdQgghgUHRIYQQEhgUHUIIIYFB0SGEEBIYFB1CCCGBQdEhhBASGBQdQgghgUHRIYQQEhgUHUIIIYFB0SGEEBIYFB1CCCGBQdEhhBASGBQdQgghgUHRIYQQEhgUHUIIIYFB0SGEEBIYFB1CCCGBQdEhhBASGBSdvSCTyUgoFMr+IoQQsjsoOoQQQgKDokMIISQwKDqEEEICg6JDCCEkMCg6+xh2LCCE5AMdjwhFp8ekUinLPJj6ccuYsQghIJ1O0x/kgaLTQyKRiE3D4V2TDuvyLSeE9B+cD0Cth7/mg77Bg6mwB5SWluatRmtpaZFkMpn9RQjpj+zYscOmuSKD3zCUgGD9FYpOD0FxubKyUkpKStqKzpgiMyGzuQxHCOlfOH/w5ptv2jRXWAYNGmS1IXhg7c+lHorOHjBkyBApLy/P/vJARqqrq5N//etfrMclpB8CH4CHzhdeeKHDAykMYjNmzBhWwSsUnR6CjDVu3DgZOXJkdkk7EJ3nnntO6uvrs0sIIf0BJy7PP/+8LFy4MLu0vUoNpZyDDz64raTTn6Ho9BBkmOHDh8vRRx9tv5GhkNnQcy2RSMjjjz8ur732WrczlsushJC+hevBivsXbbmbNm2Su+66y9p23f2PKjb3oDpp0qS25f35nqfo9BBkFgjN6aefbr/99bbIUCtXrpTvfe97liFzu1XnA9u4jEgI6Tug1ALgA3Cv33333fbQ6R4kYbi3sf6YY44x0XFi05/v+ZAmAh+zewAyFzIMnmzOOOMMefrppy0juScaZESEOeGEE+TGG2+UKVOmSDQazW7dDrZxhu36cyYkpK/gd5fuvt22bZvcc8898u1vf3uXqnWsHzp0qDz00EPygQ98ILu0f0PR6QG5GW7u3LlW4lm3bl1bicfV4UKUUAV30UUXycknnywTJ05sExmA8AhHCOlb4B7G/Y9OA//85z/l17/+tcyePVsaGxuzIdrBQ+iXvvQl+eEPf2g9XglFZ69AG84NN9wg3/nOd6we1yUlxMQ9BaGX24QJE+TYY4+Vww8/XAYPHmzLulP1RggpLPCwCLFZu3at/OMf/5B58+ZZSQcPmbmuFPf/e9/7Xpk1a5Z1JCAeFJ29BI2Hl19+uTzyyCNtQoLM5p+6kg8hpLhwtRWupgO4ZWjD+e1vfytHHXWU/SYeFJ29BMm3ePFiufrqq9saEd1yv+i45ZiHubYhQkjfwN3D7r6F0DixwTL/PX/ggQdaldqpp55q9zu7SrdD0dlHrFmzRn7yk5/Ivffea42JyIz+zJkL1jETEtJ38YuQe5DEFCWb73//+/LBD37Qfrv1xIOis49A9Vk8HrfSzje+8Q1Zvnx5W6bsDIoOIcUB7vWKigq57LLL5Jvf/KZUVVXZ/c0Szq5QdPYReMpBiQaZDKWe22+/XZ588klZv369bN++XVpbW7Mh22FmJKTvglchqqurrZPAEUccIZdeeqm8733vMx8AXCmHdISi00ug5IMeLhj8Dz1c8NIoOh2gNJSvuo0Q0jeA2AwYMEBGjRolhxxyiNm0adMkFou1rSedQ9HpJSAsTlwwhQihHz/m8QSEZGe3aUL6Dq7UgineuUF1GgQG9zSWsSqte1B0egEkqct8LkMCTLHOn+TMpIT0Ddx9i4dG3Nf++xz473PSORQdQgghgcF+fIQQQgKDokMIISQwKDqEEEICg6JDCCEkMCg6hBBCAoOiQwghJDAoOoQQQgKDokMIISQwKDqEEEICg6JDCCEkMCg6hBBCAoOiQwghJDAoOoQQQgKDokMIISQwKDqEEEICg6JDCCEkMCg6hBBCAoOiQwghJDAoOoQQQgKDokMIISQgRP4/H7C4PJ1NcBgAAAAASUVORK5CYII=;" vertex="1" parent="1">
          <mxGeometry x="146.75" y="290" width="36.5" height="36.6" as="geometry" />
        </mxCell>
        <mxCell id="1SWu9gg4s54Sxi2x8I6W-7" value="" style="shape=image;verticalLabelPosition=bottom;labelBackgroundColor=default;verticalAlign=top;aspect=fixed;imageAspect=0;image=data:image/png,iVBORw0KGgoAAAANSUhEUgAAAeAAAAGWCAYAAACgr1BJAAAAAXNSR0IArs4c6QAAAARnQU1BAACxjwv8YQUAAAAJcEhZcwAADsMAAA7DAcdvqGQAAEYzSURBVHhe7d0HYJTl/Qfwb5LLXiSEvfeWoagsRXFWREUtFnChUq1V22ppta462qr/uhXRoq24J46iKG5UFFmySYCE7J3LHnfJ//09ea8k4S53Cbn3vfH92Le598m9TwZw33ve93l/T4i1orIJ7Wi0NeiP2tetWzf9kXtlZWX6o/axT8+wT/fYp3uNTY0oKi5Gvb0BdQ31qNW24morUvMzsD07FWmFmci3FqG8tgohIcDaPz6HQd376ke7xj8j99inZ/y9z1BLuP6oWaj+kYiCiISthGxpVTkyS/KwIysVX+7+EW9sWou/rfkXbnz9H7j837fj6v/chfvWPIvVWz/HDi2ECytLUWerR1O7b9uJyBMMYKIA16T9V9tQh6KKUqTlH8L3aVvx1sZP8cS6l3HbW49i6fN3YcnK23H9qvvwz09exJod32Bnzn4UaWEro+Empi2RVzCAiQKIhKWEZnFVGfblZ+DLfRvxry/fwj2rl+MPrz6I6168Bze89Dfc+c4TeGrdq/jo52+wO/cACspLUFNfp8KaiIzBACbyY/W2BhRqI9s9uQfx8c5v8fgXr+DWdx7D719/EDe/+RDu/mA5/vnxf/DqhjX4eu9PSM3LUCNhGREzbInMxQAm8gMysq3TwjbfWoyfM/fh7Y2fqGuzV/3nLly96m7c+Nrf8bePnsPLP/wXn+/5ET9npyKzNB9l1RUMWyIfxQAm8kEyss0pK8CPB7bjP+tX46aX/47zHr0e5z32W1z27K24892n8N7WL7AjJw0ZxTkoqCxFeU2VOo5hS+QfGMBEJpNrtlnaaPW7/VvVdVmZFDXnwSU466GluFwL2/s/eBZrtn2NvbnpyLMWaaPaclTVVaPBbmPYEvkxt/cBJ8TF6o/a5+m9VMLT+6nYp2fYp3u+0me9rR65ZUXYm5eOLRm7sD1zn/Y4A6VVVtga7eo5/iAiLBxvX/cwBiT11ltc45+7e+zTM/7eZ3lllf6oGUfARF1ERqMSonIaWIpYyPXXvfnpeH/bl7j73afwy6f+gBn3LcacB5Zg6Qt3Yfnnr2N96hYUVpT4VfgSUddgABN1QqPc7qMFbXV9DUqry5FrLcL2rDS8vXld8+SoF+/Chc/8HotX3oq7Pnga/16/Wl3PLawoZdgSkcIAJnLD3tioZhJL0OaUFWJfXjrW79uE1zZ+hLs/eAbXvHg3Fq78E5b85w78/aN/qRHvzpw0FFdZm6/TspAFETnBACZqwa6NTqvra9Vp4f0Fh9So9b9aoD657lUse/2fuPy5W3HJ07fgqpV34JHPXsInu75TNZKlpCNHtkTUEQxgClpSD7lGG9kWaGG7Nz8DX6X+hNd/WosH1zyPm199CNc8fxd+/e+71eMn172MT3d8pwpZlHBkS0RdgAFMQUEmSEnY5pUXq3tn12z/Bk9/8Tr++sFy/PGth1XVqLvefxqPrFul7ruVqlEHCrPUyFbCloioqzGAKeBI2MppZLm3dnPGLrz8/Ye4/7/P4abX/oEbXvs7bnnrn/jHxyvxnw3vq/KN27L2qufKrGWObInIKAxg8msSljV62P5wYDue//od/OY/9+LCx2/CJU/drE4j/+2DZ7F62xfYmL5TrW0rxSxkTVuObInITAxg8htqZFtXg/TiHHyTugnPrX9bTYY66/9+jXmPXK89vh0PrlmJT3Z8pxYnkFAurixDlXaMTUa22n9ERL7CbSWsRluD/qh9nlYTEZ5WFGGfngnUPtVp5JI8ddvPjuw0bD20BwcLslBRo41eG23qXtympkYVqzxtbKxISwQ+WfYcBnXvq7e4xr/z7rFPz/h7n6GWcP1RM46AyRQSmDILWe6xlVPBFbVVqjzje9s+xx3vPI4LHr8R0+5diDMfuga/XXU/nvn8dWxI24b88mJUN9SqY+SWoeYQZvgSkf9hAJPXSUhKYNba6lFZV61u+9mauRevb1yLuz54Cpe98Bec++QN+NW//oS73l+OVd9+gC0Zu2GtruBJYyIKWAxg6lIyopVJUdaaChSUl+BgYRa+S92CFdoI9rZ3H8Olz9+mSjReveouPLD2eXz489fYnXsAZdrzZURMRBQseA24HeyzfRK2UbHRKnArtJGtLJOXW1qIndlp2JGVikMleSipLNNGvTXqdDEFDl4D9gz7dC+Y+mx7DZgB3A72eZga2TbUqhnFMlqVUo2yAEF2RRHS8jKQWZqH0korqrQwZtgGPgawZ9ine8HUJwOYfbolYZtbkIfy2koUaSPYrLJ8ZGqj2cxS7aMWtEUVpeo+WgljnjYOTgxgz7BP94KpTwYw+2xFwlaW1CvRRq95VlnpJ0Nt6QVZWviWoqS6XAWtlHHkyJYcGMCeYZ/uBVOfDOAg7jMhMUGFqRSnyCjOxc6sNOzKSUN2aYG6fiufk00Wk5eRLW/vIVcYwJ5hn+4FU58M4CDp0zGyLdTCNrMkF7ty92NPQYYqbFFRW416Wz3qtKCtt0tBC4YtdQwD2DPs071g6pMBHIB9lpSWqJFrTlmBWptWClrIij/Z2r6EsM1uV2vVStCycAV1BQawZ9ine8HUZ4cDOCEuVn/UPk9/COHpD8I+jyQBKlWjDmmj2n356diZcwD7CjPUJKnKmmrtT7Q5YOUPlUFL3hIRFo63r3sYA5J66y2u8d+7e+zTM/7eZ3lllf6oGQtx+BgZpcpotcHWgDpbPYqryrD50G68uOEDVchiwbO34JwnrsflL/wF9/73WbyzZZ2651aqRtmb7OrUM0e5RES+jyPgdnizTwlICUpbo00LWxvq7Q1qkYH0ohy1hu22jN3IKMpFQWWJWgGIcUq+hCNgz7BP94Kpz7YjYAZwO7qyT6mFLCEbFRON2oY6LWyrtbDNVmG7PXPf/5bOk9t9OHolX8cA9gz7dC+Y+mQAG9CnrD0rCw9U1degXBvVllZZkWMtxK6cA0gvzUFuWaEWtlZVwrH5ai2Rf2EAe4Z9uhdMfTKAu7hPGdnmFOSpVX6kcEWetVjNPj5YlKUWjpdKUrIwAUe2FEgYwJ5hn+4FU58M4KPos97WoG73Ka0uR3ZpPtILc1TQHsjPRL61SFWNkhFvna1OXd8lClQMYM+wT/eCqU8GsId9ysjWEhWhV43Kwe7s/UgryFTlGtWotrpCLTwg13MbG1kPmYILA9gz7NO9YOqTAeykTwlbuV4rYXtQC1spz7g79yCKq8u0EW+tulYrW502ApZrtjyVTMGOAewZ9uleMPUZ9AFcXFKsRq95FcU4UJiNHTmp2JN3EHnlxaoGcoO9QQWyLDwg99QS0ZEYwJ5hn+4FU58dDmB/LkUpQVpeU6mqRqUWHMKu3APYV5ChZiHLqWN7U6MK2Sa9RCMReSY8zIKHF/4JvRNT/ndGKCQkpNXZIcd+ZWWl3tK++Ph4j88utddny+8jLi5OfXRFnitafp8tj3f2M8XGHh6UtP18W1VVVe1+3kG+z/b6avk5d79Px3Pd/ewO8vyKigp9r/XXavs9dfTPqO3xznjyfTr6cfWzS2nUmMgoJETFIj4yFj26p6hjPGFUHomArAUtfzDFJSVqofiDRc2jWgnb1PwM5GhhK/ffEhFRYLOEhiE5NhHj+g/HzBHHYs64EzAguQ/CQl0XfWQAu+DoUwJWRqjNp4Xt/xvZyqID2w7twY6sNOzTHhdWlKBW+349e99DRESBLCo8EpMHjcbVJ1+EE4Ydg5iIKISGtA5jBnALErYqZLUtOjamuWpUbZUK2J8O7sTunP3IKi1QYVvf0DwpioiIyJUwLXQnDxqD2+Ytxeg+Q1UQOwRtAEvYysIDErJSqEJmGpdrYbu/MBM/Z+1DWlEmCrSgLa20qhnIREREnRWtBe8VM8/HkpMuQEpckrpOHLQBLLOOP9rxDX5M36FXjSpVM5Rl9CvhTERE1JXkOvHxQyfgnvk3YEiP/qgoL9c/0z5vBLCpyxHKYvGv/LhGC+H12J17AIUVpai32xi+RETkFXLW9ccDO/DH1/8Pe7TckSVgzWL6esDMWiIiMpIsA7s9KxX3vvcMMkpyTRv0cUF+IiIKOrJq3ZaM3Vjx1ZsoqbLqrcZiABMRUVCqs9Xjq30/4ZNd36vHRmMAExFR0JI7cF764UNkluQbfira7Sxob9aClsUPFi5fhr15B9U+ERGR0UJDQnD5zPNxy9lXIjYyWm9trTMZ11bbWtAcARMRUVCTSovvb/kCedYiQ0fBDGAiIgp6JZVWfLx9vZohbRQGMBERBT0pa7xm29eoazCu6iIDmIiISHOwMEvNTTIKJ2ERUYeFaP91i4lX6wK3R15cuDpZYPHlP1O1Ul5tpVrnvbMeX3wbzp00+4j1hL0xCYsBTEQdJuurPrroVvSMT9ZbiMyXXVqAO999ApW11XpLx1136iVYds4S9SazJQYwEfkEGfl+umwlBqf01VuIzJeal44FT99yVJWt5k46WY2CO7tusPA0gHkNmIiISFde0zokvYkBTEREpJMa0UYxdT1gOU2wdNU9SCs8pPaJyD/wFDT5oq44BT118DisWHznEaegO5NxbfnUesBERETBigFMRERkAgYwERGRCRjAREREJmAAExERmYABTEREZAIGMBERkQkYwERERCZgABMREZmAAUxERGQCroZERB3GUpTki7qiFOW04RPx8rUPcjUkIiKiQMUAJiIiMgEDmIiIyAQMYCIiIhMwgImIiEzAACYiIjIBA5iIiMgEDGAiIiITMICJiIhM4LYSVqOtQX/UPleVP5xxVBSRaiVLV92DtMJDap+I/ENYaBievPQv6J2YorccqUn7L0T7r6M6e5w3hIWGYmTvwYgKj9RbPFfbUIf0omzU1Ndqe77x8zgY+2fThCE9+qNbTIK+7z1dUQlr6uBxWLH4ziMqYXUm49oKtYTrj5oxgImoUyxaCIeEdC5Y5EWnI0e2fX5XH+9qPz46FqtvfAIDu/dR7R2RVZKHpS/cjdT8DL0lsLn6M2lsasJTl92BM8ZP10LN2TO6jr8FME9BE1Gn2BrtaLDbOrXZnLS1t7V9flcf72pfPjZpAdIZcpStsXW/gby1/R3+b9MGcU1NjfpvhFpiABMREZmAAUxERGQCBjAREZEJGMBEREQmYAATERGZgAFMRERkAgYwERGRCRjAREREJnAbwFL9w5NNKn94ujmOSUxMRFhYmP6ViIiIzGWxWFplm2NzlmWuNmfHy9YWR8BEREQmYAATERGZgAFMRERkAgYwERGRCRjAREREJmAAExERmYABTEREZAIGMBERkQkYwERERCZwG8DOqnw425xV/XC1OY6xWq2w2+36VyIiIjKXzWZrlW2OzVmWudqcHS9bWxwBExERmYABTEREZAIGMBERkQkYwERERCZgABMREZmAAUxERGQCBjAREZEJGMBEREQmYAATERGZgAFMRERkArcB7KzMlrPNWdktV5vjmMTERISFhelfiYiIyFwWi6VVtjk2Z1nmanN2vGxtcQRMRERkAgYwERGRCRjAREREJgixVlQ26Y+dSoiL1R+1T857e8pxLry4sgwLly/D3ryDap+I/Ed0RBTCQt28h5dXl5Dmh/4oLioGb17/CAYk99ZbPJddWoDfvHgP9udnHv4deOP3YfTvuINfr7GxCY8tvhVzxp6I0BDvfqOpeelY8PQtKKmy6i0dN234RLx87YPa99r673ZnMq6t8soq/VEzBjARdZi8OC07ZwmSYxKbG7TX1aamJoS0eYE9ok1/8Xb2XOFRH7pOPdeD8Gj53IjwcBUc8VGevQ62VFFbhe/TtqKsquKIr+nye5cntv3+tO+jSfvPo5/V8WruYR9OtejD5ffZsk2e7+K5olFrnzliMvol9fLs6x8FBrAHGMBE/i08zIJPl63E4JS+eguR+fwtgHkNmIiIyAQMYCIiIhMwgImIiEzg9hpwo61Bf9Q+V+e8nXGcS5fz9EtX3YO0wkNqn4j8A68Bky/qimvAUwePw4rFdx5xDbgzGddWqCVcf9SMI2AiIiITMICJiIhMwAAmvyT3S8o9hXJjvxSDsISGqdOiEZZwRFoiEBUeqQpFxGhbbGQ0EqLj0DshBUN79Mf4fsMxY+RknDflVCw5aT5+d+Zl+OsF1+PRhX/GGeNnwMIFQojIALwGTD5HglS2UC1Yw0JCtaAN1R5rQat9DNOCVkJWgjU6PEpVKkqJ74Ye8clIiklAQkwckmMTVeBK8MZFxqiPEshyXITWr0XbnBUEyCrJx+XP3YoDBZn/q0VAzvEaMPkif7sGzAAmnyJ/6c+ddDKmDZ+EJC1Ik2ITVIhGRcioNkrbIppHumHhKkjdlkL0UL329/zJda/gua/eQk19rd5KrjCAyRdxEhbRUUiJT8LNZ1+JBSecjTMnzMDxQydgbL9hGNpjAPp266FGt1IWMFIL4q4KX5FelI2Pfv6G4UtEhmEABwE52Sph1fYdna+R08JnjZ+BlLhuXq8Z25KE7urNnyGzJFdvISLyPp6C9jMSTOGhFlUkXk7DOiYdyX6kth8fHYduMfFqlCjXPuVxQlQcIiMisDl9N9756VM0NjXqvfmW7lrwPn/1fZjQf6SaXGWUHVmpuPGlv+FAYZbeQu7IG7r7L/yduv4eyGRy3/gBI9Wbwo6qqqtRf7fKa6vUm+BgJQFzjPY77JmQrCZPehOvAXuAAdxMXsQi1Izd5uuaEqTRMllI25frnslxiUiOTdCCNEa9AEhAxWnBKqErk4oitY9qYpHsa8fKNVGZwSsBHaZ9lAlL0q98lEBLy8/AvEdvQHV9jf4d+JZzJ83GPRfeiCTtTYNRKmur8finL+GFb95Fg92mt5I78jIqfxcloAJZVEQknr7sDkweNEZv8VxOWQFuWHU/DhQE9xs7WQ3pnwuX4dQxJ3j9jTUD2APBHsDyB3vr3GtwwrBj9BFsuHohk6Bs3mTWb/OMX3nsmP3rCFJtGNyp95E2ux3X/ftufLprg97iOxK1kfsji/6M2aOmqp/dCLJ82nZthLL0hbuQZy3SW4kOk9n2L1x9v/q32lGZJXm4auXt2JeXobcEp8bGRqy48m41p8Pbl8ECbhKWfFFPNvmCnm6OYxITE9VILdjIupyyTujYvkMxqs8QDOnRHwO690HfpJ7oldhdTUSSyUYSSjISlvtZJagljOUUdGffQ8roePGM8/Q93zJp4GhM6DfCsPAVcorwzR/XoqC8RG8homBnsVhaZZtjc5ZlrjZnx8vWlnGvdvQ/MvLaeHAHdmSlefmKyJGkAMXglH76nm+IiYjG2RNPQncDryfKn8Ghklz8d9uXPntNnIgCGwPYJHId9ol1L8PeaNdbjCGnuhdOO0ff8w2jeg/GzBGTvX56qiWZ+fzcl2+ipKpcbyEiMhYD2CT2xkZsPbQH2zNT9RbjXHjc6Wp2tC+QyWRzxp2IPt166i3eJ6Pf/QWZ+GTHd3oLEZHxGMAmstZUYuXXbxte/CExOl7NSDSbnH7vl9QTZx8zU13fNkptQx0e++QldQ2YiMgsDGAT2ew2/JS+E3tyD6pRmVEk7BZPP1fN8DST3II1c+SxGNDd2HKGWzL2YH3qJn2PiMgcDGCTFVWUqpm41QaOgmUm9fBegzCmz1C9xRxS5/mXx5+pFkgwSm19HZ5e94o2Cq7XW4iIzMEANpkUf/hm3ybszU03dBQcHRGJS078hSrUYQYpGjJ1yHgM6zlQbzHGV3t/wo8Ht+t7RETmYQD7ACkC8eHWLw0dBUsAyopD/ZJ66S3Gio2IwhUzz1dVwIxSUVOFpz57BfWseEVEPoAB7ANkFPzZru+xv+CQKtJhBJkAlRyXgNPGTWuurmUgOQV+zIBRapUjI328fT125RzQ94iIzOU2gJ1V+XC2Oav64WpzHGO1WmG3G3sfrK/KLivApzu+R019nd7ifbK+rsxAlnV3jST3Il8+a56q8GWU0iorVnz5hpr4RkTkis1ma5Vtjs1ZlrnanB0vW1scAfsIqdP87qbPkFOar7d4n4x8pSrWlE4Umj8aMgFs2vDJ+p73yTmF97d8gawS4363RETuMIB9SHZZPtZs+0bdp2qUbjEJOHPCTENHo0tmzUdsRLS+532F5SV4cf17qOPMZyLyIQxgHyKzoF//8WMUVpTqLd4n9wRPGTwWw3sO0Fu8SxXemDhT3/M+WQrt9R8+Qo610LDr60REnmAA+xhZQ3T1ps9Q7+EykF2hX7eemD5istdvSZLJV1IAxMjRb2ZJLt7b8rmh19aJiDzBAPYxahSsjdhKqpyvJ+kNkeEROG3siegRn6y3eEePuCRcPPVMFcRGqLPV4/UNH/HaLxH5JAawD5IZ0W//tM7Qwhwj+wzBuH7DvLYikUTuuZNnq+pXRjlYkKUWXDDymjoRkacYwD5IgvfVDf9FqYFL5SVExeKsCbMQHxWjt3StbrGJahlEoxbcl6Imqzd/jsySPL2FiMi3MIB9VHZJgToVbRQ5LSyL9ffp1kMbrXb9KeLZo45TSw56o++2ZLKVFDX5ePs36jQ0EZEvYgD7KAmRF797H8WVxl0L7hGfpJYpjAgP11u6RkJ0HJacNN+wspNVtTV4f/MXyCot0FuIiHwPA9iH5ZUV4e2fPtX3vC8sNAwXHHsaEiLj9JaucezgsRjQvY/Xri+3JKfvDxZlq8IbrHpFRL7M7SuiszJbzjZnZbdcbY5jEhMTERYWpn8laktGwS988y6KDZwRPTilL44ZMKLLFsiPiYjGFTMvQHxUrN7iXZV11Xj5+w8NvZeaiAKHxWJplW2OzVmWudqcHS9bWxwB+zhZL/i9TZ/re94XbgnHZTPPQ0RY15yGljAf3WdIlwV6e2T0m16Yg4+2fY3Gpka9lYjINzGAfZyslLTy67dhra7QW7zvhGHHoGdCd32v8yK0MD9vymlIiU/SW7xLim2s+OI1WGsq9RYiIt/FAPYDJZVWdUuNlFU0QqQlQlWsOtoZyyN7DcaJwyYYM/rVtj25B/D5rh+bG4iIfBwD2A/UNtTjJTUj2pjrmnJL0txJJx/VrGUZ/cpaw0Yt+F+v/Y6eWPcKqhtq9RYiIt/GAPYDMhkrt6wIH/+8HvZGY9ZP7t2tB86eeJK+13H9teA9Y/x0FcRG+OHAdqzft0nfIyLyfQxgP1FVX6NuSSqoKNFbvEtOPi+ePheRYR0fBcsErmnDJ2FIj/56i3dV19XgiU9fUtfLiYj8BQPYT8gM3wOFWfhi90bDRsHH9B+J8f1H6HueS45LxAXHzkF0RKTe4l2f7f4BmzN26XtERP6BAexHKmqr8OGWL1BQbswo2BJmwSUnntWhAhqWsDBMGjgKY/oO01u8q6y6HM9+/qb2poS3HRGRf2EA+xEZBe/ITsP3aVthM2gUfOqYE9G3W099z724yBgttOciJjJKb/EuuS6+N/+gvkdE5D/cBrCzKh/ONmdVP1xtjmOsVivsdmOCJFDIKHj15s8MqxGdEBOnJlN5QkbKw3oMwLGDxxiy6IL8Dp776i1e+yWiLmOz2Vplm2NzlmWuNmfHy9YWR8B+RkbBmzN2Y4u2GXEt2BIahl+ecJZHpSQjLeG4YtYFiPPSkoYtyczwdzetQ3ZpgfqdEBH5GwawH6qsrcZrG9agtMr71bHknmA5BX3s4HF6i2t9k3pi9piphox+c0oLseq7D7jYvomk3Gegb0fz5k4OleOd9RtMm7xZJudCrBWV7f52Gm0N+qP2ybDbU46heEmVFUtX3YO0wkNqnzwnM4yfvfKvmDF8stcXuZeR9rpdG3DDi/eh3sXpXgnqu877DS6feZ567E0y4erRtS+q088MYHNIdbN7LrgBPROS9ZbAJCuETRo4Ws3s76ia+lpsPbRHvWEOZvImRH6HPRKTvf7mPDUvHQuevkVlS2dN1QYbKxbfecTk085kXFuhbeoiMID92EmjjsWTl96u1tv1tpzSAly98g7syj2gt7TWPa4bPl32LyTHdvyFqqP2F2Ti2hfuRmoB/96YJTzMov15r1SrZxH5Cn8LYJ6C9mMbD+7AnpyDMKJGdJIWrGdNnKVGBM6cNWGGIeFb11CPtzd+gkOleXoLEZF/YgD7MVn958nPXtFCyfunYaMiIjBr5LFqpNuWvFOcO2m2vuc9ci1pf2Em1u74VgUxEZE/YwD7ORkFb89K1fe8R67dDEjug4kDRh1xHadvUg9MHDha3/Oe6rpafLDlC2SWcPRLRP6PAeznZKLHM1+8Dluj9++FTYyJw4yRkxHZZpWkk0dNRXSEdwtvyEQOufb7361fo97DeQlERL6MARwAvkvdqu4L9jaZeCMj4B4tFtiX2bDnTDzZy3Mbgcq6anXfb05Zgd5CROTfGMABQG7FeXrda4bUQx7UvS+G9xqk7wF9EntiXL/h+p53yCSzjKIcfLj1K8NKcBIReZvbAJap155sMu3a081xTGJiIsLCnM+qpY5Zn7oZWw95fxQstzxNHDgKkZbm09BTh473+qpHstzgC9+8i+LKUr2FiMg7LBZLq2xzbM6yzNXm7HjZ2uIIOEBIPeSnP3tNVZ7xJlntaMqgMUjUglgmY/3imFmqzVvk2q8sw/jJju8Mud2KiMgoDOAAsmH/NvycuU/f855hPQegR0ISkmITcIw2Gu7IcoUdVWerx1OfvaoWoSAiCiQM4AAi14KXa6PgBrt3ZwmnxCVhUHJfde03xsuzn7drbyi+3P2jvkdEFDgYwAFEJmHJfcE7s/frLd4RYQnHlCFjceaEGf+7FuwNclr9sU9eUqNgIqJAwwAOMOW1VVj51dvq/mBvkcUWZBGIOWNPVLcmecv6vZvUaXXyPXI1XuYbyJu+QN86uyJSMP2O3G2d/R0GOreLMSTEuV8HVsjML085ZoPJguoLly/D3ryDap+6Rp/EFDx52R2YMnis1+7PdfyD8tbKR3Lf76XP/BlbDJjZTR0n1/3/dM5VSFH3hMvfBfl74Pgo2msTnj73cJv8nZO/b46Pzdo7tiVPPy8fRfPj8FALThw+qVOrPskqSPIG0lpdoX85R/9tv46Do0042p21idbf55F9tmxzHOesTRxul3/Wzb9bZ89tr024eK72vxOHT1TLlfrDakjTtO/15WsfPGJuS2cyrq3yytZzWRjAASgiLBwXHDsHd57/G8RGRuut/mX1pnW4+dWHYPfyrG7qPPVi6t3XU9PFhEfhhWvux/FDJ+gtnpOSqbKC2L68jID/PbWnsbEJK664C2dMmO7VCZvC3wKYp6ADUL29Ad9r77z35frnGxv5x7PiyzcZvj5OFseQ0WhAb/rP2Fl6D0f2G1QbF+V3hQEcoHLLivD+1i9RVVejt/gH+Qe7ZtvXOFCQpbcQEQUmtwEsw25PNhlye7o5jrFarbDbWVrQG+RWpM92bVALGPiTwooSrPz6HTWKJyIyms1ma5Vtjs1ZlrnanB0vW1scAQcwWbhg7fb1qPbijOiuJKPft3/6FHllheoxEVEgYwAHMJvdjg+2fuk36+dmluTizR/XqoIiRESBjgEc4CR81/683udDTe4VfH3Dx8guLeB0DSIKCgzgACenct/cuBaF5aU+PRNxf8EhrN3xLateEVHQYAAHgazSfLyzaR3qbTa9xbfI6Pydn9bhUEmu3kJEFPgYwEHAMQouqfT8RnKjyPeWln8IH29fr71B4MxnIgoeDOAgka2NgmWGsVxr9SXV9TV4f8uX6vsjIgomDOAgISPN13/4CCVVvjMKlgX20/IzsWbbV2rlIyKiYMIADiJyLfjtjZ/qe+arqqvGWxvXItdapLcQEQUPBnAQkVHwv9evRnlNpd5irpJKKz7f/SPsjayGRkTBx20AOyuz5WxzVnbL1eY4JjExEWFhYfpXIiMUVZQe1UohXSk+KgaDuvfR94iIzGexWFplm2NzlmWuNmfHy9YWR8BB5swJMzAg2TdCLzEmHktOmq+CmIgo2DCAg0h0eCT+cNblCAv1jT/2sNAwTB40BtOGT9JbiIiCBwM4SMh64BdNPRODUvo1N/iI5NhEXHLC2UiKTdBbiIiCAwM4SHSP64alsy+CRRt1+pKQkBBMGTwOs0Yei1AfGZkTERmBr3hBQEL3khN/gZ6J3fUW3yLXghdoo+AecUl6CxFR4GMAB4EB3fuogIuwhOstvkVOj08cMAozRkxBeJiluZGIKMAxgANcpCUCi048Bz3ik7Sgk6jzTXFRMbhs5jz1fRIRBQMGcIAb3WcITh8/HZHhkXqL7xrdZyhOHj3VZ0fqRERdiQEcwGIjo/HLE85Cn249fHjse1hUeASuOulCJMVwRjQRBT63AeysyoezzVnVD1eb4xir1Qq7nWUIvUECd1y/4Thl9PF+NaIcnNIX5x87h9eCicgUNputVbY5NmdZ5mpzdrxsbXEEHKASouNw8fFnopePznx2xaIF72UzzuMomIgCHgM4AMm9teMHjMSpY05Q1ab8TZ9uKbhi5vn6HhFRYGIAB6Bu0fFYeMIvkBx3ZPFvfxAaEopLZ8xDn4QUvYWIKPAwgAOMVJMa33+Emk3srYlXspxhbUOdvucd8dGx+N1Zl2lh7A/Tx4iIOo4BHGASo+Nw7akL1H213tDY1IiPf16PfbnpaNL+86bzp8zBmL5D9T0iosDCAA4gcr33+CETMGXwGL2l69U21GProT1ILTgEe2Oj3uodkeERuH7OQlVMhIgo0DCAA4isq/vb0xchOjxKb+l6JZVW7Mk9iO1ZqajTwtjbThp1nFffUBARmYUBHCDkSunZE2ZhTB/vnbKVE86HinOQVZqP3dn7UePl68AiJiIK155yCRftJ6KAwwAOEHLf7zWzL4YlzHu3HdnsNuzITkNZdTkytCCuqqvRP+M9Mqls0qDRmDaMi/YTUWBhAAeIRdPOxeAe3l1sv6KmCpvSd6LB1oCSKqsaDTd6+TqwiIuMwdWzL1KL9xMRBQq3AeyszJazzVnZLVeb45jExESEeXHEFix6J6ZgyckXeP2WnTxrEXZl71enouu1EP5s5wbU2RuaP+lFYdooWBaVOHXsCfDlFZ2CjZQLlTKngb7JWZjOkL+r4WFaH7I56Td4tgh1b7+/sFgsrbLNsTnLMlebs+NlayvEWlHZ7r0kCXGx+qP2yRf1lOMbKa4sw8Lly7A376Dap46TOLrt3KXaCPFir0aTrdGO9zd/jj+/+YgKXzGs5wC89dtHkRTr/bKRjU1N2Jy+C79ddZ96I0DmsoSG4Y3rH0bfpJ4qaOSWNMdH4Xij5Ghv+dhdm5B9B3fHO7Q93tlzXbW5eixV5RKiYxHVidXE5JJNeW2V+vfi6NfBk+/BoSuf6+7zLR+3/Cg8ea7ztiZ0i0lQdzV4W2peOhY8fYs6Q9dZ04ZPxMvXPnjEm4bOZFxb5ZVV+qNmDGA/N7zXQLythWBiTLze4h3W6grc+c4TeG/LF3qL1G0Ow8u/fhBTh04wpGCGXHN+aM3zePHb99X9yGQeGf1+umylWjyDyFf4WwD7z3kBOoL8Bbl+zq8QF+XZm6TOkney+eXF2LB/u97SzGa3Y+VXb6trwkaQ5RWlOEf/5F56CxGR/2IA+7Hx/Ydj9ujj1TVSb5L7fd/b/DkKtBBu6+t9m3CoOFff8z6pjHXauGlcrpCI/B4D2E/J/bE3nnGpqpnsTTL6lUsFqzd9ph63JTWhn//mHcNOCct1pAXHn4WByb31K05ERP6JAeyHZGLI8UMnYOKA0WoyjDfZ7Y34YOuXyLUW6i1HWvPzN8grM25i1NCeA3D6+BlaGHd8YgwRka9gAPshWaxeFq1PjvXuxCthranAmz+uVbOQXZEJWq/98BGa2nlOV5LTz7868Rfq9it5M0JE5I8YwH5GrvfOGDEFEweOVosveNsnO75DelG2vufaWxvXoqiiVN/zvv7JvXHJCWdzoQYi8lsMYD/TIz4ZFx9/BpIMGP3Kykervn3fo1WP5N5cCWtjxsDNb0QuPO509E/qpd9rSETkX9wGsNz75Mkm9z15ujmOsVqtsNvt+lcid+R670xt9Dt54BhDKst8uedH7MtL1/faJ6eoV333PipqKvUW70uJT8I1J1/k1frXRBRcbDZbq2xzbM6yzNXm7HjZ2uII2I/0SkzBwunneG2x/Zakis/Tn72qKmB5Sm5H+i5tq77nfXL99+yJszCy1yC9hYjIfzCA/YRMPJo18liM7TvckIlH3+/fhp3ZafqeZ+SU9Qtfv4vqeu+vkuQgq0DJGsicjEVE/oYB7CfkdOuVs85HlAH1VGWFo2e/eNOja78tyb3A+/LTsfXQXr3FGKeNPVGdlici8idua0E3elhmUM57e8pxLlzqdS5ddQ/SCg+pfXJOVhS5bPo83DZvqSHXfn/O3IdLlt+C6k6s9yvXqc+cMBOPLPyT+r6NsiFtGy599s9osNv0FvImmYH/yMI/o09iit7SmryoOM5JHC7Kf5ijqIurCXRyS5uzsxrO+hKu2oWrr+XuexDyPQxI7o1eid31Fs/V2eqRmpeB6vpatd+Zr+9MZ36eo/kdOMgzHc+S4zztS9pH9BqIbrGJbT7T9bqiFvTUweOwYvGdR7zWdibj2gpt85rIAPYDcr/r2zc8in5J3q+BLAF286sP4r/bvtZGwJ2bINcvqSeeueJuTOg/Qm/xPrlWfd2//4p1O7/XXwbI24y679tMUnnt1rnX4MpZF+gtnsssycNVK2/H3lzPJjIGKvl7suLKu7U35jO8PoDwtwDmKWgfJ9d+5dSzLPtmhIOF2fg+dWunw1cUVZSp2tGOZQuNILcl3XD6YiRExekt5G0yOgz4rQvGbE77DaKNXGMA+zgZTc4/7owueSFwRwLz5e8/QHnt0d1KJKfe1u/bhCxtBGAU+f3Iaa5Tx53If/RE5BcYwD5MToH8evYC9IhP0lu8S06ZfbVnoxagRz9ylVuSPt/9g6HXZKU2tNwXnBJnzO+LiOhoMIB92Nh+wzB38sn6nndJUH645Uvkl5foLUenpr4Wa7d/p9YRNkqoNvIdlNIX8ybPVqekiYh8GV+lfJRUd7rhtEWI9/Ji+w45pQVYt2sDauvr9JajI9NzducewOaM3Ud1PbmjZJnGi6aegT7djLlmTkTUWW4DWGZ+ebLJrC9PN8cxiYmJCGMZQadOGHoMZo+equ95lwSknHo+WJilbhnoKlV11Xj3p3Uoq67QW7xPrv8OTumHi7UQ5qL9RNRRFoulVbY5NmdZ5mpzdrxsbXEE7IOiwyNxw+mLEBFuzH20BeUl+Hj7elR1cQUruf1gU/rO5mA38JaVKO33d/YxszC0R3+9hYjI9zCAfdDJ2sh3fP+Rhsx8lupVm9J3YUdWqldCsqKmCq//8LE2GjauPKWMgodoo+BzJ8/mcoVE5LMYwD4mISoWvz1tIWIjovQW7yqtKsf7W75AeW2V3tK15JT2up3foajS+Y3p3hJuCcfcSbMxojcXaiAi38QA9iEycpurjdoG9+hnyL2sMvrdm3sQPxz4WW/xjtLqCrzx48ddcntTRwxM7oN5k09BTES03kJE5DsYwD6kV0J3LJ52rjb6NSYwKmtr8ObGT2A1YJLU6k2foewoysN1RmhoKM7VRsHDeg4w5A0NEVFHMIB9hMzYPX/KHHUfqzGj3yZkl+bh670/6S3elVtWgI9+/kaNuo0kdbQXT5+L2EiOgonItzCAfcSA7n0wV50uNebab11DPV79fs1RFS3vCJne9eqGNajSRt1Gkjczp4+fjpE9B3m9EDwRUUfwFckHyG0z5046GcMMuvYrYVhQXoy1O7419PagtPxD+GrvRn3POEmxiVh6yi8RHRGptxARmY8B7AOGaMF77qRTtIAwZvTb2GhXk6IKKrqm7KSn7E2NeOGb1Wr0bSR5SzNz5GRMHDia14KJyGe4DWBnVT6cbc6qfrjaHMdYrVbY7caVKfRFcm3yvMmnYmD3PnqL98m9ue9uWmfo6NdhW+ZebDy4Q98zTlxULK6fsxARrI5FRO2w2Wytss2xOcsyV5uz42VriyNgE0mhDQneeVNOQUSbhZq96Y2Na5FrLdL3jGWz27RR8LuGrpLkMHXIOJwy5gR9j4jIXAxgE8nod9G0ueiVkKK3eJ+s1fufb1abMvp1+D5tK/bkHtD3jCNvcm48fTGiw4051U9E1B4GsElk9Ns3qacqFGHk0nkfbPkSOWWF+p45ahvq8fJ3H6pboYw2uu8QnDPpJH2PiMg8DGCTyIzc3595KRKi4/QW75PR74rP31DlIc0k9wKv27kB2SX5eotx5FYkKfUZH23MMo9ERK4wgE0gM3FH9x1q+PXIb/b+hPTiLH3PXBW1VXhr41o0NhpbmEP0S+qFi6eeqRbwJyIyCwPYBLJCz+/OvEzd/2uUmvparPjiTdhMCDxn6m0NahEIo2+FEpYwC646aT56JnTXW4iIjMcANsH04ZMwfdhEfc8YcvvPntyDpk6+aklOgxdWlGLdzu8NL08p496U+CQsnjZXhTERkRkYwAaLjYzBTWdcaugLf7U2+l359Tvqoy+prq/Be5s/R0lVud5iHJkRfd6xczAkpa/eQkRkLAawwX5xzCxMGDBC3zPG7pz92JKxG/ZG3yp6IrOg0woO4Yf9Pxs+MpdZ6D3jk7F4+rmICuei/URkPAawgbrHdcPSUy42dFGA2oY6vPbDR7BWV+otvqW8phL/3faV+mi0SC14Tx1zAkb1Hqq3EBEZx20SOCuz5WxzVnbL1eY4JjExEWFhYfpXCnyzRx2H+KhYWGsqVDAaMQN4f0Emfty/HQ12YxfD95Rd+x1sTt+Fndoo3Yyr07279cDCab9AXGSM3kJEwcxisbTKNsfmLMtcbc6Ol60tjoAN9OmuDZj/+I2Y98hvcf5jN2D+EzfhV8v/iBtf+hvuf/9ZPLXuVbz03Qf4ePt6bNj/M7Yd2ovU/AzklBaguLJM3bojs4c9PV2rZhpv/gJ5JpWd9JRMxvpk+7eorjN2qUIh6zCfPHoqxvUfriZnEREZJcRaUdnuq3lCnGcFCyT1PeV4JyChsnD5MuzNO6j2g4lcg2z+n/ZfSIi6J1U+Nj8O1e9RDUFYqHqGapNrlbJikty+JAU8esQnqdm88droLSkuEd1jE1WBCRnNJcbEo7SqHHe+84T2+01v/qI+bFD3Plh+xV0Y23eY3mIcmYX91sZPtDdBK2A14VQ4+S65ZfDPc6/GlbMu0Fs8l1mSh6tW3o59eRl6S3CSM30rrrwbZ06Y4fXLb6naa92Cp285qnXOpw2fiJevffCI77UzGddWeWWV/qgZR8AmkdtwZCQrL/4yOUoWJ5ARqyzVJ/fsVmmjwaq6apTXVKlQKK0uVwsoHCjMwq6c/Wri0ofbvsK/16/Gk5+9gnvfewa/f/UBXP38nWpUffY/r8XCZ5b5zT/+zJJ8fL3nJ/U7MJr8Qztt7DSM7yejYI6DicgYDGA/5Qjw5hB3BHnzZtMCXUJdNnmeP5Dvf/Xmz5BfXqy3GCs5LlHNiO4WE6+3EBF5FwOYfEZaQSZ+OLBdnT6SWdGVtdXqTICcEZA61jI6ljcXEtbqzYd+XFeZNeo4jB8wwtDFMYgoePGVhnyGrBV87+qnceETv8Ovli/DFf/6C37/yj9wz3vP4PFPVuHF9e9hzdavsCHtZ/ycuQ97cg7ggBbah4pzkV1aoCabyYQuCXBrdYUKcCk+UqcHd3Nou47tuKgYXH/qJUiIMm6BDCIKXpyERX4pVBulRoaFIyI8AhHax0hLOKIiItWkGZmElhQbj24xCWqyWlJsApJjE9W+PE/u/5Xnhctj7aO0yWNLaJgW1Db86fV/4tvUrWqkTcGNk7COHidhHdZ2EhYDmIKK3HYkZShlC9eDW15kZV/u0ZbALqwoUSNsBrBrMlmte3yi+h0GMvl7ccNpi3DR1DP0Fs/JGZk/vPIADhZl6y3BSc48/f3i36vb/by9AhkD2AMMYCL/JtfJn7n8LvRKPLyilOOFRF5i5XHbj6L9z4Voj5tUW7PD+86OOfzR8ejwvuNSg6tjhLPPyf+3/B7kRbhnQnKnVs6SYjtZ2ii4ur5O9elw+Os5vtbh71e0/v6df+7wx8M/j5B2aWnuv/XPJ1p+XrT+3OHnOzj7XMuPov3Pad+n9kZ2cEo/JMTEq895U8AFcKOHt4W4+oLOOH4Q+SUtXXUP0goPqX0i8g9yJuHTZSu1F1YuZkG+oysCeOrgcVix+M4jArgzGddWqKX1GSPvnpAnIiIipxjAREREJmAAExERmYABTEREZAIGMBERkQkYwERERCZgABMREZmAAUxERGQCBjAREZEJGMBEREQmYC1oIuowKdO37JwlSI5JbG4IgSq6H+Ku2L5eLNjVc521d+lzHcWKde32oT03Ijwcc8aeqBbq6KiK2ip8n7YVZVUVrb6mcPl15Yltnivfh6r77Or7bMnxau5hH0616MPp12hLnt/Ocxu19pkjJqNfUi/Pvv5R4GIMHmAAE/m/6IgotSiDX9PDwxVZI/rN6x/BgOTeeovnZI3q37x4D/bnZx7+Gm6+Xqd4o88u1NjYhMcW36reyHA1JAYwEZFHEqJj8cHvnsagTiw6wfWAm3E94MPaBrCfv30lIiLyTwxgIiIiEzCAiYiITMAAJiIiMgEDmIiIyAQMYCIiIhMwgImIiEzgNoDl3idPNrnvydPNcYzVaoXdbte/EhERkblsNlurbHNszrLM1ebseNna4giYiIjIBAxgIiIiEzCAiYiITMAAJiIiMgEDmIiIyAQMYCIiIhMwgImIiEzAACYiIjIBA5iIiMgEDGAiIiITuA1gZ2W2nG3Oym652hzHJCYmIiwsTP9KRERE5rJYLK2yzbE5yzJXm7PjZWuLI2AiIiITMICJiIhMwAAmIiIyAQOYiIjIBAxgIiIiEzCAiYiITMAAJiIiMgEDmIiIyAQMYCIiIhO4DWBnVT6cbc6qfrjaHMdYrVbY7Xb9KxEREZnLZrO1yjbH5izLXG3OjpetLY6AiYiITMAAJiIiMgEDmIiIyAQMYCIiIhMwgImoUyyhYQgPs6jNon/s7L67rauP93ST40JCQvSfuGPkKEuo8379YXP3O3e3/7/NEq79DiVqOvd7DGQh1orKJv2xU422Bv1R+2Tml6ccs8FKqqxYuuoepBUeUvtE5B/CtPB98tK/oHdiit5ivibtv5BOvMi3d1xYaChG9h6MqPBIvcVztQ11SC/KRk19rbYXzOHThCE9+qNbTIK+7z2peelY8PQtKls6a+rgcVix+E6EqjcNh3Um49oK1d6MtMQAJqIOk5HNp8tWYnBKX72FyHz+FsA8BU1ERGQCBjAREZEJGMBEREQmcHsNOCEuVn/UPlfnvJ1xnEsvrizDwuXLsDfvoNonIv/Aa8Dki7riGvC04RPx8rUPHnENuDMZ11Z5ZZX+qBlHwERERCZgABMREZmAAUxERGQCBjAREZEJGMBEREQmYAATERGZgAFMRERkAgYwERGRCRjAREREJuBqSETUYayERb6IqyERERGRWwxgIiIiEzCAiYiITMAAJiIiMgEDmIiIyAQMYCIiIhMwgImIiEzAACYiItJZwiz6I+9jABMREeniI2P1R97HSlhE1GFhoaF4dNGt6BmfrLcQmS+7tAB3vvsEKmur9ZaOu2L6ebhpziKEaP+15I1KWG4DOCHOs3cDrr6gM44fpLiyDAuXL8PevINqn4j8g7w4dYuJVyUp/Zm8+LV+mSV/1mC3oby2EvbGRr2l4x5Z+CecP2UOQkJa/83oTMa1VV5ZpT9qxgAmIiLSREdEYc0flmNIj/56y2HeCGBeAyYiItIMTumDlLgkfc/7GMBERESaM8fPRFREpL7nfQxgIiIKekmxCZg7eTYsoWF6i/cxgImIKKiFhoTg7GNmoVdiyhGTr7yJAUxEREGtd2IPXDp9HuIiovUWYzCAiYgoaMVEROGKWedjcEo/Q0e/ggFMRERBSe5jP3n0cTh/yqmINnDylQMDmIiIgo7UfB7bZyhuPOMy9DCpohtLURIRUVAJCw3DmL5DcN+FN2FAXE9VWtWdzmRcW21LUZo6ApaqI/OnzMHJI4/D0JT+ahq4Jcy4KeBERBRcJHwnDhiJhxb8ERP6j/QofL3F1BFwU1MTGhptqK6rRW1DHarqa1R5yr0FGdietQ8ZJXkorCiBtUZqe9rVMURERJ0RqY1Af3n8WfjNnF+hV2J3hIaEelxi0hsjYFMD2JnGpkbY7HYVzNGxMaipr9NCuVQL5FRsydiN1LwM5FoLUVJphY2hTEREbsh9vmP7Dcetc6/GpEFjENvidiMGsAuOPmWkbNeC2a4Fs3ysa6hXI+Nd2fuxLXMvduXsx4H8TJRUl3OkTERESoQWeOO04F1y0nzMHjUVsVExKoxbYgC74GmfEtAFxYXq9PW+gkPYkZ2KXbkHsL8wE8VV2kjZbtOfSUREgUpOKSfGxGFkr0GYOfJYnDFhBob1HNBueUkGsAtH06e6vqwFb2FlKdKLc7A3L10L5TQcKMrWRs+l2uca1JqRjbJpz5X/iMgzcv/kwwv/hN6JKerfmpAiBo7HwlHUoKKiQn10Jz4+vtXx7amsrNQfHanl9xEXF6c+tsfxfEefLY939jPFxnq2RKuoqqry6GeS77Pt12qp5efa+9mF47mufnZnP1PLP6OWn2/7XPkzEi3bXJHvs+3xznTmz6gt+XyUJQIJUbFIjuuGXik9VBh7ggHsgjf6lOvKMlLOKs3H3tyD2HJoD/ZpH4u0NpkIVq+FdoP2M8upbAlmIjpSpPZi98my5zCoe1+9xTUz/72zT8+wT/e6os+gD+C2fcq7qnptNGytrkBuWRFSCzKwLWOPGjEXWItRrYVybb3M0q6HrdHGUCbSMIA9wz7dC6Y+GcAe9llnq0dWfg4KKkqRoZ/CzizJ1fZLUFpTgcq6alTV1jCUKSgxgD3DPt0Lpj4ZwJ3sU0bKcmtURU2Vmm0tp7APacGcWZaPgspS5JUVolRrL9c+X6+FNyOZAhkD2DPs071g6rPDAZwQ59mEA09/COHpD+LrfTpOX8tIWYJZRsf52iYjZpn4JR8doSwTwjjRiwJFRFg43r7uYQxI6q23uBYo/94d2Kdn2OeRyiur9EfNGMDt6EyfaqSshW11fa3aymoqUFplRUZJLnbkpCFTGznLPcylVeXqNDeRP2IAe4Z9uhdMfTKATehTQlmqdkngRsZEqQldMulLCohsztiF3dkHkF9erEJZRtTyfCJfxgD2DPt0L5j6ZAD7SJ+OUJYiISqctVCW1aFS8w9hixbK2w/tU9eZZbQsoaz9UanjiHwBA9gz7NO9YOqTAezDfUooyx+G1MMuLS1VwSwj5X0FGdiRnYZ9+RnYX5SJwvISbTStjZR5TZlMwgD2DPt0L5j6bBvApi5HSK1JNRepUypl06TSUHR4pKo0dNKIY/Gb2Qvw6IJleOfaR/DBb5/EisV34PenXYozxk7D8J4DERMepZbZkuNlk76IiMh3MYD9jARzj/gkHD9kAi6fNg8PXvgHfHzLCnz1lxfxxvX/xD3zb8DFx5+lCpDL8+IiYxAdEanWWW5bhJyIiMzDU9Dt8Oc+ZSZ2eW0l8sqKsL9ArivvwdaM3aoOtizxKNeV5bqzvcmuamITdQRPQXuGfboXTH3yGnAQ91lYXKQqeMlkr/SiHOzK3Y9ULZylDnZFbRWq6mtQXVejwpnVvag9DGDPsE/3gqlPBjD7bEVGyhLKZdUVyC4rULWwM4pzUVhViiJttCy3RlVon69rqGMo0/8wgD3DPt0Lpj47HMAsReleoPUpoZydn9t8CttahEMleSqcs8rykV2ar9ZYlupedTaGcrBiKUrPsE/3gqlP1oJmnx5p26fcr1zdUIvK2hotgMtQVFmKTC2Ys8oLsL8gUwW1jJZlSUeGcuBjAHuGfboXTH0ygNmnRzzpU0I5MjYaVXU1WjBXq3WWZcWonzNTsTtnP3L1BSpq6msZygGGAewZ9uleMPXJAGafHulMn1JIxN5oR70WzDLDWkbDMrkrvSgbm9J3YlvGXlXdS0bQtfWyYhRD2V8xgD3DPt0Lpj7bBjDvA6YuI8U/LGEWxEREISk2AX269cCIXoMwZ+w03HzWlXjkl8vw6tUP4K1fP4wnf3Ubrp+9AKeOPh5DU/ojNiKa9ykTUVBhAJNXSSiHhYYiQnvnJ5W94qNi0a9bT0wfNhFXzZyPhy66Ga8tfRDvXf84nr/8XvzxzCtwwbFzMLL3YBXkKpI5UCaiAMQAJlM0l90MRZi2yS0tKXHdMGnAKCw6/hw8svDPWHvLs/j+zlew+qYn8cCCP2DR9Lk4ZsBIdNeeFxUeoSqCSclO6YOIyB/x1Yt8kgR0YnQ8Jg4chQUnnI37L7wJ7974BD770/Pq48ML/4QlJ12IyQNHo2+3HkiKiVcjZglzGXGzFjYR+ToGMPkNCdZuWtCO6TsU506ajdvOvQbPXXoX3lj6T7xwxX3qdPZVsy7ACUMmYHD3vuiV0F17foI69S0LVTCUiciXMIDJr8kp6LjIaBW4M4ZNwq9nXYwnLrkNL155vwrnB+b/Dtee/EvMm3wKpg4ZjxG9BqpgjouKUaFMRGQWBjAFHBkpy2Svgcl91GhYVo36v0v+iJVX3att9+HxS2/DbXOX4spZ5+OsCTNxzIBR6JfUSx3DUCYio7i9D5i1oN1jn57xtT5lFajq+lpVclMWqMgpK1QlNwuqSnCgMEutJFVWXY4q7TlyfzMdxlrQnmGf7gVTn1yQn0jXPFKOUbdFTeg3AmeOm47Lpp2L28+7Fo8vvg3PLvkrll9xF/5+8e9x1UkXYubIYzE4pR8So+M4Uiaio8YAJmpBbm2Ki4xB78QUjO4zBNOHT8L8407DH866HI8u+jNe+vU/8Mq1D2H55Xfg17MuwqzhUzCoex8V5HJLFRGRp/iKQdQOmTktoRwbGa3uVe6f3Btj+w1T1b2umjUff59/E164/D68cvUDeGbRHbjxlIU4XfvciJ6D0C06Xh1LROQMA5iogySUVXWvsHA1Wk6OTVDXQo8dPBaXTZ+H+8+7AS8uuR9vX/swnr/8Htx69tW4eOqZmNB/hLqNKlQ7loiIrwREXURuiZIRr6PsplTtOqb/SCw47kw8dMkt+OD3T+Pb21/GR394Bg//ahkunTEPkwaOUSPlMN6jTBR0GMBEBpJT2aP6DMH8407HvfNvwLs3Pob1t7+Ej255FssvvxNXzbwAxw+ZgJ7xyWqBCkfZTVb3Igo8DGAiE0moSlEQWXzi7GNm4YZTFuLZxXeqxSleveYBPHLxMlx38gLMlMleyX2QEttNzcJmdS8i/8cAJvJBErBSSGTasIlYMuN8PLpgmRbID6pry7Ks401zFmHupJMwrt9wdWtUz4RkFeSWMIYykb9gABP5gRDtPwnlvt16YsrAMbhk6tl4bNFteOP6h/HytQ9gxZV3445512LRtLmYPfp4tXKUVPeS0bKcwmYoE/ket5WwGm0N+qP2eVpNRHhaUYR9eoZ9uhcsfTY2NaJO+zdrralEcWUZMkvzUFhdhvSibGSXFiDPWgRrdQUq66phs9vR1MnFliMtEfhk2XMY1L2v3uIa/4zcY5+e8fc+Qy3h+qNmHAETBRCZiS0j5d4J3TGu7zCcNW4Grj9tIe698EZVSEQmesnHu87/Da46eT5OGXMChvcagOS4RDV7myNlIuMwgIkCXKgWqrJWslT3kqUcTx49Fb868RzcfPaV6vao5668B/9aci8eX3Qbrjvplzhl1PEY3nOgumdZTl8TkXcwgImCkNzWJCNlqe41pEd/TBk0BqePn47Lp8/DX+ddh+ULb8eqJX/D8kW34+bTL1d1skf2GoSkmAQ9lDt36pqIDmMAE5EioSzXdhOi4tAjPklV92qe8HUW7pp7HVZe9le8sfT/VHWvey+6CcmxifqRRNQZDGAickmuKcuIV05hy3rJEszj+w7HRcedocpwElHnMYCJqENkopZcV+aELaKjwwAmIiIyAQOYiIjIBAxgIiIiwwH/D82VYJiHjoF2AAAAAElFTkSuQmCC;" vertex="1" parent="1">
          <mxGeometry x="146.75" y="340" width="40" height="33.84" as="geometry" />
        </mxCell>
        <mxCell id="1SWu9gg4s54Sxi2x8I6W-8" value="" style="shape=image;verticalLabelPosition=bottom;labelBackgroundColor=default;verticalAlign=top;aspect=fixed;imageAspect=0;image=data:image/png,iVBORw0KGgoAAAANSUhEUgAAAtYAAAD8CAYAAABTuOO/AAAAAXNSR0IArs4c6QAAAARnQU1BAACxjwv8YQUAAAAJcEhZcwAADsMAAA7DAcdvqGQAAGFISURBVHhe7Z0JuBTFuf7L3LjAYTsgILuAqIAIKLhhRNxwuYpGjZF41RgT0WguEjX3xqgJakxQkSxGvDGJJIpB9I+aCKIGlIASEAEVRFZZPAjIvhn13vzPW/R3LMrqWbprZnp63t/zfE9XfVU9S805M29//VXVPlu37/iXKiCNGlQFJUIIIYQQQsqHbTt2BqXc+FJwJIQQQgghhMSAwpoQQgghhBAPUFgTQgghhBDiAQprQgghhBBCPEBhTQghhBBCiAcorAkhhBBCCPEAhTUhhBBCCCEeoLAmhBBCCCHEAxTWhBBCCCGEeIDCmhBCCCGEEA9QWBNCCCGEEOIBCmtCCCGEEEI8QGFNCCGEEEKIByisCSGEEEII8QCFNSGEEEIIIR6gsCaEEEIIIcQDFNaEEEIIIYR4gMKaEEIIIYQQD1BYE0IIIYQQ4gEKa0IIIYQQQjxAYU0IIYQQQogHKKwJIYQQQgjxAIU1IYQQQgghHqCwJoQQQgghxAMU1oQQQgghhHiAwpoQQgghhBAPUFgTQgghhBDiAQprQgghhBBCPEBhTQghhBBCiAcorAkhhBBCCPEAhTUhhBBCCCEeoLAmhBBCCCHEAxTWhBBCCCGEeIDCmhBCCCGEEA9QWBNCCCGEEOIBCmtCCCGEEEI8QGFNCCGEEEKIByisCSGEEEII8QCFNSGEEEIIIR6gsCaEEEIIIcQDFNaEEEIIIYR4gMKaEEIIIYQQD+yzdfuOfwXlgtCoQVVQIiar1m5VO3d/EtTi07y6Sh1YXT+oEUIIISRt7Pr4U7WyZktQi09Vvf1U+1aNgxpxsW3HzqCUGxTWBeKjzbvU+7V//EvXbFE1G3aoVet3qmVrt6t5H+wIevjl3it6qa8P7BbUCCGEEJI23l2+QQ380UuqEMKtV5sGqnOrhqpJ1X7q8IOr1SFtm6gWTasqXnhTWJcIRKBfe+sDNXPBOvX64o2qZpu/aHQuUFgTQggh6aaQwjoTF/ZppY7r3lKdcGSbihPaFNZFBH/gk15bocZNX1V0IW1DYU0IIYSkm1IJa5PWjfZTl5zYXp11QkfVtVPzwJteKKyLwKtvrFT3jZtfsLSOKFBYE0IIIekmCcLaBOkjN13SU/U9orWqf8C+gTdd5CusuSpIHkBQn3vzc+qykTMSJaoJIYQQQooNtBA00YChz6pXajUSobDOCeRPDx05lYKaEEIIIcQC6bD/UauRrhg+WWumSobCOguIUl/8k5fU02+sDTyEEEIIIcRmyqKNWjNVcvSawjoDENW4Aiv1xERCCCGEkHJAotd/nrww8FQWFNYhQFQj9SMpEwQIIYQQQsqFm8fM01qq0qCwdoBZtxDVhBBCCCEkGtBSs9+pCWqVAYW1BbYL/ea9rwY1QgghhBASlet//ZrWVpUChbXFc68uUTVbmVNNCCGEEBIX5FyPfmpuUEs/FNYGuKJ6YMJC5lUTQgghhHjigYlL1UebdwW1dENhbTB11vtcAYQQQgghxDMv12qsSoBbmhtgYXOswVgMTjm8mapusJ86rntLXW9Yb1/VqW0TXXZRCfvxE0IIIcQvuBu/smZLUNub5Wu2qO27P1U7dn2i3lmxWS1bu71gG+Fh+/PnRpyn9tkncJQJ+W5pTmEdgD+8w64aH9T80rrRfuqSE9urow9vqTq2aaLat2octBBCCCGEJAfooYXLNqhpc9eocdNXeb2TP/2+c1SH1uWlgSisIyLrVvvkwj6t1AUndVL9+3QIPIQQQggh5QP00X3j5nuJZD80pK/695O6BLXyIF9hzRzrgDmL1gWl+OB2x4t3na5GDRtAUU0IIYSQsgU6ZtydZ6k7Lu4WeKLz8htrglJ6obAOeGv55qAUjxvPPkT/ATInmhBCCCFpoP4B+6qrL+ilHhvWT8VJkX59cXHmsZUSCuuAKe/F/7Ahqodddoz+AySEEEIISROIXiOdIyrI1161dmtQSyfMsa4FW5gP/NFLsdav/lb/DurH1/QLaoSkH3w5rt+0Uy1ds6VuRjlARCLfyS6ySg6QlXJ6dmmumldXqQOr6+s6SRYff/yx2rJli9q4caNat26dWrlypaqpqdH1TZs2qW3btqmdO3eqTz75RH322Wfq008/VVVVVap58+aqadOmqrq6WjVr1kx1795dderUSdcbNmyo9ttvP7VPuS0bQEiFMXTkVPX0G2uDWn5MuPVk1ad766CWfDh5MQJIzP+PkTMiC2us+jHlgUGqqh4j1SSdYGH/Bcs2qCWrN2sBHfULNSqYCHxEx2rVpV216t65OcV2CYCIXrx4sVq0aJGaN2+eev/999WaNWu0oQ186Utf2ksU/9u//Zs+wgf7v//7Py2y//d//1f961//Ul/+8pd1GccDDzxQdezYUZ1wwgnqxBNPVD169FAtWrTQ56MvHksejxBSWvCbcNT1z9T+bwaOPLj3il7q6wPj52sXCwrrCPx58kJ1y5h5kYU1co44SbF8QKR15BNvBrXopH3FF4zTizNXqL+/va5o67vnCiYIDzqhvep1aIuyinyUE4g0r1ixQr322mtq2rRpau7cuWr9+vU6Gg1ELIu5fJn8YgDCGYL7n//8p67vv//+ql27dqp///7q3HPPVUcddZSqX7++7gP23XdfbRDyaQURQR/gghS5sWRvHpkwr+4uW1SwQEElM/KxWXpHxXwptzv8FNYR+PHDM9TvXl0Z1PIDP/B/ufe8oEbKAaT+nPGjl4JadEbUXnVfWkZX3bmAKMQzryxWz762qmCbBPhG1ok/qXdbiuyY7Nq1S7377rtqypQp6sUXX1Rz5sxR27dvrxOwYcI4F5/4gTye+bimSEYUG4b0kQMOOED16dNHnX/++WrgwIE6fQQpJmhHG1JHYGmLZrcbPDYoxafcbr0XgxtrL1yeinnnbfXYwUGpMnljQY366t2v5B2UxB3Icroo4XJ7EdiyM/ri50PO7RqUCClfkA6FCFnv7z6jfjJ+YdmIaoB8bkRNLqj9gj92yFM6EoULBJI7y5YtU7/85S/VBRdcoM4880z1wx/+UL366qtawELwxjURzjAIYLNNzOwDoYwIdZMmTXT0etasWerWW29VV111lXr88cfV7t27Vb169fSFACLoH330kU5HQd43ot9kb777q9fUzt2fBjVC/KAv1j6/Xs6ZYqcSFhsK61riLP9ybI82QYmQ8gOC+tybn9ObI6Xhyw4iGxcGuEDAbUrcnSBukHYxdepUdeWVV6oBAwaoYcOG6frWrVu/IHazHaUsJj6zj9mW7WiWIcQbNWqkJz6+/fbb6o477lDf+c531AsvvKDTQSCwkbaCyZIbNmzQEylRlrQRsuf/4t4/zgpqhPjjwqNbBSUiUFjXku8KBgJWMuAkKlKOmIK6nKLT+YAoNlJ+EIlHvjjZAyK8iPoiOn3GGWeoxx57TK1du/YLAtcWu/YRSD9XH9NvmquvfbR9ABMcGzdurBo0aKAWLFigbr75ZnXbbbeppUuX6tVE0A/pIYha4z3iPeEoeduVDtIdceueEJ9071gdlPIjzUGPihfW2BM/Kif22LMsGCHlAgQmhGaaBbUNIvH9vv+8jmDH+X8vd5A28fvf/15PBrziiivUSy+9VCdcxey6L4v6uK7Xhwg2hDQi2BMnTlTXX3+9vjgAyLlGKghWH0F+NtJDILAx6RLpI5XOTx59o6L/B4h/GtTfs0wq+ZyKF9Yra/YsExWFVs2SPzGTEAGr30Bgpj2/LQxEsAcMfVY9P21J4KkMICghPE8++WT17W9/W+crQ6CaZopW25fpKGWxsDqOwDwn7GiW5fWYbWKSIgLxPHLkSB29Xr16tY5oi7iW1UaQGoI1tj/88EMd0a5UcDE9dtKCoEZIfLDfQBTWb0rvPJiKF9Zx6NSmSVAiJLlgIt8Vwyerm8fMCzyVC9K+hoyeraP2Oysgcjd58mR14YUX6gj1m2++qQUqsEWqmLS5hGyYoa+Y6XP1kce3zXWu/RguH+qY5IgI9vTp09VNN92kJ13Ch3akhkBci9CGwIb4Rh52paaIYA7CwmWce0BKy9qN+a20UU5QWMegQ2sKa5JskMd2zn9PTNw61KUGUftThj6b2jy/5cuX6+j0RRddpFM+IEALbSJ0XZapDeZqz3aOaYheI/8akxd/+tOfqvHjx+uVRTC5EeIaoloM9c2bN+uNbbCaCOqVxg9Gv86UEOIF7I5L9qbihfX8JdF/WOsfwJ0WSXLBBEVM3os6OTftYFwwPhintIA0h9GjR6vTTz9d/eEPf6hLe4D4hFAVsZrLMZc+ufS1ffbrMduz+cQvZvqApIH8z//8j/rtb3+r00BMcS3Raxgi1si9xlbsWKu7kmBKCPFF1AUcajakd44PI9YRwcYwhCQViEVs00+yg4mcmNhY7mApusGDB+vJfKtWrdpLdEpZcpbto5jZN5MvzG8/nviAtLleT1jd9LnaTMPjwrDuNSY2TpgwQf3qV7/SOeaIXptRa1NkY1Inxgs52Fi2r1JASgiXoySlYtX6nZF3u046FNYR6dyqYaSF0QkpNBDVEIvcJiN3MLGxnMU1otNY7eMvf/lLnXCFEBWxCRNhKu3m0dXX5TPrpl/aXI9nP5cY+sDn6mv7pK/4xMx+MOmDpfkwsRHrcj/88MM6Om2nhdhlpIVgC3es410p3PLQ69w4hhDPUFgTkiJEVJP8KUdxDTF43XXX6Q1TPvjgAy0sRVy6yi7Lt2+2PqZJX/MYdr7d1y676mE+GEQ3dm6cMWOGeuSRR7S4huA2o9UQ1DiKD6kz77//vo5eoy3t6JSQF5gSQohPKl5Y79jF/FOSDrD5A9M/4gFxjS3Ry4E5c+aoQYMG6VxiCEkIzDAhara5jna77cvU32wz62YfM+JstoeVc/Hlei5WDIG4Hjt2rBbPeC0iqE1RbUawsWoItnmvhLWvhzMlhBCv7LN1+46C3jFu1CDZM0ax7FaUdX3vuLibuvqCXkGNlBP4EcGktbiMuKKXunRgt6BWWrDxy8U/Kd1ERcw5QHrUER2r9YYBWOO9RdPcJ7UsX7NFbd/9qZ7Qgty71xdvLOmkyz8N66dO7tMhqCWPp59+Wg0dOlQLQIhHACEJA7ZP/Gbd5QP5PJ7P53b5gevxzHazHNZXotFIl8Hyg8irhoC2QT8T5Ga3a9dOVVdH210uDu0Gjw1KhQf/v+PuPKuiJuTfWPvb/1TMNf1Xjx0clCqbKH+rrRvtp2Y+dFHt/2fgSDDbduS3NCCFdURhfW+tqPp6QkQVyY+0CWssm3XtiClFXVLvW/07qMMPrtabA3TtFG2DgGxg/e33a7aoeYvXq7+/va7oSwbOuP8c1b5V46CWDLDKxQMPPKDuvPNOndpgikdg1sXnEr/Z+phtdj1KXyBl1/l2PcwX5s/mw3NCSGP8Lr/8cnX88cdrcW0LacH049w2bdqogw46qO5xi0ExhTWotGARhbU/ov6trnp8cO3/VFBJMPkK68+/9QghZQmWzSqG6Lzx7EPUhFtP1j8mP76mn76wLJSoBljGqU/31vrHfsztA9XcB89Xo4f0Vacc3izoUVi+O/LVRK31CyF48803qx/96Ed6u24IvlxMhGUpzZ5kWGzDGCC/GhMYn332WbV06VK9/bmkfmQyiHEsyYfc6zTnXXPjGEL8QGFNSBmD6DtyJAsFbtfh7sx7v79YDbvsGC10SwWE9jknddEi+8W7TtdCv5Akaa1frLN8ww03qIceeqhOKLqOYT6p222uvtLPbLPr9jGfNmC22X1y8YmZPvMY5oOwxlhiKT5sEuNahg+GiDXM9K1du1YLcgjttMKNYwiJD4U1IWXMzx57syDL6omgnjpqkI5MJy33EpFyCH1EsS/s0yrw+icJUbxNmzapK6+8Uk++E4EolklQuszu7+pr+1DPpV8mH5A2s4/tM9tcEx6lzWVmu32O2YY1rhGBnjRpUl0EWoS0LaZtP3Z2XLRoUWrXu+bGMYTEh8KakDIFS+sVIgUEQvX5e85OpKC2QRR71LABOkWlTe3FQCH4+eNvBqXis3HjRnXNNdeoiRMn1glEl9ltZj3TeS5zPZbrMcJ8Ln+uZp6b7bHstmz9xdAH4nru3Llq/vz5X4hauwS26ceFzrvvvlu3q2Xa4MYxhMSDwpqQMuW+cfODkj8eGtJXC9Wo29SWCqSoTBk1qCDRa1y8lGLb823btqlrr71WPf/883uJRimb5vKLz478ZjKAfnZfl89ss+sun1nP5DP9Us6lb5gvzNDvlVde0VFopIjYQtoU07Zvy5YtOnKNCaRphBvHEBIdCmtCyhAIPdy29QVSPx4b1k/9+0ldAk/5geg6LgoKkXtdiIuYTCAP+Nvf/rb661//WicCTcHoEo+udlc/l0k/EeHiExOf+HG0+5pH25/J5zoXZTHxmX3svjiaryfMzPOx9Tmiz6+99tpeKSGmgDbLtsBGjvaCBQtSmRbCjWNIPhQyHa8cobAmpAx5ZtryoOSHR2/pr/oneN3mfEDutW9xDaFRrKg1hNoPf/hDHamGAMzVRDDm6o9rUR83Ka8H/SGuIY6x4geEublJTC4Gcb1w4UK9Skva4MYxhESDwpqQMgPrOz89J976qybYDKWQy+aVgkKIa0St/1XQVf/3cM8996hHH310L6Eo5WxH2+fym2b2xRFI3TRXX/OYSx8cTcvlHPP1hB3D2kxz9YFhCT6I6VmzZukLGvggmO3otJjLLxMaUU4bSAkhhOQHhTUhZcYzryz2JvAgPpO8w2AcIK593qJE1Bo7XBaSP/7xj3oDGFsAholD+5hrHzG7zczHttvi9JVjLn3y7Stl8/XgaFrYeQDrWa9Zs0YtWbJEC20RzPmI65qaGrV48WL9eGkCf/N/nly45TwJSSMU1oSUGdiF0AfIqx5yUe+glk5+9M1jva4W8vSU94KSf6ZPn65TQCDcRPj5MFNI+rR8HheiV8qFej1xDK/prbfeUjt27IiUEgJDOsnq1auDTzM93DxmnlpZU9gLSkLSBIU1IWUE0kB8LbE34uq+iV9OLy5Y3eS2wT2DWnzGTV8VlPwCUTZs2DAt7ER4mgLU9plHsbC+tt/lkyOQut2W6ZitD5CyGOpiZt9MvjA/ysBsM83V3zxiyT2kdOBzgE+i0ji6ItQuP8Q48q0/+ugj/VrSxO2PzAxKhJBsVLywfvqNaLmqDeulW5CQZPJ+zZagFA9Eq/seUbpdFIsJdmv0tQ16zbZPvE/ownrIt956q05FgMiT6K6kNojPPIogRF3M9Ln64ihlMbuPPI79eOKz+5rtYX3F7PPFJ+12f5jZbveFhbWHmZwDpI4jfDCkc+zevVu3QyhL5NoU0bZf2nDE8nuIfMtjpAVczDMlhPgGgaI0woh1RDq1bRKUCCkeS9f4EdaXnNg+9dFqkxsu7BGU4jN/iV9hjW3KsQugCDwRjSICxWcKQ1dfacPR7CtH8eFoni91MfhMv9Rh8jj282Tqa/aT81xtZh8pi7n62j4xu276zNcNM58LUWtEmz/44APtE9FsCmlTTNt+lOHH+uPvvPOOLqcJpIQUeo4BqSw2bN4ZlNIFhTUhZcTMBX7yq7/Sq21QqgywgUyvNg2CWjx8fQZg2rRpdZMVXQZcfpjdJgLRNAA/EB/qps91npi0yVHOAZnOMw39zL4oA7OP+HGUNjnPPFcsV59t8tgisG0Dy5cvV5999lmdgAZSNoW1+MUnR4DJkMuWLdPlUoGJu77XF77ttzNVui4XCPEPhTUhZcTmHX42o4DQrDSGnNtV7ZFO8YiaPmaD3fvuvvtutWvXrr0EpJTDfK4+4s/lfBiQstlu95W66zGymXmuq5zNpG8+/V1+l0lf+xzswIioNTaOQV2i0aZoNn3id7VhCT58xqXk1m8eq9O+fMGUEOLiiI7VQYmAihbWXPyelBs+Ji7qfGMfCrPMOLZHG2/v28ct8d/85jdqzpw5dQLPFnum6AtrM4+59pF6Ln3NslnP1DffNlddfGF+2+fy53Iu6kD8iGQjWo10EGBGou3UD9tvtsGP3HnkW4voLgWYvHv74J5e/91v4SohxKJB/WgXb8s/KO2FZ6FgxDoizaurghIh5UV1A38RrHICIuOUw/xMYly/KV5u4OzZs9XDDz+8l9CTsn2UMgjrg6NZNvvaecX2eTiKudphZi6yiE0IUOw4aJoITCDnm8+Po+v1iGXyufx22XU0zfa5+uL1IWqNOwnAFMti4rP9dtuHH36oJ6WWEkze9Z0SwlVCiA+2707fjqWgooV1nElI+JEmhJQXZx7bLijFI84kUqwYcf/99+uIpoi5uOYSkT4MQCxiV0KseAHRjHSJxo0bq1atWqkOHTqoQw45RHXu3Fl17NhR+6qrq/VEQDkPhnKhXqNYPo+fqS82icGyh9iuHJhCOYq9++67avv27fqxSgVSQnyu586UEOKDtRt2BKV0UdHCescuP/mqhJDyoGcXP1u318T4QZgwYYJ65ZVX6sRdtmOUPmZUGIjf7GMexeQ8RKNFSDds2FAddthh6rTTTlOXXHKJ+uY3v6nt8ssvV9/4xje0T2zw4MHad+mll6qvfvWr6tRTT1XdunVTjRo10uLafm77+TP5xG8fpWxHxuVomt3m6ovHwWvduHGjPsJssRzmlzazvnPnTr2+dSnxvZ474MYxJC6r1nNVkNSxYMWeiES++JwMQggpHh1a+1kmEz8IUTJn169frx588MEviDnTXGIPZTHxufrIEbj8ZtnVhnQORJghhI8++mh18cUXq6uvvlqLZQjr7t27q5YtW6oGDRroyC7ONYEorVevnjrwwANVp06dVN++fdU555yjrrrqKnXjjTeqE044oe48eU6Uxey66XO1ZTPzOcyj+VhmWQyvERMPcXfBFNG2aJY2s4/Lv2LFCrVunb/VZKJQqJQQrhJCWjWLlhrrayJ40qhoYf30nGgf6vGH+snTJIQUF6zd7WvZvSg88cQTWmSZ4k7KttltIvpsn1l3mfTJ1Fci1C1atFBnnnmmjkgj4tyrVy8dsYbYRnoE8o7RD3Wc4zIR5xCl6Iv0kP79+6uzzjpL/fd//7feth2Pm8trh+Xy+mGudvhsv8tnGy4Q8PolhUPEsnl0WVgbxuTtt9/Wj1VKsMU/VwkhvmnRNHpqbBo3ialYYc2F7kmlsmxtrVio4DBT51YNg1JxwdrGjz76aJ2wM8WdlO02s276wo6mic9OkTDbkeoBEdysWTN17rnnakF90kknqaZNm2o/hCXEMcShRF/DxKPdhsc88cQTdeQb4hzgtRx77LHqtttuU9ddd52OfpuvSV6XlIHUw46Z2nAUC+tr+s02gM1eXO83bAxgYW01NTVq9erV+nFLRaFWCeHvKYnKgmXpW51tn63bdxT0J7ZRg2SunvH8tCXq2tGzI+mLOy7upq6+oFdQI+UGllk840cvBbXojLiil7p0YLegVhzaDR4blOKx6HcXq6oK3ZYfImDn7njzK6rq7afat2oc1HIDa1Zjl0URckAEnOmTciafGJDHAK4+YtIu/SGckbaBdI1jjjlGT0hEZBVRZ4hDIOcJ4rcx/UijOPTQQ9Xhhx+uy5nAsnZjx45Vs2bN2us12mXTXP5cfMA13pJTbfrkiAsCvBcI47D3DnIZF9CmTRt1yimnZB0XEPd/HWkfDwwb4BTRN46cqp7yeBseS3g+evvAslrF08cYrB47OChVNnF+U288+xA17LJjgloy2bYjv1zwz7+RK4yX3lgTOWgXdc1GQuLi6zbu7AU1QanygCDu2ql5LMtXVK9atUpNnDhRC7tiG0SiWYdIRBQaq3hgsiFypyGwMckOYltEJEyirbkaHue4445TRxxxRE7iEUJz6NCh6rLLLtPnmq+zWAZcfghuSWmJMhYuw4UEItelhhvHEJ/gOzEqU+d/GJTSQ0UK610ffxoraf6Qtn4mQBGSL77y+1+ZsyYokWLw3HPP6VQQCDaJjKIMbJ+Y7ZO6aa5+dl+p4yhrTH/lK1/Rq3i0bdu2Lm9axLRtpjDM5EfqBx63devW+jlyBcv3DRo0SF1//fWqSZMme71u+72E+aVu+m1fWJuY2SZ1jBeENZD3HPb+zaPLD8PdgPfee0+XS4mkhPiEG8eQKMz7YEfqUokqUljPfidexKBFU24OQ0pD+xZ+/vZ+9+rKVE4aSSLYHnv8+PFaqAERcCLiAI6SCy1m110GXH7b8PgQdfXr19e51EhHgB+iUcS2LQLhh0ld2lz+gw46SPXr108L46ggJeWmm27SwlxeN5BxkCOQdjEgY2n67XPFgO1D3fTJ42G9cXm/IGxcYJn80oa7F9iAptRw4xjikziTwl97a89Op2mhIoX17ycuCkrRyPc2MCG+OKx9dVCKz11/+EdQIoVk6tSpWkyJeMZRTAQdjsBuM+sw+3yp2367DSkNEL0XXHCBOvLII7WgRj61KQIzCWcxlx9CGMvoQbTHBZvN3HDDDapdu3Z178MUufb7kj4oy1iKDwafPbbSx/TBpK/pQ19Jjwl7/2F+lE2/tGHcS72utYBVQnxvHIP5S6TyiDMp/PGXl9b+fwSVFFBxwhq3HPDPHxVM0iCkVHTymIaEdCj+CBYWCKunnnqqTrTZJoJOhJzdbprZnmtfHCEMmzdvrpfPg2DFsnki/MyjmCkEzTaXH8vzIVK9//77B+84PtjN8dprr9VrYUd5z66y61zx2W12XZYRdL1/c1ykLH6zbvaBYclFfA6lphAbxwwfO593wyqQIzpGD/ogHQQTINNCxQnrp/72XlCKRs9O/iKGhORLnEkiLoaMnq1eeWNlUCO+mTNnjnrrrbe0WDOjqhI1FR/Kdl36StnsE9bX9MEQHYWoRvoHhCryqUXcwSD8XdFW8Uub6xxEwCGqsX25b9q3b683ppGc61zfs9lX6lKGmY8jR/Nc6SdltOP9YxwzjYvtzzaWmCgKcZ0EfKeE1Gz7RN8NS1EAkuQANonZc28oGk++vDg1fzMVJaxxFT1q0tKgFo1DPd6KJyQK3+rfISj54T9GzmDkukC8/PLLOmIsYk2EnAg3YPqkj4g66Wf3ERO/2S7nI8qKHRSx4YtLVMNEBIrws/0om35pQ4Qa6R9VVYWbb9K1a1c9wRKTG+W9me/Pfs/mESZ9cJS62WaW7b5SxhFgLOW9yzhkGi+7Tcrix3H58uX6mAR8bxzDu2GVR9y7qXrez6Z03OmoKGH96yfn1n7JBZWI9DikRVAipDQMOLqt9/ViEbn+8cMz1M6PPw08JC4bN25U//jHP+rEmnnM5DPN9kk/0+/qAzGH5evOOOMMna4BUW0KPNvC2uC32wAmGkKsFxos3Xfqqac637e8V/GZR1c/u80+mmb7RFiHjUm2Npcfy+4lYRIjKMTGMXcyJaSi0HdTY/4B3f1oOub9VIywRv4OrojigCt6TlwkpabvEa1V68b+b7/j/+OUoc+qV5ka4gWkgCxbtqxOzLlMIqO5WK59RcAdf/zxOqfaFamOY9gwBZMMiwXSWPCcrvfqw0RIZ/K5xiGuYQIplmBMCoVKCSGVwymHxZuDhjsdaci1rghhjXWrb3no9aAWnUtObF/7hRtUCCkR9Q/YV32tX/ug5hf8GF42coY69+bnmHsdk+nTp2sBJSLNPEoZ2D4x2yd12y9tckR0tWfPnjqVAuLNFHMSObWjp2ab7Zc2HLE7Y+/evfXrLhYHHHCAXs0EEXjX+zbfeyZfWJuYXTd9UcYr7Byz/v777+tjUvC9cQxTQiqLi0/uFJSiA622c3d53zmtCGE9+qm5etZpXE7q3TYoEVJaLj/niKBUGPD/gtxrCGzsqMZbuvmBFR9km24xU6iJD1Fo8Zl+8Zl10+fqC0PObqtWrdRRRx2lBbadwiBl02y/WTfLeJ6jjz7ay7J6+YJdIrH5TK5jYvvMIwyIT8yumz4g42Bb2HiZZveR+urVq9WWLVv04yeBQmwcg1VCNqQkd5Zk5tgebYJSdPDbM/aFBUGtPEm9sMZt7VET401YBFj8vE/3/HYUI6RQ4AfwxrMLfzseX3I3j5mnen/3GZ2Djf8n3AEimVm8eLFauXJlnZDLZqaQy8VcfQEmFSL/GRP+MGkyTOhFMezSCIFbKrCpTcuWLb/wvsUyjZ+rLd/xdo1JXMPmM9jmPEkUIiUkLbmzJDO+fpeGj19Y1ndMUy2s31hQo29r+1jC5RunFS+nkJBcGHJRb6+3bbOBHGz8Px121Xg1dORUfYuXkWw3M2fO1KJWxBuOQI62zxRwYWa2u/oiOn344Ydr8QnBJqIaSBlHMcH0i+ADUscRj48UEDxvqWjYsKE68cQT93rP8nqkbB5NE5/0NX12f9f5MHv8xOzxM9vC/GYdmwclDd8bxzAlpHI46wQ/F98/eGR22W51nlphjQ/ku796LajFA+LlvP5dghohyQC51g/ecIL3FUJyAT+UWEkEkWyki4x8bJaOZlNo7xGq8+bN+4Iwcwm5bKIO9bA+ph8pIFil47DDDtNrLsuybraIQ9k202/2M8sHH3yw3ra81CAVBaucmO/dNR5hZve1z3E9hvhkPGRM7DHL1hbmX7t2rb67kCS4cQyJClYH8bEkLO50XPyTl9TKmvIT16kU1viBP/H7z+sPxgfIOYOIISRpID1paBFSQjKBdJEHJi7V0WwKbaU2bNhQt4V5NhPh5sMQrcYEP9mq3BRycQyP3b17d/1aSw3WzcZqJ/Z7j2PmZ5Dp8/A5pqYhxzopy+6ZcOMYEpXrv9a79n8pqMQAfzNfG15+4jp1whoTrXylfwBsYY4vGEKSClJCkrTVvi20jx3ylE4dwf8mllJKe442ltiDWBKR5jqG+aQuZvrMo+mHOEMUFznQklcdJgIz+cPa8NitWydnfkm3bt306iT2+ABznEwTn3kUM/uZfew6kDHJNsautjA/lkNMorAGwy49Kij5gSkhlQHueIy4vFdQi4eIawRqyoXUCGv8WGNyFSZa+WT41ccFJUKSCe6mPHTLKUXNt84HfDHiBxX/m2f86CWdo21GtVeVaR5dGEuXLtUC11zxwz5KWfrgKOtUoy5m9jWP0lesc+fO+pjLRiZhfmmzfZiw+OUvfzl4d6UHKS+dOnXSY2GOmRxlTE0Tn9lXzrX7Sx+zDsPYSIqNWL5jGeZfv3598O6SBfZtuPeKXtw4huTN1wd28xbwwW8IAjWPTJhXFoGZVAhr/DgPGPps7A1gbPCF0qE1N4QhyQfievwdp3udcFRIzKh2v+8/r6PauDBGNKvchfaKFSvqxJmIMhFxppk+W8S5+psmfSH0mjVrppo3b67FvAg1WwCa/nza9ttvPy3akwTeO1JTIPbNMbPHxhbO5piKD2Vg9jX7mEdgjk3YWIb5pc3lh7BGWxLxKZCApISQ9HPnt4/zGvD5yfiF6pLbJiV+E5myFtYYXNxixo8z/ll9guR7fKEQUi4guvRkrbhOUlpIruD/FxfGmBBZzkJ7586d6sMPP9RCTIQbjmJ2HYT1Mf0oi4lP/NhdEeLPjlaLiDMjpChLmx05lTYx+Nq0aaOqq6v160wS2PmxSZMmOY2PWRcfMOvm0fYBObrGS8q2P2yMxW+2bdq0SaeEJJXhtQLJJ0wJqQzwmzTi6r5e73ggKIM7n/h9SOqdj7IU1lhGD4Iag4t/UN9AmNxyxTFBjZDyAV9kSAvxOemoFLiEtqSOJPlW4NatW3X0EUJMIp0i0EwTnxkhtc11nmkQZliCrmnTpnWiWsSaCDeIOFPImZbJL20Q1kkEkzRxQWGOhzlemcbVtlz74vHtsYJlG2MRz2GfC/zbtm3TSyQmFUkJ8Qk3jqkM+vfpoEZ4/tsB+H3AHB78LiQt+FI2whoDh/wa5GZecPcrBRHUAKL6N7XChKuAkHIFf7ujhg1Qd1ycnjsuENqSOoIc7SuGT9aTIZP2hQphjYloEGFiEG5m3eUzxZvpM+suQwoItvw2VwKRoynkpC6Czu5ntsk5MEyITCrt27d3jlEcXybDeMjYucbL9qMsbWK2X8rbt2/Xu3UmmUKkhHDjmMoAfzuF2tAMvwsIvuA3AXdBkhB4SaywxuAgMi1iGgOH/BrcBigU+NJAtK+KopqkgKsv6KVevOt0vWto2piyaKOeDInvBXw/4HsiCXl369at09FjlzATIWcKujBxZ/a1z5MjxDnyq0Ws2SbCzfa5/K42RMKTmAYiSAqMOR44ionf5bPbzLrdB0cpZxqvbH5pc/lhGzduDN5ZckHObO0weAMBsnJa7YFEZ9hlxxR0t2D8JuAOp7mBWakCL4kQ1vhBhCEChbA+rjwwOIhMF1pMCyKqGakmaQKL9Y+786xURa9t8P2A7wmkhknKSKlENoS1Kcaymd1XhGI2A0gDadCgwV651T4Nq28gGp5UkGON1+gan1wN4w1cbba5xsinbd68Wb+WJKNzZi/3u0rILY/MLouVHkh8IK6L8VuECzZJI2w3eKwW2gi+4CIOvw2F/nvbZ+v2HQVdr33L9s/UyCfeDGqfs2zt9qII5lzAVRQ+cFIZ4B8LIiwuyBu7tIwmuOLqHf+LhUqjShqI1A86ob06/+RD9bqqxeDBBx9UTzzxhBZiQI4Q0GJmHbj6mO1mGX1RRpQaaRpIh0DZBFFRF2F+4Go74YQT1GmnnRbUkgcuKJ5++mm1fPnyvcbHPJpjJ2VX3TS7DWAFEuyQKOuThxFn7LFd+wUXXKDLAIIgDphn8cCwAQXZmfXK4ZPV3xb5i7BjsYA7rulX1F1kb6wVW0/F/C5cPXZwUCL5AIGLtL5Sg9+Izq0aBjWljuveMigp1bNLcx2YAtt27NTHXNnz7VNAdu7es4atbUkR1aOH9KWoJhUBok3IvZ5w68mpTA+xkUg2JrggYoHUskKDqKOIX/tomqtPpn5mGUDoYZMUV+QTQg2Wqz+sDakgSUbGwB6fbONo++y2sDrGBxcxMlb2eMGy+TO1Ic+6XPC9Sggmor3xTuH/P0kywITGGfefU/LlYfEbYepSpBeKzV8S/a5nwYV1UkHqx/TaD5a7KpJKA9ug/+Xe89Rjw/p5nYyUZPClidQy5GMXMqcTS6ZBiJkm4iybL1fDuVgVA2kaYfnVmcwl7mzD8zRq1Ch4V8lFdmC0xycXn5jdFnZ+Pik3uYyxbbt37w7eVfKRVUJ8Rpiv//VrTAmpIPA3NGXUIH23Im1UpLDGF8KY2weqDrUfLCGVCqIG+D/ABMc0frm5QIQCtyAhsBcWIA8bwlqEGY5m2Ty62u0+OAKXr379+roMQSYRTzERamH+XM6BaK+qqtLPlWQwuRLjImNjjpN5tH3mREfx2XX7CGENXOMlJn67LcxvtmEN9HKiEKuEjBgzK6iRSgBz2n58TT+dOZDUnYOjUFHCGjlniFJz4xdCPgd5ZPhym/vg+fqis1LSRAb+6CWdIuJz5rhErEWkidkiTcqZ+ppl0wdRCOELUeaKWNuCzfTbPjG7Dc+BXReTDsbB3IFRxshlmcY67CgGzIh12FhmGvtsbUlexzoMpIQEw+MFnRJShJQtkiyQOTB11KCCrhpSTCpCWEMoIK8U+aWMUhPiBhP8cNGJNBH8v+BLLk1RBBdIEcHM8ScmLww88cB60iLMcrF8+sKkvwhrW6T5MjwPBGvSwQXAvvvuu9fY5GL5jjvGGp+ta6x8GR6/3JBVQnzy3V+9pnbuZkpIpYHoNea74Q5quW9wlmphDUGNPFIIBeSVEkJyA/8v+JL7x+iLKkJk3zJmnl7mM270GgIJQswWbqiLmT7zmKkfDKCOSDIEJSKomcS1qw0+sbA2lPF85SCs8RolrUPGyxw3+2j3C+sjBh+eA6JXhK9rvGzL1BZmkmpSbhQiJeTeP85S4euokDSDO6jlPsk+lcIaH8afAkGNPFJCSHRMkY1oAtYhTeOkR2wwgOh1nMmNSM0wRZsp0Gx/Pj4cRUBC6MEngkxEnEvIZRJ3YW3w4/HxfEkHr1HGQ8bHHjfz6PK5+ojBh8cVYR02Xi4/LOwzcfnLMWIt+N44hquEEJlkD4FdbhHsVAlrDD4+BHwYJ1NQE+IdRBOwoyMmPSInG3eEEM1OU142Jjdik5koQDC5BFqY5dNXDKkPwBZmPk2eK+mYwhrI645qYZ8H8p/zWRUkitnrkZcThdg4hquEEACBjQg2gjrlkoOdKmHdvkWVqqrHnRMJKQbIycYdIUSzcTFrCu1yj2g/MHFpJHEtIg8CzRRpUrctShueQ8SYHfmUaKjpN32mP1ObiMikI+9BxkbGLOwoZWD6xO/yAawxnWm8wvz5nIPnK2cKtUoIU0IIaF5dpRpV7VcWKYmpEtb4McSOesiVLORatYSQL2IKbUS0sSsZogxYaQTL+ZVbjnYUcY38ZxFkiKaKUHMdxUCmdhgeC+CIiDWEGCKcMFOciWAz/aaQy9TfbPvkk0/KIudXXr+MkYyXawxNM9vN81xteA4shWeOFyzfMXa1mX75jMsZbhxDfIN5L/gexkZf2PALF1xJJ1XCWkCupKxVS4FNSOlA6ggiWVjODznaEtUulzztfMW1uUKFbaZoEx+AoAprN038EGoycREmok5MxFu+fhjK8OHxy0FY4/WCsLEKs0zt8nnAcHfgn//8p9q2bVvd2OE5ZcxkvOyxNH3id7WZfjxfuSMbx/gEKSFcJaTyeHf5Br0cKua94Hu4nEilsBbMzSC4NiYhpUei2pKn/d7vL9bzIpIstPMR1y5hLXX7aPtMf5ihD6LiEGJiplCTuuk3+5lls24a/BDV5TCZTt6DjI15dJndx9XX9EFkIw0EOdbm+Jhjl6ksdVfZrOMIEZ8GCrVKCKkMPtq8S3/fIvsAy6GWI6kW1gIENrYzxtXPhtoPjRCSDLB2KSanJF1oQ1y/ksPdrwYNGtSJM9Mg0Fx122+b2Y4yTKKcZrTTFGsw8dttYefYfkRpYUlHIvcYH3vc7TG2x1LKIqDFL48jvs2bN39hqT0Zs3zGWNrC/NhNMy0UZJUQBsdSDSaq/nnyQp3yUW4RapuKENYCrn6Oqv3Q8OERQpKHLbTNCZGlztH+wSOz1cqazOtcQ1iLYBODUBMz6ygD2ydm+1AGsuybCDSIMlOkidgTgWf6pew6x/Tv2LFDR2qTDl6na9zCjlIG4jPFtNkHfoz1hg0bvjBW5njlMsb2OeKXNhz3339//brSADeOIfmAi6ZLbpukbh4zL/CUNxUlrAV8eJjguNLjVsaEEP+YEyJlsxpEs0uxvB9uSd/+yMyg5kaEtQg0U7CZRymbok58YrYPZaQL4BxblLnM1WYKvExtiFZv2rQpeFfJBeJfxijsKIZ6WJvLMM54fIwD+mcar1z80hbmr6qqCt5VOuDGMSQbiFL/+OEZOqMAmQVpoSKFNcAEx6/95CVObiSkjJBotmwcUOxINr43np+2JKh9kSZNmtQJuEKY5OG6xJlvW79+vX6upILXuHv37rqxgRg2xypXc50HH8Z63bp1+jnCBLFPa9y4cfDO0gNSQnzCVULSA1b7+Pptk/RnmjYKLqyx9iBmCcOwgYtppb61iyvgOJtBEEJKB0Q2ItlTRw1So4f0LVoUe/jY+aEbV4g4EnEmJnXTj7LdF2WxMJ8tyKJGSF1+mLQhBQLlpIL8aiyD5xoj82j6xTK1owxRjTF4//339XNhHPIdy0x+1+NVV1fr50oTskqIz/VOho95gxvHlDkIaGK1j7kJiVLjzoqtT1s1i34HaZ+t23cU9JuzUYPsLw7/JCtrtqjla7aotRt3qndWbC76bFCss3vLFcfoHE+SbrCMD2Ycx2VE7Q/GpQO7BTWSBJCr99jk9wr+/QGxgFvdNjNnzlS/+MUv6kSaGPDhg+BDjq5MLIQPAk0wyybit/sL8Nltbdu2VT/4wQ8Sm6KwZcsWNWnSJD0eAIIYyFjBzDqw+wCXD/nONTU1auLEiboufpNMYy397T6ucRZuvfVW1bt376CmVLvBY4NSNCAOHhg2wKuojcqVwyervy3aGNTig3Qw3LmKw40jp6qnYn5PYK1+kh8IZBZ7ciKCuMcf2kwd172lFswtmtbXQV+kGubCth07g1JuFDxinQsQs1jv9pyTuuh/FmxfiT/YGfefoyNR+IIoNLgdce2IKbwSJqSMke1vkSZSyAj2AxMWOidSNW/eXIsyiDUxCCmzHuZzmd0Peb8QZWak07SwtkznhBmEZZLTQT766CP9OsPGyjRpy2XcJe99+fLl+gIm37GL8vngb6Zp06bBO0sfvjeOwUYhCJCQ8qJYohrf/UgTxMR3TIDH/Bz8LiAYgjk70Ju5iuooJEJYh4HbSBDbGBAsw4VBKqTIRv4kxPVOimtCyhoIbORh+74NLSCN7DlHrjUmLyLPGsJMDGLNPAK7zTQReC4fDOLMFGi2WJN6WD/bb7eJD7svLl2a3GWvkKpij5FZB2ab2S5trnOwTvjWrVu1sDbHW8wcM5dfDJF0V5vL36xZM/23k1YKsXHMLQ+9zlVCyohCi2pEpXEnAwFZfPcjTRAiupACOoxEC2sTRLUxSBDZuALB1UghgLi+9TfTgxohpJxBhGJ67RdtIaLXY1/+4o8E0iYQeTTFGswUcCLybFEnbcCsmz6IMVmuDYgwE6EmFtYmPtc5Lv+iRYv0YyUN5Fdv3Lhxr3GSsu0z21w+s45oNdJtcEGBVBP4zLHJddxgwNXm8h944IGqYcOGui2t+F4lBKtIjH1hQVAjSaaQohrBVgRdEZVGxgMu4kpN2QhrE1yB4GqkUAIb+Zmc0EhIOsAX7bg7z/K+4Qx+2O1NKyCsW7RooYVaIQxAWIu4LrRBWCPlImkgRWXXrl3OMcrXRFjDsHMmlth75513dB2i1zUuvq1ly5Y6Up52fG8cM5wpIYkH+4aMKoCoxvf55LtO18FWBF2TRFkKa0EENkL/vlNEcHXFpfgISQe44/XQLaeoUz2L62lz1wSlPUCkYdKfKdhwFLPrIKyP6ZcykFQCCDKJeNpCTdpcvrBzXH6s4fzmm2/q500Sa9as0a/VHCNgj53ZLmb7zDrE7cKFC3WaCfyZxibXtjC/tOHYoUOyhEGhwEWu741jkBLCuVHJBBc92Dfki1N1o4OUD0SosYFYt07NA2+yKGthLeCfFVct3nO4HpmtNmziFuiEpAGI69/Uimufketx01cFpc9p3bq1TimQSXC2yMNRytJH+otfzOwr/VCHIDMj16ZQkzbxi0/82drsx5ozZ07dlt5JAEvsQfhmGl8ZLzFXXxlLaTvggAN0egkuJODLZWykDUe7LZPfbMPzVoqwBgVJCZnElJCkgYudK0e8GtT8gNXbpowalLgItU0qhLWAf1hEr32tj40JSnc/+o+gRggpdyCucTva53cENjowadOmjV7PWgScmC3s7DaX3zSIPeT/IqpqCjYRaiLWpE1EnCnq5By7n90m58HeffddtWzZsuDdlR5s2vLxxx9/YbxEKNsmwtlsFx/KAOMKmz17dt2kSHs8YfY4S5v47XNwFJ/U5bGkDX8ruMtRSfjeOAarhCxcxpSQJDFizCz9/egLrBD342v6qara7/CkkyphDRC9fv6es73d8kW+NVNCCEkP+I648YJu3lYLeXvJ3kvSYck95FlDnJkGEYejKerMdjERf2a7WRYhJwLNNgg2Maln6+MyaUcu89/+9rfg3ZUWRM6xWoeMRSazx9D0A7Ner149ffEwd+5cnWftGo98TMbVPErZ7tOpU6fUT1y0wf+g7xV7fjCaKSFJASkgv/e0oyKCIH8a1k+vEFcupE5YA+Re+7zle9+4+UGJEJIGzuvfRbVu7CdqjU2tTCDUDjnkkDrRhqNES3GUPmabKfLso+0TkWZGSE3BJib97Lppdps8pu2fMWOGWrmy9AEG5FZjcqE9LvbFit1u+kyDH0Ia61VPmTJFR8Lht8fLHJcwv9mGMvxSFj9MzpG2Hj16BO+usmBKSHp5+Jl3vORVQ1Q/efvp6uSEp37YpFJYA5ms5OOWL/5hGbUmJD3g++HqM/ysKISdYu0fEQhrU0xDwImJoDPL6OMSh3Y/SQURIScmYk0Em4g2s0380oaj6xyXH1HrZ555Jnh3pcEVrTbHFmMEk3EXn93PNPiR4/zKK6+oFStWaJFtv3eYOS62P5cxdvlh+DwrVVgDbhyTPjD+vna+ffCGE1SH1qVfPi9fUiusAX48x99xumrjQVwzak2KDZYpaj94rN7aOKoNHTk1eDRic8ZxHYNSPJat3a5sZd2xY0dVXV29l4gzxZ4t/Fx95Gj3MVMVTLFm1k3L5Hed5/LB/v73v+uJjKUConrHjh1fGBf7KGbXTR+OMGzKsmDBAjVt2jQtsjO9/zB/prZs/i5dulRcfrWJpIT4hBvHlJZxLy0OSvF4aEhfvdFXOZJqYQ3wj/vzq/sGtei41qwl5cn8JYxokD3fDb7uaNlAsB1++OF1As6XQRRCAEKU2ZHQQhvSJMaNG6fFbbHBToiIKLvGJIphHOvXr68nQj733HM6Gg6/630X0o466ih9oVTJcOOY9IAc9995yK3G6h/llFNtk3phDbA0Cz6ouPx1+gqv6zESUmh83ZJLK8cf6u8H3QTCTYS1GSk1zeUD5jlAytJn//3313UIMzsaKpFQMfGDsDb7PJdP/Ng4BUK0mOB5sVENxK89FmK2T+o4mmVpR/oH8qrHjx+vPvzww7qVVkxzvX+XP1NbJj9eQ9++8YM+aYAbx6SD2e/EDz4i2HHz5cd4ndhabCpCWIPrv9Y7dnQKV2K7eIuJlBkfbeZa7GEc0bE6KPnn4IMP/sL25rYAtH12u6s/8nLhl4i1LdpEuJlt6Gv6zTYph/nt8p///OeipoQsWbJE77SYy9iID9htYpKjDlGNzWAgcHMdS3tMXG2239WGcteuXVXnzp31a610cPeIG8eUP1Pn7L1hVhSQV11Vr7zv4lSMsMZKIT6W2OJamaRY9OziZ1ep92u2BCVi06C+n5VBXEBUI4cWYi/MIPRcfpirDT4Ia6QPiEhzmS3wfBpSQh588EFVU1P41DikaiC3Omw8TAsbL7OMcYOwRtR95syZOvqP9+RzvDI9ltnWp08fLerJHrhKSPnzwrx4d0ixg3a55lWbVIywBj6W2Fr6QWWIFNdEuChGSs+8xXuvs0yKA8QcVnyAEIaoE7NFn+1z9ZM6jhCDMFcU2jSzTco4irnaxGfX7fLq1avVL37xC7Vt27bg3fpny5YtOvUEz+caH3NMzLLZ12zHmEFUT5gwQb300kt1uc2u92hapnGI0gZr1KiROumkk/Tzk8/5r8uOCkp+4MYxxQMbZcXdEOY7g44ISuVNRQlrrBIy9PxuQS0a/1iwLigRUli6dmqufCSa/f1t/s2WCkSsW7ZsWSf2TKEX1YfJi5h4J2JNRJwt3qTN9omF9Q87x25744031KhRo3Susm+wvN9bb71Vl1cdNhamz15Sz+yDyDCOSP+YOHGiFtjAfH+wsPcf5pc2lx8W9ljHH3+8at++vX4N5HPwnXfHxfF+o22wcQwpPHqjrBiT0BCt7trZz13aUlNRwhogah2H1xdvDEqk0mlYhDwwH6tWTFm0kXnWJQICDis/iPizTQRgLiYiEYZVRzIJumLZ1KlT1S9/+UudHuKLnTt3qnnz5mlxDVxj4TK7r4xtVVWV+uyzz9SYMWPU5MmTvxCpLrbhczvrrLP0ayBfZPBZ3VXvNg2CWnyQEoKlS0lheW/VF9fzz4dvnHFYWU9YNKk4YY2o9Y1nR98YArc6OCGivJnp6a5DpzZNglLhOL6Ln5zDl2a9H5RIsenVq5e+9S+i2BZ+ts/Vz6zDELHGMZcl9yDkwkR4WFu2c8z6X//6V3Xfffd5EddYyg/biiPFxH7PMBkLs82uiw8R7MaNG+uJj7/+9a/1WtW40EGbvI9c32Mu/lzPwd/DkUceGbxjYoPf6J9fe7xXkXXzmHk6VYEUjlXr996BNh961V5IpSG3Wqg4YQ1O6h1vQf6VnAxGisSx3VsGpXiMfXlp7Q98UCF17NgVLycQ4EchExB3EFIQepmEoIhB82iWpR+EGiLWENe2sM5H4JmW6RxXm+1HJPj222/XS9dFZdOmTVpUI1ItY2WOg4yF7Xf5IKAxRrNmzdKiH2klZvqMaS6f+MP6ZzonzA/Dazv//PM5aTELSAm53XNKyG2/ncnlcgtInKVdB53QvvZ/I6ikgIoU1rgyinOLnbs65U4SowR6pzwPVNUr3IoSwiFt/UTFucGRG2xHHpfOrRpmzYXv2bOnTkmAADQNQsuui0AUwWj7INAgzCDYkeJgCjhXBBs+sbA22y9tYX5X2/Tp09UPf/hD9fbbbwfvOnfWrFmj5s+fr6PeeJ8wvHcg4yBjYI6JlKUv0jwaNmyoPvnkEzV27FgdqcbKIhgv+/XCwt4jzNe4mH7k3HPSYm4gJSTbRWs+ICWOKSGFIe5dfF+74CaFihTW4JITo08cWbqGEetc2bk7fkTQN66d8qKAtVcLTTePkzkef/G9oEQEHxvotG9RlfW2dZs2bfSGMaZoNI/5GkQltkyHWDOjpChDxNk+2+y2sHNEFIa12f53331X3XTTTerJJ5/UEw+zgYmP2FIchosEvDdzTLKNE/wAZUSoEamePXu2+tnPfqZX/8DrkqUJ5fXKa5ay7Xe1iV/awh7LNLO/1L/61a/q10myg5SQEZ5TQm5hSkhBiHMXHxdPxfgtLSYVK6yPPrxlahLlk8zyhF2E+JrE52NSYS7gx8XX2q4QkYxaf46vsTisfW6bzBx33HGqXr16WgzaBqEsEdgwM9sBhDWW8hMBZ4o402xxJ3W7v1k3haPZFnaO6ccyeffff7+644479I6JYSBt5M0339TrYdvvX0Sza0zQJn4cIVRxN2Dx4sU6Qo2VSrD2teShy+uS1ymvNRdBLW1SNi3XxxLDhdXZZ58dvHuSC4VKCSF+iXMXf0DPg4JSeqhYYd0dkcCIytrX5Lck40s4rt0YfUJDIdiw2c/r0VthF+nK7GsndwpK8fnJo28wlSlg2tz4u4SBTjmm67Ro0aIu1xqIeMQxzNBXyuY5EG7YgAaTIhEZFvEGgYc2OYrAQ930ZfKbbWF+12PhaPqxVvT3vvc9vWrI2rWf3xnYunWrXvUDKSNYAUTGAMh7lfctPgF9EYHGmtQQ1OiHKDk2rLnnnnv0BEWAyLW8DtfrhYW9x0xt2R4r0zlXXXWVvgAg+eF7lRBJCWG+tT/i3MVHkDNtVKywxk6MxYo6liNaOHrARw6rT+Yv8bNZQC63/33Ro0uLoBQfvRvZC9yNDDmBoyYtDWrRwXeIXm88RxC1Rg4wBGImUW2KTSmb/QEishDrIqxF4ImJsDN9ZluYP+y8bI/lat+4caP64x//qK688kq93B12O8REQkxQhMiEQDY30AFmGe8Z7Yj0Q0hj7CCmkTf98ssvqxEjRqif/vSnasqUKTo/G/1wrryHTK/Z1RZ2Xlj/TG2m/8QTT1T9+/fX74nkh6wS4hOsEuJrrg2JR8cirK5VbCpWWANfS5mlkSZVfi46fOSw+sTXBj+tmxcvTxL5Zz4n8QznbmTquVeXxNrMQDird6uglBuYcHjsscdqwWgKZjGIRrNumt2Gc1u3bq399iRG01xR1Ez+TBblsdC2YcMGNXLkSHXdddepRx55REeWV6xYoQU2hDMEM8YGEXiUpY6LB4AVQ5CH/eyzz+odH++88071m9/8Rq8igueAoMY42M+dBMN7uPrqq/VrJNEoxMYxvubakHh38dOWXw322bp9R0HviDRqkNxbX7gdhCvXKKweOzgopROMDSZ6+PjjePGu0/OK6hWS9t8Yq/7l4U0V+z09P22Junb0bG+3LxFpnTpqkI4GVRrIs+/93WeCWjweG9ZP9e/TIajlBibsYXIfoq4SnRUDYXUAQQ1QR7oD1n3GJD3kNUOgukDE1EWYH+Tblmt/XAAgwi5iulmzZurAAw/UkXdZYxoCGat6oO/27dv1OtQfffSRTiGBEIdYxfnSXx4/7DXk6we+Hgv+yy+/XN12222BJ3faDR4blKKBneweGDYgNXOJcJfp67dNUnMTJIjTrgNyZejIqZGCaPgbHVX7N5p0tu3IL4W0oiPWrZox3y0MX8u8gRnzPwhKpUVPVgv/Lc2L5tXF/dsZcMzBtWoqqHgAGx1dO2KK2lmBmx19/1d/D0rx6XtE/psaIP0BaQHIFZbIs5jUzaOUITjNNoi2Jk2aqHbt2umoMOp2tBSWyS/marN9YmH9w84x2/Ae8P7xHiCaMcnw9ddf1xcH48aNU0888YR67LHH9IXH008/rdM9kIuNixCIbYhpRH7NlT7M55Gyabm8Lldbvn5XW9u2bdWQIUOCT57EoRAbx5DS4uvOeNKoaGHdoume24zkixzculZYe/oGe/a1VbU/OkGlhGCymo+XgbQM5OgXE/yoDD0r+o6hLjCJ57oKE9ePTJin37cPsINr1Ih/+/bt9Q58IpyjGIQcIredO3fW9UzpGEkxeY147XKxALGMdaZhEM1mGSIc7XJRIeK1HN4rXu+NN96omjdPxt26NFCIVUJIfF5fHO079bCDc1tRqdyoaGEdZ4OPtG9rDuHoK683CZuT4PMaN31VUIvH0YeUJjf/olMPC0r+EHGd9r9n8OobK3V+uS/OPD7epgZ9+/bVKRAQxWYk2j5KGYgPQhNlpEsgYo2UCnN1EBF3Urb9uVjYY9ll0zI9R7bzIZZdgtnlC3sslF1ttt+0TH5XW66Pdd5556lzzz1Xf27EH743jiHxwR3QKDSsl85UxIoW1nGS5ithW/OTj/S3vmSpNyeZ/U5N5H9+m75d/a3SkQ/4e0VOmm8grpEWkmZxDVF92cgZ3nLUsbZ415ib92BS21e+8hUdkTVFtGm2uLZ9EHBYLaNr167O1UFE5ImJ3263/a42KYedE+Z3tUlZ/Gab2ScXv5TFb7e5/Ha77Q9rE5/rHNPfqVMnHa3GZ0T8grtE2DiGlD+dUrgiCKhoYU0y43N9yVJvTnLfuPlBKT7H9mgTlIrPsEuPCkp+gbgeMPRZtXB5+lYLwcRPiGqf3HBhDy+ZUsjB7dOnjxbLLhMhbZZtH8QchDVW0YC4FoFnCj3bJ5apLV/z+VhRLOz5i/26kJ5z66236s+WFIZCrBJCiC8orEkoUSZmZQKbk5QiKooVTnwtrVSK/GoTRK2R21sIENEf+KOXdB5yGqLXeA8jH5ulhoyeHXj8gLsGfbr7+9846qijdITTFM5ipoB2HWEQcy1bttQ7+2EtZ5eQhC+T8MznHPGHtdk+8Yf1z9aWqz9TW77+sDbxuc4R//XXX69OPfXU4NMlhcL3xjGE+KLihTVztcLBLbdv9c9vKbFMQNyOfmpuUCsOq9ZuVbf8MdqSii7OO6F9UCodQy7qrdo0Ltxs6p+MX6guuW1SWUev36197XgPD0yMvwmMzTXnHxGU/ACR3K9fP73snC2mxVCXCXy2HyBKismQSAsxc61tAWj6M7WF+TO15ds/U1u+/kxt+foztWXzn3nmmeo73/mO/kxIYZFVQkhpwW9sVOLMc0syFS+sO7dqGJSIi38/Md4ELRsInScm+5tAlglELL878tXaH77A4YEzjvU7HlHQPyjf6hvUCgMughC9xvqkEKnlAtao/vHDM9QZta+9EBtA4G5BIdYvhyBGvjXyrkVYywRFMeBqg8DGUnSIeh9xxBE6ag2RVw4rZ6TJkI6DXSC5bXnxYEpI6dm5O/rcpTRuDgOYCkIyglvevqP62HgG6QaFBAILE/J8iitMWGvfOhlfBNiUxOfdhDCQGw+RmnSBjc8baR/Y+OV3r64MvH7BpjrXXNg7qPkHK4SccMIJOvpsRqTNsimmTT+iphDb2DobIh2rhUgk1RVZFcvXL21h/iiPlc85YX5pC/NHeax8zmnatKneWRKfISkuXCWEJA0K64jMX1I5W0LfdElP74vyI90AkcVCrKEMAfjv/z3R23rFwjfPPjxRmxPccsUxRftBEYF97s3P6Zx1CNlSgzsSWO0Doh+CuhBpHyZ/uLm/qirw8lAdO3bUy/CZ4lrEc5iohkFUY0fHDh066C3Td+/erR8PItCMXIswtMWh6TfbcvWHtYkvn3N8+jO1+ToHO0jed999qmfPnnrMSXGRVUK4/gpJChTWJCuYxNi6ADm9iCyeMvRZLdR8TJaDoIbIggD8wNPSegKilX09TljzAX5QHhzWX7WpfW3FAncAbh4zTwvZK4ZP1ncesNpLsSY7QtBDTOOi7LCrxuvVPqJspZsvuN3cLebyermClIIePXrsJZrDxLTpBzgOGDBAR04hrkUEiiAUg9gO87tSSMRvnyP+sHMyPYd9TpjfbAvz5/u6MvnzOQfjPXz4cHX22Wfr8SelgRvHkCSxz9btOwq6J16jBsnON4u6x/29V/RSXx9YOf/Isg5woYBwveTE9uqk3m21gIFozAbE3MJlG9S8xev17o6FyKkVkvx5F/qzyRWkyvTsVK1aN2+genZpriemxMmhw6QY5O/h7tCi9zerOUs3FvQzDgOrgIwaNiCoFY8333xTvffe5+u/Q0wDl5gWQx+kgkyePFmNGTNG72Ao/SA+TVB3tYX5gbSF+aUshPmBtIX5pSyE+YG05eo3MduknMtj4cIGovraa6/Vdd+0Gzw2KEUDf7cP1P7d7hmx9IPfA0xYLuZ3xOqxg4NS5YKAFoJZUVj1+ODa/6mgkmC27dgZlHKDwprCOmcQofSdXhEGhPbxh4bvcFiMKKWA1zJ11KCcxH6pSIq4DiOfjW2K+dlmAxcLv7nlFFVVgs8eAm7evHlq8eLFWtABW1wD0wew4QxyrH/5y1+quXPn6gmRtkgELh8I84N8z0nqYwFXW679MeZYq/r73/9+4PEPhXX+xBF5UaCwprB2QWFNYZ0zxf7SSgojaj/rS8vgs4a4/o9acV3Qf+gKAvnrfx5+VsHzqjMBMffWW2/VieswgS1+OWJliuXLl6t77rlH7dy5U+dsxxGSJj7PKcbzR3kOkOmx7rjjjoKKakBhHQ2kp2EOTzGgsKawdsEca5Izlbi0ESKW5XIBhZVC/jSsX1AjccBdCuSvl1JUAwhlTIrr3r17XU41RHXYUQxL7mHDmAsvvFCXkR8MUWjnCMPn8mdqy3ZOvn5fjwVztclzhLXZPjFXG+4G3H333QUX1SQ63DiGlBoKa5IXV1/QS51aKzYrheFXH1dWER+I68cormOBi6kpowYlao3Vbt266QmNiDybAjqTYZWQs846S51yyik6am2LRFp+tv/++6uf/exn6oYbbgg+FZJE9Dr/3DiGlBAKa5I3993wFR3RSztI9+mQkHWr8wHiesb95xR1tZC0UMqc6mwccsghevtzCDxEqF1RazNyjSj1vvvuq775zW+qQw89VG3fvl0/jit6K7582ly+XPtna8vXn6lN/HZbWH9XW+PGjdXo0aPV1VdfrceQJBtuHENKCYU1yZsDq+ur8XecnmpxjR32yjmHHtFWRF3zmTRY6eAzH3P7wESKaqFt27bqmGOO0UJPhDQMuOpYcg9L7yHKetBBB9Wtbx0mMm1BKW1mH5dffHbdLpvnuPq5/GZbmN9uc/ntNtNn+u02pNQ8/fTT6qKLLtJjR8oDbhxDSgWFNYkEhBvEdRqjoohaDrmocDvsFQvcEsUycYi8V9oEpnzABSJy04dddkzgSTbY5a9Pnz6qVatWddHpMENe9q5du9SRRx6pxTWW30PdFJGmhfkr1U4//XT11FNPqeOPZ2pBuYHvP24cQ0oBhTWJDMT1kymLXEsqQJKX1ssXRN7ffPB8Rq8dYEyev+dsdXKfwm8P7xMsode7d2/VpUsXLZ5FSEvE2hTXqO/YsUNvHPO9731P+xC5DovQ2uLa9Jtt2fyustTNstnP5Tfbwvx2m8tvt5k+0w/DmA4dOlQ9+eSTqlOnTsGok3KDG8cUnvWbSr8Lb9KoeGF9RMfqoESiIJHrNNxyg8h6KKH5tXFB+g6i15jYyNujn0epMSYYm3IEgrlz586qV69eelttl6AWH8AExkGDBqlbbrlF+zC5EZgi0yU2XW1h/qQ+Vpjf1dauXTv1u9/9Tv385z9X9erV02NEyhemhBSWtRvzW4pO0IGelN5OqHhh3aA+J3jFBeJ63J1nqW/1L6+onwmiGhBZaYpUu8DExr/ce15FC2ykxmDDn3KLUodx4IEHanHdpk2bvUS1lCWiDREJcY0l+P7rv/5LT2xEJNsWlpVs5557rnr++efVpZdeGowuKXckJYSQYsFUEOIFfHn9+Jp+avSQvmWVGoLXOuHWk9W3L+gVeCqDShTYmJw498HzdWpM2i6gkDuNSXZYlg+bw4iohpmRa4hriGlMxLvrrrtUdXW1rmeK6ob5w9rCLMpjRfG72sL80ta8eXP1wAMP6NQPjCNJF1wlhBQTCmvilXNO6qKjgRAxSQdRarzWPt1bB57KQwT2i3edXhafWb7gogER6vd+f7GenFiuaR+5ghVAMFER6Qyy5jVEtWwugyOEJMT0mWeeqX7xi1+oww47TE9oFJEpghPL9dk+02+3wS8b0YSd4/Jna7MfzzwnzOQc21xccsklavLkyeo///M/dRSfpBNuHFMY/rFgXVAiQsUL64YRd1ar2bAjKBEbRAMhYhAdTKJYk8glotRpT/3IFUR08JlBgCKKXc5pPQCvH3cicNGQxgh1JrA74MEHH6yj14hIm+LajGJv27ZNHXvsserBBx/Uq1988sknepdGU5y6RKzpN9tEvGY7x/Zna7PrvsAFyOOPP67+9Kc/6VQakm7wHcCNY5JD+xZVqV2xZZ+t23f4+6Zy0KhBVVBKJlH3uUfi/QPDBnApnxz4aPMu9cwri9VvJy9VNds+CbzFBZHLb5x2iDrtmINTH7X0xa6PP1Wz36lRcxatU1Pnf6jmfZDsi0mI6QFHt1V9j2jNCyaDTZs2qQ8//FBHpSGoAY5SbtCggfr000/VI488og0byYj4trGFbTah61MI+6J9+/bquuuuU0OGDNHrgSeVdoPHBqVo8DfKzSMT5qmfjF8Y1OKxeuzgoFS5tP/G2Nr/86CSB7iTWC57RWzbkd8ETQprCuui8saCGjVt7ho1bvqqgotsLJ33lR4t1RnHddQTLEk8cIG0YNkGLbRXrd+pnn5jbdBSGvA/eFz3lqpnl+Y64k7CQTR48+bNWmRjAqMIaxHPSBvByiKvvvqqGjVqlHrzzTfrRDH6uMrlBiZ3Dh48WF111VXMoybEAwi+HP6t8RTWFhTWEYU1RNujtw+ksI7BqrVb1dtL1qv3Vm2OLdQgsppU7acOP7haC60OrZswalkE8Bmu37RTLV2zRe3Y9Yl6Z8VmtXnHJ2rKoo1Bj/jgswUQ0a2aVamObZrwQikin332mU4B2bhxo077ACKucWzSpIkW32PGjFGPPvqo7lfutG7dWl1++eVaUGPdb0KIH6CfBtbqpygiEgsdYE5WOUBhHYGot9xWPT649scoqBBv4J81F6rq7UeBlXAQ0VhZsyWo5U7z6iqm7BQQRJ2R8oEoNgQ2ItoisLF2M1YZWbRokV7P+S9/+YvaunWrbisnkEONCDWWzkP6ByHEL3+evFDdMmZeJGGNCfPlcqeRwjoCUYX1m78+XzVvyh9/Qkj5gl0YsUoIDBMYkV8N4Y3ca0x4nDlzpvrDH/6gJk2apNuTDHKmBw4cqM477zx1xhln6GX0CCGF4caRU9VTEe80U1jHoByE9bk3PxdpYtb/++HJeqIUIYSUO4haI3oNgY0j0kYgrJF7jcmNyLseN26cmjhxovroo4+Cs0oPLgB69OihN3eBIX8aOeOEkMIRJ78aYAWqcknXpLCOwNDaq64o+b0jruilLi2T5HtCCMkVEdmIZiNKjQg2UkQgWJcuXaomTJigXnjhBbVw4UK92kixwTrdENAnnXSSXiqwT58++iKAEFIcXn1jpfqPkTMipYGAclpRhcI6Aj9+eIb63asrg1ruYALjmNsHBjVCCEkfWEMaQhsmqSBYKxuR7fnz5+sUkWnTpql33nlHC/FCgG3bu3fvrteb7tu3r86fhrDmhi6ElIaod/pBuWknCusIxEnAx0YjnGRFCKkEzGX3sLoI6shrRqrIypUr1euvv67tvffe03VMepSotwh0FxDI+++/v6pfv75emeSggw5Shx56qOratasW1NgdEvnS2K6dEFJaEK2+bOSMoJY/WOlp1LABQS35UFhHIM4tDezihx3rCCGkUoGwxvrYWGUEghtg2b5169apDz74QK9AglSNDRs21G21jpVHmjZtqoU08rghnNu2bauaNWumd4wkhCQP5FZ//bZJam6MDcPKaQ1rQGEdgThrMYIZ95/DZd8IIalDItQuzOi1LNXnEzy++RxhFOK5CSFuoqbOmjw2rJ/q36dDUEs++QrrLwXHikYv+RLju/m2385UO2uv4gghpFwRIZuLIa3DLEsOtm1oEzP7i7nOEbPPkXIuRgjxz8jHZsUW1QCbfKUZCuuAUw5rFpTyB7vMXTdiir5FQggh5YBLkJqiN1ef3WaaKZSxfB/M9LnOgWV6/Fx9YoSQeEDbIFL9wMSlgSc6rRulf2M3CuuAE3u0DErRgLi+tlZcY4tnQghJGrbgNE0EqYkIVROXT5A20+znsc11DsyFq83lcz2H7SOE5MYbC2rUJbdN8hKpBscfGj2IWS5QWAd0aRd/sgzEdb/vP69vl3y0ufhruxJCiIkpLIEtMrPVgVkPM5d4LYbZry/b+3EZIeSLYFEH7PFxwd2vRF5Wz8VpfdoGpfTCyYsBuNVx2FXjg5ofsFbj107upHp0acHJjYSQoiGiERP7IC6BWRZEWKJNyrbYNOt2mxDmj0qukxVRNl+76zzZoh2Y/V1lQioV3G1f8cEWNXXOGjVp7lpVs23PmvW+mX7fOapD6/LSQ1wVJAZXDJ+so86FAms3NqnaTx1+8J7oeM8u7n3ym1dXcW1sQkhOmKI23zLItU3I1RcXl9DNxWfWc2kL62+fS0i5AJG8c7dbGK/ftEut3bhHKM5csE5t3vFJQXWPSa82DdRzI86r/d8KHGUChXUMnp+2RA0ZPTuolRflti4kISQ+ImhNYZtvGUg9zG+Sqy8uLmGbzWe3h7XlUzZ9hJSauMsDl5Jy1Slcbi8GA445WM9YJYSQpAIRC8uWP2y2SxlHu2ya7TfPL7Xl89rMtmzlbGb2JYRE57RajVUJUFgb1D9gX3XjBd3iLGlNCCEFQ8SdKfJc5Xx8rjKQug+DOLXN1S9Xs1+fYPpsM9ulLMdM7YSQ+NxxcbeKSXGlsLY4r38XnQdECCFJwhZ8tgg0LZtPyoLdnsly7ScWJqLjimsx8/UIrrLZxz4CVxlHlxFCcgeZAIPP6h7U0g+FtQWi1r8e1j+oEUJIaTHFnOtomssXxUzRa5elLmVXPa5levxsZRztchyTMXUdCSHZ+cPN/bW2qhQorB1gaTzsZU8IIUkhF5GXSfCZ/e2ybWabXQZSz2Y+xK35fNnK5hHk0k+OYUQ9jxCitJbq1tm9AlpaobAOoX+fDvoPgvnWhJBSYYu3XEWd3c91XqbHMPvbZRHLps9Vz8VcwjvscUy/q2wfbZ+Jq78cbZ+J7XP1IYTsARoKWqrSoLDOAP4gJt91OlcKIYQUHVO0hQk48eNoll1HE7PNZdIm2D7pZ5otknONVmc6z/Vc4hNsX7Y2l888grA2WXrP1ZcQsgdopv9368kVKaoBhXUWunZqrqaOGqRuPPuQwEMIIcUjH+GWqa+02UcXZlsu59n9zb7ZzOwnmH4bV5vty3ReHHw8BiFpBhvhPX/P2apv99aBp/KgsM4BJN0Pu+wY9eJdp+s/GkIIKTWZRKSQSx8bs2+m8+ETs+umIQIdZuZ5YWWzbmP67HZXfyHTY9qE9cnlXEIqBaymhjv8o4YNqPidoyms8wDRa/zRQGAzgk0IKQWFEoP5PG6c12CCPpke0069yNRXsNsy9RV89SGk0vhW/w5aE/3l3vNUt1qNRGq/t7ileXR2ffypmv1OjZo6Z4363asrA29p4JbmhKQLEXKmoDN9mdpBtj5hvkL0DcO1hTiwy1K3jyCsL3DVBSmbfTL1zdTH9BFSSJKwpTnu3J/ep606tkebiohO57ulOYW1R/AHP3/JBjVzwTr1+uKNqmbbJ0FL4aGwJiRdZBKq2Y7AR1+QaxvEpd1m1sPAeXKuqyy4ypl8UfrE7UtIoSm2sMZExOMPbaaO695SHdK2iV46r5LWpAYU1gkCEe2VNVvU+k271NqNO1XNhh1q1fo9H5Bv4U1hTUj6EGEadgTZ+rj6gmz9XX1Bru35YotTl3C1jyCXfrn0AWFtufQlpBgUQljL3LEmVfupww+uVg3r7as61Yro5tVVFZ8vDSisCSEkJYQJ2jAha/bJdASucr79gFkGdj0fbJGaTchmao/aH4S1ZepLCEknFNaEEJIybEEbdgS5tIGwc2AQi2YZK3iIgAwrC/JYUbAfK1MdZXl9Uv7Slz6fj+/q62q3+wlme7a+hJD0kq+w5qoghBCScGxh5zraZdvMNikLpk/Ep1k2BandjmOhTJ7HPAIpy/NLWQjrK4jPPNpl02cT5ieEkM+/aQghhCQWEXNhxzBc/UxfLmVgimgRqa5+4oticr4cpWw/t9nmKrvMbJeyeQRmWcjUnxBCbJgKQgghZYSZaiHlXH3A1Q7C+oNMbcDli4stYPOp51OO2k4IqQyYCkIIISkmTPyZZfMI7HbbxC+YfmD3C2u3LRdc58HsNiFT3dUmR5ffJOw8ObrOIYQQG0asCSGkDAmLIks5rB1kOxdkOkdw+XwSJmZNv90n37aw/mFlQkhlwVVBCCGkQhGhGyaQw8og3zpw+XwSJmhtf6Z6rm2ZziGEVC4U1oQQUsGYYjesDHJtE3L1+SRM4Lr8mYRxpnqm8wghhMKaEEJIXsI5U1/g8gmZ2uISJnRz8dt9wuphj0UIIYDCmhBCSCiZRDXIR1gXUlSDMNGbqz9bnRBCskFhTQghJGfiCGtQSHHtW1gTQki+UFgTQgiJBESyS4xi6/Iw0D9Te1SwEUyYaJcNagghpNBQWBNCCCkqvqPWjDQTQpJCvsKal/2EEEJiASHs0wghpFyhsCaEEEIIIcQDFNaEEEIIIYR4gMKaEEIIIYQQD1BYE0IIIYQQ4gEKa0IIIYQQQjxAYU0IIYQQQogHKKwJIYQQQgiJjVL/H6leWy4+WvIeAAAAAElFTkSuQmCC;" vertex="1" parent="1">
          <mxGeometry x="140" y="384.65999999999997" width="73" height="25.34" as="geometry" />
        </mxCell>
        <mxCell id="1SWu9gg4s54Sxi2x8I6W-10" value="client.csv" style="text;html=1;whiteSpace=wrap;strokeColor=none;fillColor=none;align=center;verticalAlign=middle;rounded=0;" vertex="1" parent="1">
          <mxGeometry x="180" y="296.6" width="110" height="30" as="geometry" />
        </mxCell>
        <mxCell id="1SWu9gg4s54Sxi2x8I6W-11" value="credits.xlsx" style="text;html=1;whiteSpace=wrap;strokeColor=none;fillColor=none;align=center;verticalAlign=middle;rounded=0;" vertex="1" parent="1">
          <mxGeometry x="186.75" y="340" width="110" height="30" as="geometry" />
        </mxCell>
        <mxCell id="1SWu9gg4s54Sxi2x8I6W-12" value="rates.json" style="text;html=1;whiteSpace=wrap;strokeColor=none;fillColor=none;align=center;verticalAlign=middle;rounded=0;" vertex="1" parent="1">
          <mxGeometry x="200" y="382.33" width="110" height="30" as="geometry" />
        </mxCell>
        <mxCell id="1SWu9gg4s54Sxi2x8I6W-13" value="" style="shape=flexArrow;endArrow=classic;html=1;rounded=0;entryX=0;entryY=0.5;entryDx=0;entryDy=0;exitX=1;exitY=0.5;exitDx=0;exitDy=0;" edge="1" parent="1" source="1SWu9gg4s54Sxi2x8I6W-1" target="1SWu9gg4s54Sxi2x8I6W-3">
          <mxGeometry width="50" height="50" relative="1" as="geometry">
            <mxPoint x="310" y="360" as="sourcePoint" />
            <mxPoint x="360" y="310" as="targetPoint" />
          </mxGeometry>
        </mxCell>
        <mxCell id="1SWu9gg4s54Sxi2x8I6W-14" value="01_init_schema.sql&lt;div&gt;&lt;br&gt;&lt;/div&gt;" style="text;html=1;whiteSpace=wrap;strokeColor=none;fillColor=none;align=center;verticalAlign=middle;rounded=0;" vertex="1" parent="1">
          <mxGeometry x="440" y="326.6" width="110" height="30" as="geometry" />
        </mxCell>
        <mxCell id="1SWu9gg4s54Sxi2x8I6W-15" value="storage layer" style="text;html=1;whiteSpace=wrap;strokeColor=none;fillColor=none;align=center;verticalAlign=middle;rounded=0;" vertex="1" parent="1">
          <mxGeometry x="400" y="250" width="110" height="30" as="geometry" />
        </mxCell>
        <mxCell id="1SWu9gg4s54Sxi2x8I6W-16" value="" style="shape=image;verticalLabelPosition=bottom;labelBackgroundColor=default;verticalAlign=top;aspect=fixed;imageAspect=0;image=data:image/png,iVBORw0KGgoAAAANSUhEUgAAAVwAAAE3CAYAAADmJfm1AAAAAXNSR0IArs4c6QAAAARnQU1BAACxjwv8YQUAAAAJcEhZcwAADsMAAA7DAcdvqGQAACzCSURBVHhe7d0JfBTl3Qfwf+5zc18kgSQECBAicqpQ8UClaotWW/CoFgUq2Gr1VWtrXxVtva21tVWot2+xolUBT0DqVQGh3CQECIQk5L6zOTbJJrzznzyLEUkyyc7Mzsz+vp9Pmnlm8xlpsvvbZ//zHD719fXHSYGoqChx1L+GhgZxNDBcc2BqXPP48Z4/sY+Pj/wdvMPJf3e8jpTR8pq+8v+CZfCLzPVCc+EXHMLW+5z8d7fZbBQcHEwBAQF4PngIAtfE/Pz85BdQWFjYiXdQhCv0pffzJTIyUv7ObT4P+kDgmggHaWBgIIWGhlJERMS3eiwAg8XPG37+8POIn0/8vOLnF96wteMjffxUVMNVWq9QWv9guObAXNfkPxNeCKCXzs7OE1/9RQRem8q4rokergG5erL8kc8FYTs4dc3H6HDV5hNfVU2HxSOgBPd+ucfrKj0EBQWRry/iwl3o4Sqg1zX5Sc5fHLZW19nVTsW1O0SLqMaeSx1djfKxo+uY9HiJfNwXP59CcaQeZ3ey9MYWJFrf5eeTQKEBmfKxr/RzSZFT5GOWHJVNIYERomVdTqeTOjo6TvR88XpXxnVNBK4CWl6Tew2ukLXKzQvuTdodVdTkOEbNjmIpyJqozZkrvUDbyd+3TPyUdTm74sjH10ZBfqMo0C+eQgISKDpslPQ9kpKjx4ufMrfu7m45dLnnqxRe7whcRbS4ZktLi6l7s8U1O8nhbKTKpu1Sz7Sa2rsKpFdhifSm4RQ/AX3pPu5DxymdAvyGU7BfKsWGTaCggAjKTDhL/IS5cIQoKXkhQxC4iqh9TaVPUCM4Ur2N6lsKyN5eQK2duxGqGnOFcbBfFoUFjqI421hKj5tGfr7+4ieMyxUlfT23kSEIXEXUuOZAT0ZPa21vouK6HVRt3032jt3SR8YiqQem7P83aK+jK4j8fNLJFjSFYqQe8fDoSRQRmiAeNZ5TdSqQIQhcRdy5plGDluusJXVbqa51O7U7dyJcTYhDONB/CkUFTaaU6KmUGpMjHjGO3sGLDEHgKjKUaxotaDlgC6s/pXrHJunftod8fRT92cFEuruP03GfkRQZdK7UA55JI+ImiUc8j18Pdrtdvtk2ECtnCAJXgcFek3+lng7aprZqOlqzmSqbP6UO5zby920Tj4C34Hqwr890ig09i0bGn0cx4aniEc9pa2uTh5X1FztWzhAErgJKrunv7y8PEPdk0PJg/0OVH1NNy1vk71cjzgL06Oy2UVjAOZSVON+jw9O6urrI4XDIw8pOxcoZguUZFRjomp7s0XKp4EDFampsf48CfO3iLED/nN0hFBow26Ph29frxsoZgsBVoL9reiJs2zqaKLd0DVU0v4iQBbdx+EYFX0U5qfMpIiRenPUcK2cIJkcPkasSo2fY8mSDDftvp88OnEu1rU8jbEEVXN9v7niZNh/5Pq3LvZkOVnwmHtGPwsqm6SFwh0DvXu3u4rX0/p7ZtL9yEXV3f0G+vp4pX4A3+JoKa++gD/Z+j74+/IK85oUe+PXkDaGLwB0kPcOWg/a93edShf0BjJMFXXGvt8HxHG3InaVb8LpeV4NZn8FsELiDpEfY5pauOxG0gf4oG4Dn8DTu3sHb1a39tO6QkBD5y4oQuAZS23xM+ih3FR1ruAdBC4biCt4P911Mx+r2iLPa4V6uFUMXgTsA3oJEa9xr+PLgn+nro5dJH+UOibMAxhPoV0e55TfQJ/t/Rw5nqzirDSuGLgK3Hxy2WgduQ0s5fZQ7l1o7XyM/3AsDk+jq/pg27p+teW/XaqGLwO0Dr1Wrddjy0odfHZ5LAb6V4gyAefj7dtDe0gW0s/gdcUYbHLp6fNLUA6b29kHr0Qg7i9+iisZHMMQLLCHQ7wd03thl0pG+z2ez5RJ6uKegddjuO/YhVdkfRdiCZXR0vU9fHHxUtLShsG9oaAjcU9AybI/V7aWS+v8VLQDraOv8l6blBX5dmj10Ebgn0fIPyksm7jq2ED1bsKyKxj9QWX2eaKlPj3HwWkLgnkTLP+j2or9RgF+XaAFYD3cm9pQ9KR1p13Excy8XgduL1r1bR+d7ogVgXT60W9NerpkhcHvRsne799gq6d1fNAAsLrfiBXGkPjOXFRABgtYfU5o78I4P3qOjU9vnu1nLCghcnTi7DosjAOvz9anSZaEbs0Hg6sWnRRwAWJ+vry85OrVbgMmsZQUErqD1H9DXx/M7pgLopbvbh8KCokULXLCnmYS3k46JjhQtbXx2YBm1OzFKAbxDNw2ji7PfFy1tNDY1U2REuGj1zyi5hB6upLqhQxxpZ0zCPOl/zXt3FWAwYoIvF0faKa9pE0fmgcCVFDSden98NfFW1MePp4sWgHV1dfnT5PSfipZ2WtrNd1MOgSvUNmj/bjkh+X5xBGBdcbZfUoCf9sspVjRq/8lUbQhcod6u/R8vNSaHggPmixYMRmtnOzV3nPqrzF4/5K9TXc/1BYN3nCbS9IzrREs7za0d1NBpvrG4uGkm+aqolZwNTrrsnBHijHa6j3fR+rzF8vRHb9TW2Uldx7vl46b2ni1aurq7qcXpkI+Zs7ud7J3K/+Z6CfOPokC/b3aUDfELlHpy/vJxeECIvI4Ar0sUGmDdXWf74+yKowvHvUOBAWHijHZ2Haih3KpmuvZsZWU6o+QSAlfCgfvMmlJ6757JFODvJ85qh7ecXp/3M8vtX+YK05ZOhxyizZ2t0hsMkaOrhdqczeKnvEegX5gU0j130SMCQ3u+B4VaMpQ7nDY6L+ttCg+OFWe0dd9L+yhrdDgC16yB+8PXimjLjZk0PTtBnNUWh+4XB+4k5/FN4ow58Ef7dmeXFKDt8rFT6rE3d9RT53Hz1dM8zc8nQAriGDmAwwNCpYD2p2D/QAoPNFcYd3cn07lZKykkMEKc0VZlbSvNemIP3XtpEv3UZIGLGm4v727Sb2+xAOmj6ezxz1BU8FLpCdvzEdtIOrqc1ORwyHXOw/UVtK/6CG0u20G7q3Mpvz6fiuyFVO0oo/r2SoTtEHUd75R/f7WOSvn3eajhEO2tyZV/z3uqjtDBulL599/kaCWHU/uRNEMR4Pt9mjNhtW5hyz7dYd49ABG4vTya30wFJY2ipY8zMhdR9rCXqLPbJs7ozymHaysda6ql/NpS+QW/vXIP5dblyUFQ1VZmyJqqlbU4G04EcW5dPu2s2iv/XfjvU9JYS/VtrfKboqd0H/ejJNv9dP64h6QeuvZlOJdGezst/0+1aJkPNpGUfH64ic57NldeMnleQiC9cEsO2UIDex7UCZcYthz+KzW3r9R8RwguBbR0OKipo00K0iavrK9aBdeJIwMiyRYUQmEBwbqUI3x9zqPvjbpP114tczq76PF/HqBXc5vk9iM/GUnnZyp7nRoll9DDPcmbVR20cn2RaOmHSwxnj7mDpqW/S13dWeKsOrgnVNNqp4K6CtpavlcuCxQ0HpZ7rghbc+voapFLO0ekv6erHJFbXUyVLY3yTUw18SiEcYkv0IXjn9Q9bNkXOyvpNRG2ZoXAPYWlX9bQ1twq0dJXnC2NLsl5nbISnx9y8HJNmEsE/NGTa4FcHuD6IL8wuW4I1tbUWSMH8K7qvdLf/gAVNlTLJQgeOTIUHLTDox6mS09bRyPiJomz+ioqt9PSt4s13LhHHwjcPix9vVC+G+op6XGTBxW8/GKqbWuWe7FfV+yS637HWorkWiB4L+4BV7SWyDc6t0rPC64B86cdrtsPpLM74UTQjk+ZI87qj+u2j/3LGutJI3D7sMPRTT/7Wy5VeDB0mSt4p4x4R74jzCubuXBPlnsuPIpge2UuHaw/KPdiAfrCoyL408426VOPK3x793zlETM+M2h0/HP0g5yPPBq0jMP2nlf208bSbybGmBkCtx/rGp20QApdT/Z0XbjUwHeELxj3FcWH3UnNHTPpv1LIcs+Fa7EoFcBgucKXe75VLaMpImgxzRy1nuaMf4ZGJkwXP+U5HLa/lcL2E4uELUPgDoBDl3u6RghdxjfXJqdfTVdO+gv9amYFXTRyDSWFLhSPAigX7j+HZg1fSYunFtB109+gs0YtoYiQePGoZ7nC1io9WxcErgKu0D2k8xjdgUSExNCMzLm0ZOYL9KsZlQhfGJArZG+cnE93nvcxnT/2GkqJzhSPGgN3bqwYtgzjcCW9x+EO5MMrh9PFM4y9XU59SxUdqtpBh2u30oF6LAnp7YbbbqVx8bMpNSqLRsSqO+RQbf/NraY73yyk8vaBR1SYcRwuAlcymMBly3Ii6I55oylc58kRQ9HR1U6ldQVUUr+f8qo/porWF8UjYFUxwfMpK/b7NDL2dEqOzKCwYG23j1KDo91Jb24sooe+UD6LDIEr8YbAZXMi/emvN4yhUcON/2Turamtjiqbiqm8sYCONmynI42PikfArLgHmxF1hhSuoykxIo2iw/RZgEktXEJ48l8FtLZwcPdJTBm4WC3sm9XCBhO4LqvnptCcM5MpOKhnXVSz6ep2UrW9lErrD9GxpjwqatxEdY5V4lEwGq7BpkedTxnRkylJ6r3GR6R+a41eM+Gpupv2VNF9a0oUlRBOZsbVwhC4EncCl/H6C7+5LI0mjY0TZ8yNyxB1zRVU2XiUaltLqbK5ALVgD+Cea2rEJIoLTaWU6NEUGRJHIYHaL+6th8MljbT8w6JB92p7Q+BKvDFwXbi2u+SHGZQY27PYtNXU2MuotcMu9YhLqNFRRXVtx+how7+p2blO/AQMVqDvZBoTM59sQQlysMaEDZNCNVzqvaaJn7AW3hrnjU+K6YlNNeLM0CFwJd4cuC5cZpg9LckUN9XUUtFYRB1OhxzGXcedVNywRz5/sG4VdXTvkI+91YS4x+TvyRFjKcgv9ESoxttSyM/XnKWowXKVD+5fU0JlQygfnAoCV4LA7TE52JfuvWgYXeBlwdsXHqrW7myjhtYqamnvGc/c3tVKZU358jHbV3O3ODK+rOhlFOAXIh8nhI2ksMCe511YUCRFhSaQv28AxdmS5XPejEcf7DxQS8s3lNKWanUXqkfgShC438bBe58UvN7W41VDW0cLNbb1/9GT68zObvemNXN9tD+2oChTDK0yEg5a7tE+s6GM8pq0WSgdgStB4PbtHxcl0aUzkinK5p27uoL16RG0LmYMXEzt1dFP11dQ9LId9PL7Bbpv5QOgpdKqZnpjQyF9/+Ed8rq1WoetWSFwPeDGT6tp9NN5tOjpnfT59nL5zi2A2XBvlqfi3rViD53/1D66f2PlkMbTehMErge9WOKgc18/SrZ7t6PXC6bRuzd77f8ddmssrbfB1F7JUKb2amXh8GCakxNN08fFUlqy53byBeittqGNdh+qp4921BgmYLGWggSBqx6ewfbjqbEIX/AIXuNga14NfbSrzpBLJSJwJQhcbfBiOdefEUeTx0TR2IxocRZAXVwu2HGgzrAh2xsCV4LA1R6P7b3+9CiaJoVvVloExUb1DMAHGCzeWeFQcRPlFTXRu7vqTTW6AIErQeDqj0sPl50eQ6dlRlJ6cjgmWECfeIrt4WN2yi1spM0HG019wwuBK0Hget5vxobTrOxoyhgWRqmJYQhgL8ZDt0qrWqioooW25DfQq7lN4hHzQ+BKELjGwyMfZo6yUdZwG6UlhVFKYrh4BKyGb3SVSOFaUNZM24/YLT1kC4ErQeCaw2NToign3Sb3gqMjgiy7pKSV8VCtBnuH3HvddaSJ1uY1edXEAwSuBIFrXvfnRFBaXBCNSAilUak2irQFYt0HA+CZiLWN7VRU3kxltQ4qq2unFTuVPc+tDIErQeBaC4+ImJ8dQVkpYRQe4k8p8SEUEuRPyVIoB/j7iZ8CNRSV28np7JZ7rC0OJx0qa6UvDzdjXYI+IHAlCFzv8uiUKAoO8KUJaTby9/Oh9GHh8nfUib+L66uOji4qq26ltvYuOlLeSk1tTq8rBajFlIGL5Rn1W57RG/GQtSnDe+rDrl4y45IFCw/1N/U4Yh7H2tDcs/gQf+R3dh2nTudxyi22y+cKqhyGn0BgVlgPV4LABXfdmhlKKVHf7rnwDb5A/77XWoqJCJS+Tqo3+4jvp9Dc2kmVdf0HId+I6q2hxUmrDjaLFngaAleCwAUjsElhO8y/n8QF08MC5AAA0CcELgCAThC4AAA6QeACAOgEgQsAoBMELgCAThC4AAA6wdReCab2Wg/G4VqfGaf2oocLAKATBC4AgE4QuAAAOkHgAgDoBIELAKATBC4AgE4QuAAAOkHgAgDoBIELAKATBC4AgE6wxY4EW+xYD6b2Wh+22AEAgD4hcAEAdILABQDQCQIXAEAnCFwAAJ0gcAEAdILABQDQCQIXAEAnCFwAAJ1gE0kJNpG0Hsw0sz5sIgkAAH1C4AIA6ASBCwCgEwQuAIBOELgAADpB4AIA6ASBCwCgEwQuAIBOELgAADpB4AIA6ASbSEqwiaT1YGqv9WETSQAA6BMCFwBAJwhcAACdIHABAHSCwAUA0AkCFwBAJwhcAACdIHABAHSCwAUA0Ak2kZRgE0nrwUwz68MmkgAA0CcELgCAThC4AAA6QeACAOgEgQsAoBMELgCAThC4AAA6QeACAOgEgQsAoBPMNJNYdabZb8aGU3SYv3yckRhCMba+Z+XU2TuosLJNPr57u7LfoZH1nmk2PsKfzs4Ml4+TY4IoISpIPu6txeGkQ2Wt8nFBlYM2ljrkYzAuM840wyaSEitsIrlweDBNSw+nscPDKX1YOKUl28QjQ1fb0EblNW10uLSZdhXaadneJvGIcc2J9Kf5k6NpREIojRpuo9jIIAoPVfai7M3p7KLS6lYqk76KKltp1bZaymtyikeNYViQL80dHyFaQ9PQ4qRVB5tFy1zMuIkkAldi1sCdHOxLd8xKoHNOj6eUxJ4enNbyC+tpx8EGeu3rGlrXaIwA4jebOTnRNH1crCpvNH05cLSBdh6qN0z4zk4JpmdvOV20hqao3E4X/TlXtMwFu/aCLjhgvr4xk766bwpdMydDt7BlYzOi5f/mx/dNo5UXJZEnl4d57uw4OvbrHHrhtkn0k9npmoYty0qPoqsuzKB375lK7yweQ/PH6Pd7B2tA4JrMh1cOp+d+eRpNz06g4KCe+qynJEZ/txaqBw76insm0pLLR+v6ZtNbdmYMPXjjBFq7ZCyCFxRD4JrErZmhcm/u4hmpFODvJ856l6fPjKH6ZZPlHnZibKg461nc63UF75nxg68Vg3dB4JrA6rkp9OTPJ3isN+dpXKvesXg0/eonWRRl80yveiAcvCukTx53zYgTZwC+C4FrcJ/MT6PLzhnhtb3aZTkRtP6u02jSWOMHGZd4Fs0dRatuGCUPRQM4GQLXwDZIYTt7erJoeZ83LxlG9y/IptioEHHGHE7PiqPlN42XRxEA9IbANSi+OXaBF4ctv9nwyAOz4hrzIwvG0QUIXegFgWtAPEOMb455K67XWuHNJtIWRI8tHI9RDHACpvZKjDa1l4c8GeUufH82bi2jC1epO2GEw9YM9drBaG7toF88t4+2VHeIM+rw9okP2EQS3Pbu3BRThK0WuIxitbBlPLX44evGUHIQXm7eDs8AA5mXEEiXzEwRLW1wb6uozP6tr05nl3jUc3jWmJXLKCkJ4fTEvAzRAm+FwDWQH0+NpUCVh3812Nvp9XWFtOjpneRzx2ay3bud0v+471tfgXdvlR/jn3n5/QLatLuSSiv1W9CEa9Y3/mCkaFnX1Ox4emB2omiBN0INV2KUGu6h28bTqOGRouUeXulr7X9K6cZPq8WZweOVtxbOjKdZpyecssyhRg2XJzXwOFsth341Sm86eYUNtHl/vdzefaz1RD2194pbo5NDafr4OE1LOo52J9301z2q1HNRw0UNF4aIwy1tmDp3s7lXe/OKPLfClvFqYPM+LKekh3fTr57dTVtzq8Qj6vnDpSmahC2XSTbvqaT7XtpH0x/aSQteL6QVOxvkr95hV97efeL8nR+U0awn9tDNz+yidZtL5fKL2nhyxO0/GOHRRX/AcxC4BnH9GXGqzCbjHtT9/5dPb1apGxZ/OdxKZ7x0WA7egpJGcdY9XLO+YPow0VIP//vu+vs+OWSHstYrLz5+65oSuu7pPbTrQI04qx6eGPHzScp7R2AdCFyDSE9S52Psui1lcjhqha89+uk8WrH6EFXWt4uzQ7Ns3khVpyxzr5br1WOkf99LR9z/HfCat/NfLqC/vn1AfiNT07UXjBBH4E0QuAYRERYgjtzz9UF1ep8DWfJlDV27vmLI9VteI2FcRrRouY/D9tl3C9z6N/XlmW319PDKfGpTMXS5ToyFbrwPAtcgbKHuBy6Hzvqj2vVu1TT/HPVmkrnC9rYtdeKM+rg08ac3D8pb76jlhzO9d+q2t0LgGkRkPxs8KtXS5qQdjm7RMi6u3fLOEWrhsL1dw7B1eTW3iZavKRAt93EvF9N+vQv2NJMYYU+z4388Sxy5Z+r/fk3b24wdul9dP5JmTFRnPCqPGZ752hHR+kbvXXvVxssv8o0vNfA+aZctzx/Scw97mmFPMxgitW7KXJRm7GnBPO528thY0XIPD9u65c2joqWfP71frFo9lxcux9q53gOBaxCODnVqg2eMUWfihFb+Z5Z6e7G9+EGhR0ooPI53w9Yy0XLfvGnqvAGB8SFwDaKltVMcuWf2tCS5RmpUp2Wq84bAY231qNv25a4PyuQZbGrIGWnsN0lQDwLXIKrqHeLIPbwy1b1XGnORFC4njErtmUbrro3b1Z/1Nli7D6kT+JnS74SnGIP14a9sEPuL7OLIfRNGxch7oRlt+uj87AgKCXa/nMC1279vq/PoTU723jb3pk67cInFtZ4DWBsC1yD+vV/5HU8leC+0g7eNN1R54XvZMeLIPdv31xpi+NvawlaqrFVn3HP2CJs4AitD4BrEiyUO1V68Lrzy2Ku3TaSVFyUZorebmapOqLzztefLCS65R9R5o0xNMNdGmTA0CFwD2bJP/YVS+OPqNXMyqPyeifTYFGXjC7USExkkjoaOh89puVbEYOUVq1MKiovCZpPeAIFrIA+uLyd7i/pLAjKe1fTra8bR/l+OlRf81tutmaGqLFRztEy9WrcaNh6wq1JLjlXhzQiMDwuQS4y0iSTvaXb5OdqvJJVfWE+vfnKMHs3XZ2eH5WfH0U2XjxatoeNFzy9YVSRafdNyptnJ/nvvZLKFuV8rv2vFHrkurBQWIMcC5OCmH60t1WV7G17L4JHFObr1eEeoVKPcXqDPamiDUVqtToljWJRxx0+DOhC4BvT424flFbD0oFfwJsWoU6M8VKXOeGU1Vda1iSP3xNnUWaITjAuBa0B8U+itjcWipQ9X8O5YPFqToWQB/uo81V48ZrzAdXapU4wKDMDL0erwFzYoXkj7ExXn6ys1aWycPJRs9Vx1t2tXY71fo2poVmdadliwH/Y6szgEroHxjrh8k0hvPJTssnNGUMU9E+WdGYxC3tTRCHc2T9LhVGcSRpgKs/DA2BC4Bsd35Nd8rm95wYWHkt3z07Gq9HbVWGBdrY/uamtp06feDuaHwDWBy9eW0vLVh3S7kdYbj53l3i7fVOOt3OG7mtrU3WASrAuBaxJLv6yh+17Oo9oGde6IDxbfVHvj9tNo4XDMiDpZoErjfTudxuzBg3oQuCbCkxTifr+LPtx0zCO93ShbED25cDwt8lDohoUYs4cdG6HOqI765g4jlqhBRQhcE7r07RK68+/7qMgD01w5dJ+QQnewPd2uLvdvLMlTgw14Gz9QpSFvYH3YRFJihE0kh+rRKVG0YE6afINLT1zauOiJPYqXSTx6xwRKS3Z/tbCLH9xGHzcOXDPVc2rvs1eOoNnT3N/y/KlV+bRip/LnOjaRxCaSoLPfbG+gpId304rVh1Rf3rE/sVEh9MJ1mbp3OLPijDf91d/PgN1uMCQErkUs+bJGDl4ezaBX8PIkiT+dqWxRcbtKe7aNSzbersSJMeqsE7H7mHGWnQRtIHAthkcz6Nnjver84eKofyVV6vxbcjKMtxVNSrz7bwK8zi/vBgzWhsC1KFeP962NR3tmaGmEa8dPK+jlFlepM5xNjXBT05nxgRSuwtKMpVUt4gisDIFrcfM+LKdzHtpJn20v12wo2ZypCeKob3ll6vRwkxOMFbhnj45QpY6t1hKPYGwIXC/AIwnOe/2oPJRMi7V2M4dHyFug94dXQFMj8HlomKe3Cupt5DB13gCOViBwvQEC14tw6KU+vlfu7aqJQ5C3QB9IVa06ZYVLpieKI8+bnh0njtyztwQlBW+AwPVC3NtVe0GcKaMiB/xonV/UJI7ck5UeaYjt3++aEUfhoe7/Oxrt7YPaWgfMC4HrpXhBHN7XTC2JCnZ0+GR3rSqTS7hHfc2Z8R6fdHb2aer0bncfqhNHYHXYRFJipE0k9cSrf/3z9tMo2ub+jrE8zTjjj/sG/B02PThFlQ0XeeTFuQ/tpO19zHTTeqaZGrO8XO5/aR+9cXDwtXVsIolNJMFE1jU6afv+WtFyj9LZVodK1Ckr8Ef5P16h/e7Gffn1jzPFkXt4ivSqIYQtmBMC18vtK1JnAZwwhVvovPWlejfsZkxM0GXH4ZM9MDuR0oe5vy4E231IvbIOGB8C18t9vF+dHmeLwqm7vMSkWjPguJZ72xXq9DSV4okOl89SNrtOiY921GBJRi+CwDWIz65Jp1sz9R/UX92uzn5cg1krYfWXpeLIfTzTjXca1uMG2vgIf3p8wVh5zzc1HDjagNEJXgaBaxDpw8LpsYXZtPKiJHFGH/MUjJ9VomkQgcvTjtWcbsyL6GyXQldLHLbP3TRetWUwnc4u+vN7R0ULvAUC10C453TNnAzauzRLt/3DctLVqUXaWwa3r9fGbRXiSB0cutzTHWjG21Bw2C6XwjZJxTWHt+XV0MZSh2iBt0DgGtCEUTHy/mFa93Y51KePjxUt9xQPcjUwHgdcofJqZhy66+86TdWt3ZfNTqR/3nG6qgu8c+92xQb1yipgHghcg+KtbLi3W79sshy8atcouSe4YtFYiotSZy3Xj3MbB33z59V1ReJIPbww+v0LsunzRaPlcapDNX9MOP37fybQ1RdmqFazdeHeLZZi9E4IXINzBW+dCF41Sg18jVdvGK3KljeMJz28WTX4AOHdKtSc7dYb93Z5UsAXUo/3yUuTFYUvh+zz89Jo028m0oM3TqCUBPWHnPG429++bc7tnMB9mGkmMcJMs8Hs+cUrfu053EBf5NbLw6yU4o0ff35hCk3Kiu3ZkFElH206Rpe8XSJag8NrIrx4S44qaxIowYHX3PbtenNUeCBFqjDbbiBcSvjti7mqjUxQc7abXv69rYyWvq3OOh5mnGmGTSQlRthEcqibLPLd/tqGdmprd1Jpdc9qXJX17WSXQmVUcpjcHpVqk2eCpSRqM0lg0dM76cWSod8A4uUWb583RtU3ASN6Y0Mh3b+xUrTc5+2Bi00kQXfcM+SgHpsRTbOnSx+dpS8uQdx0+egTbX5cq7DdV1DnVtiyu7c30AdfWfsm0q4DNbRMxbAFc0LgwpDxPlx/eLtQtNzzo7WltDO/RrSs5XBJI932+hHUbQGBC0P3zmclQ7pZ1pfJzx+yXOhy2C584QCVqzSjD8wNgQtDwiMTrl1foXqvjUN3025rfPTOPVxHixC20AsCFwaNF5+56YV80VLfzNeO0Cdby0TLnLhme8XzB6kMYQu9IHBhULhnu+BvufJaulq6cFURrVh9SK4Tmwn/e3k0wvyXC8QZgG8gcEGxgpJGuuJvefSxxmHrwovc/Ozp3XRUCnkz4HrtTX/do+rQL7AWBC4MiLc33yh9xJ+/PF/ecl1PfFOOt+7hyRVqbLOuBZ7QsG5zKV3yt/2Ysgv9QuAaBE9cMCLu1S6Vem0XSB/x9Q7b3ngm20//uMtQN9R40gkP5F/4591065qhzbQD74KpvRKjbCL50nnxdNG0JM0mKQwGT4H9x4Zium2L8XaU5SnKt/0gTV5VzRP4d7NhWwUt/0+1R0cgYGovNpEEN9z4aTWlPr6XHnglV57BpeYi3Urwf497kL96djfF/X6XIcOW8cy2nOcO0PzHttOaz4vlANQL/44WSW/OXKfFcC8YLPRwJUbeJp03SZyVHU2nZUZp0vPlUQel1a207WAD3S4FrBF/B0rw9kRzp8bL60YkJ4Rqui4DD4u7+5V82uzhei3vr/bgNdrudKG2zftqVLupaMrFaxC4xg7ck3EAJ0UF0oQ0GyXGBJOt1265Jy9+wzeZyk5aGPxoeTOV1jhob3HzoFYaM5vfjgunqZkRFBUeQGlJYeTv70vhIf7yerlqaLS3029f2Y9dGzwIgStB4IIR2HyIhvl/d9n2YUG+9OKiLMocHinODB2XFx5/4yCtOmjdNy4jQw0XwOC47sprG6ixVTuv1HbPtWPlhcsBlEDggtfh0F2yIo8a7O3izNDx9jv3XT+ObpkWLc4A9A2BC14pr8lJ97yyX5Wpw/7+frTkslH0u1nx4gzAqSFwwWvxDa+HV+bLM8XcxaF7/SWZ9MDsRHEG4LsQuODV+IbX8jUFqoQuu+rCDHruyhGiBfBtCFzwes9sq6e3PlVn9hM7f1oyvXJNhmgBfAObSEqMsIkkqKuvYWH9+ctlw2nOWSmi5T5eE/eqlwvwvNIINpEEMDFegGbzHvUWxzk9K44++MU4eewvAMMzAaCXBa8XUv5R5T2XgfAEC55oMT7CX5wBb4bABTjJkpcPUlG5eouec+guv2k8ZSN0vR4CF+AkPDHitpfVmY3mkhgbSs/fnC0vqQjeC4ELcAo8MeKB1w+qMhvNhRfOeWTBOJqbESrOgLdB4AL0gSdGPPT6AVU3soy0BdHvF4zH+gteCoEL0I+1ha301JsHVZsYwXj9BV70BusveB8ELsAAXs1tolc+LBQtdXDo8voLd82IE2fAGyBwARR4YlMNvf1pkWipg9dfWDR3FNZf8CJYgFyCBcitZygzzZT4WXYEBQeq309ZsVO9sb/eAjs+SBC4YARaBS4YB3Z8AACAPiFwAQB0gsAFANAJAhcAQCcIXAAAnSBwAQB0gsAFANAJAhcAQCcIXAAAnWATSQk2kbQezDSzPmwiCQAAfULgAgDoBIELAKATBC4AgE4QuAAAOkHgAgDoBIELAKATBC4AgE4QuAAAOsGeZhLsaWY9mGlmfdjTDAAA+oTABQDQCQIXAEAnCFwAAJ0gcAEAdILABQDQCQIXAEAnCFwAAJ0gcAEAdILAlaRHB4kjADCLyBB/cWQe2ERSSH44n9q6MLnXKjC11/reXJxBEzMTRat/Rskl9HCFEVEB4ggAzCDJhK9ZBK4wJg5lBQCzSIryp0A/88UXAleYkRYqjgDA6Gakh5MZC0YIXOGGKVEU7IeaH4AZXDFJWZ3VaBC4QpC/L904NVq0AMCocpJDaHRisGiZCwK3lwWTzfmuCeBNfnZWjDgyHwRuL6PjgujK7AjRAgCjSYsJpDNGhomW+SBwT/LUpUmUFOYnWgBgFHyP5Q+XJZtydIILAvckEUF+9MKVqaIFAEax5Nx4GmPS2q0LNpHswz0fFtMjG0tFC8wGM82s5azMCHpl8XjR+obZcgk93D7cf1EqXTxW+S8UALSRHBNIj189WrTMDYHbBx4m9u4NWXQJQhfAYzhsVy7OpoRwa0y9R+D2g0P3HSl0L8g0711RALPisH1dCttkC63mh8AdAIfuP+alInQBdOQK22EWWzoVgauAK3R/jDG6AJqbNMJGb9ycY7mwZQhchTh0n78ihZ66OBFrLgBoZMFZMVLYZlOiRWq2J0PgDtINU2Now43plBUbKM4AgLsig/3oKelT5NJzEsQZa0LgDsGEpGBavzAd04ABVMCL0fxjcQbNHBkuzlgXAneI5BlpV6TQi1ckUyKmAgMMGvdql54TTy9cn0YJYebbn2woELhuuiI7krb+IpNunxkrzgDAQC4YZ6OVUq92wVne9brBJpIKKL3mtoJKuvOjSvriaIs4A56Cqb3GNDI+hJb9KIPOGNl3Oc7KGYIerop4ecc1142Qywxp2JQS4AQuH9w+Zzh9dMfEfsPW6hC4GuAyw65bRtGzc4cheMGrxYf50c+/F0dvLx1JS85LEWe9FwJXQ1dPjELwglfioL1tdgK9c3MmLZQC1xaEG8sMgasDV/CunJdKpyWZez1PgP70Dtqrp8WYerFwLeC3oaNLsmz0+eIM2nBDGt0wLYFC/PHrB2uYkRFKD12WQu/fMhpB2w/8VjxgamoovXRVJpU/MIWWX5lB4xJCxCMA5pFoC5Cn4q5dmkl/mj9CHuoF/UPgelBksD/dNCOJ8u4+nbbcOgG9XjCFc8ZE0p+uHk1f/G6KPBU3MRL3J5TCOFwF9Lxmo8NJq/fW0Zp99fTuvjpxFgYL43DVxVvczMmJodkTYr+1GDhe78q4ronAVcBT12x3dtPKr0vowwPN9EG+nRxdiv5UIEHguq+vkO0Nr3dlXNfEJpIKGOGaHL6rpR4v93w/zm+g+janfB5ODYE7NLPHx9CF2VE0NdVP0VAuvDaVcV0TgauAEa/5dZGdPitoojV59bT5qF2cBRcErjLjk8No+kgbzRwTRbOkLxe8Ngc2lGsicBUw+jW598u93rV7qug/R1voYG2HeMR7IXBPjUcWcLjKIZsV7XapAK9NZVzXROAqYLZrljR00n+KWui/pQ7pq432VDjk894EgdsjLSaQclJCaFRCEJ2XnUhjpR6tEngdDWwo10TgKmD2a3IPmMOXe7/7Kttpe5mDyu2d4lFr8sbA5QVixiQG0aThoTQuOVgO2t51WLyOlNHymghcBax4zaK6dtpSbKf8yjb6/IidjtY5qFA6ZxVWD1wuDYxMCKGJI8IpIbRb3jVhRGz/my7idaSMltdE4CrgLdfknvCWombaVdpCRfXttKuslTYXNplyOJqVApeHZ6XHhVBSVCBNSrNJvddQigj+ZocEPOcHZpRrInAV8PZrVjU76VBtB+2tcFCjo0uuC7d3EW0raTVsGJstcKelhcrfuRzg5+dDZ2XF04joIEVbheM5PzCjXBOBqwCu2b+vilrJPyhU6h3b5UDmnjHjnrKnxgsbKXB5uvbpaT0bJA6z+VJcuL9caw0N8qOclOBTLvSC56cyZrsmAlcBXHNg/V3TVapgFfYO2lVULx/zDbzG9m75mH2p4tZEWgcu10yDA3quHxoUQBNH9CzckhwdKH31LMF58kd/hufSwKx8TQSuArjmwHBNZXDNgVn5mooDFwAA3IO1AAEAdEH0/znaDnCYsCMvAAAAAElFTkSuQmCC;" vertex="1" parent="1">
          <mxGeometry x="380" y="320.15" width="48" height="42.9" as="geometry" />
        </mxCell>
        <mxCell id="1SWu9gg4s54Sxi2x8I6W-17" value="" style="shape=flexArrow;endArrow=classic;html=1;rounded=0;entryX=0;entryY=0.5;entryDx=0;entryDy=0;exitX=1;exitY=0.5;exitDx=0;exitDy=0;" edge="1" parent="1">
          <mxGeometry width="50" height="50" relative="1" as="geometry">
            <mxPoint x="560" y="354.71" as="sourcePoint" />
            <mxPoint x="604" y="354.71" as="targetPoint" />
          </mxGeometry>
        </mxCell>
        <mxCell id="1SWu9gg4s54Sxi2x8I6W-18" value="business layer" style="text;html=1;whiteSpace=wrap;strokeColor=none;fillColor=none;align=center;verticalAlign=middle;rounded=0;" vertex="1" parent="1">
          <mxGeometry x="630" y="250" width="110" height="30" as="geometry" />
        </mxCell>
        <mxCell id="1SWu9gg4s54Sxi2x8I6W-19" value="" style="shape=image;verticalLabelPosition=bottom;labelBackgroundColor=default;verticalAlign=top;aspect=fixed;imageAspect=0;image=data:image/png,iVBORw0KGgoAAAANSUhEUgAAAcEAAAHQCAYAAADZMdHWAAAAAXNSR0IArs4c6QAAAARnQU1BAACxjwv8YQUAAAAJcEhZcwAADsMAAA7DAcdvqGQAAF4RSURBVHhe7d0FnBTl/wfwz8zuNSElIF0qKCpiICrYARj8UQxQ7O7u7g7sxMLCbvQnooJiYSCiiDQocQLXtzvzn+/ccwLH7c6zd9vzeb9ep/M8ez7u7czOd542bAeIiIh8yFT/JiIi8h0GQSIi8i0GQSIi8i0GQSIi8i0GQSIi8i0GQSIi8i0GQSIi8i0GQSIi8i0GQSIi8i3j99lzuWIMERH5klFcXOwZBDfaaCN1FN2///6rjryxTG8sUw/L9MYy9bBMb9lUphnMYXMoERH5F4MgERH5FoMgERH5FoMgERH5FoMgERH5FoMgERH5FoMgERH5FoMgERH5lmE71HFEuhMZdScxCpbpjWXqYZneWKYeluktm8pcXVLKmiAREfkXgyAREfkWgyAREfkWgyAREfkWgyAREfkWgyAREfkWgyAREfkW5wl6YJneWKYelukt08qsqKhw/ptVWLhwAX7//Q+sWbMGJSUlCIVC7uu5uXkoKMhHUVERttqqLzbeeGMnXeC+Vhc/Tz3xLFPmCTIIemCZ3limHpbpLRPKXLJkiRvopk6dikWLFqtcfYWFhejevTv6998W+fkFaNmyhZvPc6QnnmVysjwRkYaysjJMmjQJd955J55+ehxefXVCgwKgkLJ++eUXjBv3DB555BGnvKcxf/58hMNh9RuUTEZxcbFnTVA3SutGaMEyvbFMPSzTG8vUU7dMy7Lwyiuv4IcfpkOj0axRcnNzcdBBB6Jnz54qJzKeI286ZZrBHNYEiYjqs3DhQtxyy634/vsfEh4ARVVVlRNwX8Xzz7+QlP8f1WAQJCKqY/r06XjggQexatUqlZM80jQ6fvx4BsIkYRAkIlrHiy++6AShF92m0FSZN28+a4RJwiBIRKS89dY7bv9fOliwYAEeffRxdyQqJQ6DIBGR45133sWXX36hUulh5coVePDBh7Bs2XKVQ/HGIEhEvjdr1u/4+eefVSq9yNSJF154wZ1aQfHHIEhEvrZkyVK8+eabKpWeJADKyFGKPwZBIvK1t99+KyMmqi9evDim+XSkh0GQiHxLmkBXrFipUunvgw8+VEcUL1w71APL9MYy9bBMb8ks859//sE999ybUcuVGYaBs846011/VAfPe3RcO5SIfOu5557LuPU6pc4ybtw4zh+MIwZBIvKd8vJy/P33PyqVWWTrpj/+mK1S1FgMgkTkO3PmzFFHmem7775TR9RYDIJE5DvffPOtOspMsr5odXW1SlFjMAgSke/Mnz9PHWUmWdd00aJFKkWNwSBIRL4iO0OUlmb+6itff/21OqLGYBAkIl95++231VFmmz9/AUeJxgGDIBH5ypo1a9RRZguFQigpKVUpaigGQSLyleXLV6ijzCe70VPjMAgSka9k024MHCHaeEZxcbFno7Lukja6y9kIlumNZephmd5YZg1ZIea2225Xqcw3fPhwDBiwo0ptiOc9OjOYw5ogEflHtg0kKS7WDx5UPwZBIvIN08yuW17bthurI2ooBkEi8g0JgtkUCFu3bqWOqKEYBInIV4qK9LYhygT5+fnqiBqKQZCIfGWjjVqqo8yXl8cg2FgMgkTkK5tttqk6ymz5+Xlo0qRIpaihGASJyFeyJQh27doNgUBApaihGASJyFeaNm2KYDCoUplr++23V0fUGAyCROQrhmGgTZvWKpW5evToro6oMQxbY/ao7mx+3Zn8gmV6Y5l6WKY3lrm+d999F5Mnf65Smad9+01wzDFHq1RkPO/RrS4pZU2QKG5CVUBlKeyKNbDLV8EuXQl7zTLYq/+B9e8SmKUrYJYVw6xYBaOyxP0xq8thyH9HSbXDDjuoo8y0yy47qyNqLNYEPbBMb1lVpm3Brq5ASfFyYPlfgHNsuIGqEiheBGvBdDd4WVU1eWZYBT7n9+S/bTDDeR7NyYcdLEAgNx/ILXTSeTAKN0Jw891qjiUvtwDIb4LAxj3d319dWg7b9O7f4nnfkKwhumJF5u0o0a5dO6cWOMZt1vXC8x6d1AQZBD2wTG8ZWaYTwOySlQgvmYnQ9HdhrVwAW36c2lvGyS2C1aID0KobzB6DYHfsDSu/Oey8JuoXeN7rs2DBAowd+4BKZY5LL71EHXnjeY+OQVADy/SW9mU6tbTAmqXIn/URwn//6QS+32CvWqpezGI5BbCcGqPRfDMU7XcsjGZtYeQ3VS9G5qdr6fHHH8cff8xWqfTXqVMnnHHG6b46R3XFs0wGwXXIx1Bf84If/vZIMq1MI1yNwPLZ7r/x7xKE50yFufAX53iB+zo5n1HBRgh03hqBLfaC2bqrExSbwGjVBUbe2knXfrqWZD++Bx54EEuWLFE56UvuTxdeeAFatWrlq3NUVzzL9G0QlDlCs2bNwg8//ICFixZh8eLFCIVC7sK6MoeoZcuW6Og8ce23zz7u2nxse48uZWU6wc5yanRlnzwBe+kvMJb8Clhh9SLFwmzRCWavgcjd6UisyWvtq37G0tIy3HrrraisrFQ56Wnw4MEYMmR/99iX33clnmX6LgjOnz8fL738ckxPfUVFRdhmm22w/377obAw8sK72XRh1ErLMqsrYM34GpXfP4Pw7KkMeglgB/Nhd94W2PpAoEt/WPnN1Cvry6brc/bs2XjsscdVKv106dIFp556yn8P5L75vtcjnmX6IghKDe/333/HO++8g6V//61yYycXX2endjh06FD07NlT5a6VTRdGrXQoU6YbWPOmIzR7CsK/fQpr+bzGjcKk2BW2AnrvDmy2G6y2vWHnFsF2vg/Zdn3KQ/Ijjzzq3jPSya677uLed9ZtkcrW77uOeJaZ9UFwlhP8nnrqKVRVxXcelgTBU09Z+1QmsunCqJWSMp3L0VyzFHnfvoDQjImwS4vVC5QubDMXdvcd0WS7o2H23RnQWL8yU67Pr776Cq+//oZKpd5WW22FUaOOVKm1sub7rqSqTAmCWTtZ/scff3Se6h6JewAU0nRy5513IhxmU1y8GFVlML99BcH794f54MGonvYyA2CaMqwqmLM/R9mLJ6L0lkGofulWd0GAbLD55pujT5/eKpU68oB92GGH1RsAKb6M4uJiz5qgbpTWjdAikWXKQJfrrrsOVdXVbjpRWrVsiZtuugk5OTlp87d7Sbcyw/Ono+qdWxBeMN2tBVLmsjptC2PYFQg338RJrT+YLNOuTxk498wzz6asaXTvvffCdtttp1IbyrTP00uqyjSDOdlXE5QVIG50AlOiA6BYsXIlLr/ySneYNcUgHELo5/dRevcwlD94mBMIf2AAzALmgu9hPPR/CNw/BIFv3nbCYOae08022wyXXnop2rbdWOUkh2yNdOCBB0YNgBRfWRUEpXny1ttuQ3l5ucpJvOXLluH2O+5QKYpGlhur/nYCSm8ehIrnz4H99x/qFcomRulKGJ/cgMBde8D46FZ3zdRMJBvWnnvuuTjssJFJ2bevQ4cOOPPMM7DFFn1UDiVDVjWHPvDAA/hzzhyVSq4TTzgBvXvr9SX4qdkhULoMxqKfYU8dB2Pp7xzZ6VNmy07I2W4Egs6P0Sxy7Spdr/mysjJMnToV06ZNc8pbpXIbT+Ys77jjjhg8eJC7YIcuP91D6opnmdIcmjVBUOb/ff311yqVfIUFBbj++uvXGzEaiR8utsCqRcDrlzmB7zeVQ1TDbL8ZcvY9DzmbDXIew9dvjMqEa/6nn37C//73aaNWmZE5x337bondd98dLVq0cPMy+fseSbqXmTVBUJ7Srrr6alhWamsZo0ePxrb9+qlUZFl7scn0hjlTYH5yN7CSS5VRdEZRC+QOuRg52xzgPDXVrFCTSde8dLv8+eefmDHjVyxb9g/WrClRr25IBs917twJ/ftv526G27x58w0emDPpb9eV7mVmTRB85ZVXMPWrr1QqdZo0aYJrr7nGszaYjRdbYPHPsCdcnLH9P5Q6ZqvOyD/kJpjdts+oa74uac6UKVkyUE6OZRlG+WndurUbBL1k8t8eSbqXmTWjQ7/7/nt1lFolJZGfBLOVNetbmM+eCOOZExgAqUGsFfNR9sholN2xD8w/p2Rsv7E8/Obl5bkPw7IGsSy5WFBQoBUAKXUyPghKtE/EhPiGiuWJJmOVFCP0xTMou3UPlD01Cuain9QLRA0nS+KZr5yL4H37IfjlYzA4iIqSIOODoGyMmU4+/vhjdZSdwn9+hdLb90TFOzfCKl6kconiqHwV8PnjCNw/FOZfMthNf9QkUawyfu3QV199Fe+9/75KpV7nzp1xzdVXq1T90vnzXNe6ZZol/wBvXwtz3rcqhyg5jDbdUHCwc+312FHl1MjE71E0LFNPPMvMirVD58ydq47Sw9+N2KkiHRmVpQi8eTnMsQcwAFJK2Mv+QtljR6Ns7AjY/y5WuUTxkfFBsGTNGnWUHmRjzqxYRs22EJx0JwL37wdjZnY38VJmsBb+gtJbdkf1F+NUDlHjZXwQTKdBMbUyPQjaZf+i7IGRwFcvA6H0+3zJ3yrfuQll9x4I859fVQ5Rw2V8EEzGmn6xSsf35MVatRSVH96Fkiu2Qul1OzpP3T+rV4jSj7VkFswnj0Xw1p2QM/5MBP6dr14hik3GB0FZriyd5ObmunOFMkaoEuVPnYiymwej+tNH3DRRxrAt2POmwXj4UAQnnMNpFRSzjA+CTZs1U0fpoU3r1uoo/dlrlrnbGYVnTVY5RBnsj6nuhszGgh9UBpG3jA+C2267rTpKD926d1dHacx5Wq5+73qUOrU/ewWbkSh7GGv+RuD5UxB47RKYdljlEkWW8UGwdgX2dLHnHnuoo/RkLfgDZXcfiMrJzzkJ3iQoOxm/fwrj3v0RKMmuKUsUfxkfBLt26aKO0kPbtm3VUfoJ/PIpyh46CNY/3MyWsp9RsQp45HCEZ09ROUQbyvggKIvUtm3XTqVSSxbKTcdBMQZsBGRT23cvY+2PfMWoLkP548ei6tOHYVeVq1yitbJiK6XZs2fjwYceUqnU2XnnnTHi//5PpSJL5ucZXvgTKp4+BXYJd3ggf7MDucDBNyDca7DK2VC63+tqsUxvOmVmzVZKPXv2RLsUN0MGg0EcMGyYSqUB20b1+JtQ/sBhDIBEDiNcBWPCRTBfPhcGOJWCamRFEBRHHXWUOkqNQbvu6s4RTAuhSpTeNwKVP45zR4IS0VrmnCkwnj/D7SYgypog2L59ewwaNEilki+V/+/1hKtRNvYQ2EtmqAwiqstc8B0Cj46E+U96bcVGyZc1QVAc7dQGO3XsqFLJs++++6JZGkzat//+3V1g2Fr6u8ohoohWzocx7kgE5kxVGeRHWRUETdPE5Zdfji222ELlJJasETpq1CgcNnKkykkNo7wElR/eg9J7D3ZXgSEiPW4/4cvnIPjSmTBL+N3xo6wKgkL65c4/7zz06tlT5SRGbl4eLrv00pRPjjfnfYPAg0NR/elDnP5A1FB/TYP5wAEIzf1OZZBfZF0QrHXxxRejZ69eKhVfzZs3x9VXXolu3bqpnNQIzJoEc/yZQHWFyiGiBrNtVDx+DCfX+0zWBkFpGr3skktw4oknutMX4qV1mza49ppr3IE4qWTO/w7GW1c4RxzhRhQ3oSqUP3Ecqr95VWVQtsvaIFhrpwEDcPddd2GH7beHYRgqN3ZNmjTBSSedhFtuuinlg2ACMz9yaoBnuCNBiSjOnBph5YTLUf78Oc4xuxiynWE71HFEurP5dWfyi1SUWV5ejjlz5mDatGlYtGgRip3fj/TnS+1R1iWVVWC6OP/2eh/J+Ntl0EvZ+HNhz/lG5RBRQrXsBPvQuxFu0Ull1Ej3e10tlhnd6pJSfwXBWrVlVldXo6SkBKtXr0Y4HHYDn6z9KeuRSs1PpMvfHvrpfVS8eD4HvxClwoHXIdRnX5XIvHudDj+WKUEw65tDo5EFr2UrJqnpde/eHZ07d3Z3gagNgOmi8oljUfHCOQyARKny1lUIPHcyd67PQr4OgmnPqaSXP3cOqv/gaDWiVDMWTof55GiVomzBIJjGZAuY8C/vqxQRpZqx7E8EfnlPpSgbMAimKfOvqQj/+ZVKEVG6MN65FlVv3ahSlOkYBNOMTOIITn4Q5kvnOEecA0iUjqqmPIOKD+5QKcpkDIJpxpw0FpgyTqWIKF2FJj3m9tlzu7LMxiCYRgIzP4Tx1bMqRUTpTvrsy2XktvdMM0pTvp4nqCNZZQZmvAfj7WtVitKVHciFkd/EOWF5sJzjYEEhjJx8ILcIyHFec/JcOXnOPwznMTMAw6xZtq+qqgqwQk7FQU11kR0M5Ovn5KGqwvkpc1cBCtjV7sbItpNnV6x2l/Ki9BbYYh8UjL7POeUbrkrFe523VJXp+8nyOpJRZuCXd2C8c71KUTIZ+c1gtGgPo6gljIKN3H+bvXZCZV4LWDmFTtDLgRHMhW3muIHNNgLqv6yRlGvJCYy2BEL5cQKnXS3BsQRYOgtlc76HXVYMo3wVsGYZjNVLuaB6igT77In8o8Y6F9X6DWy813lLVZluECwuLvYMgrpvUPfNCZZZI/TDW6h46UKVorhyamFoujHMlh0QaN3NXfHDzi2EFSxwam5OgMspgB2UGtuGMvr6DDu1zcpSwPmxq0phLfsLZdPfh7FqMbBqKQzZN48LLySEtdlesIavP3I0o6+lemRTmWbQechlEIwucWXaqJw4FtWfOE+OFDM3eDVrB7tJaxR06wejbS8gvwkC7fsABU7tzqm9QX7WwetzLcOpXbobypaucF5cBFOC5tLfEV78CwIlf8P+dwkDZQMZg05G9cDjVCr7r6Vo0r1MBkENiSqzavITqHrvNpVD0VhOoDM22QJGr8FAhz6w8pvDKnDOi2p24vXpLeYybRt22b+wS1Yg/NlrqF49E/bCn2FXrFG/RdHYQ69EuO8w95jXp7dUlckgqCERZTYtmY/yh45wm61ofdIvZzqBLtSmC9B3OKzClrDzm6pX68fr01u8yrTLVzmBcSXC835A+fR3YS78EWBgrJd18A2wNt+b15KGVJXJIKgh3mWaK+bAfPp4oLpM5fib0bwdAj12Qs7A0TBbdoRRWPN581rSk/oybZilKxFY+hOs6e/BmPdtzShXci5uw92Gqem2+6uM6Hgt6YlnmRIEOU8wiczKVTCfP83XAdDILUSw734oPHMCii7/AkWXfob8kbcg0HHL/wIgZRIDVlErVPfYHeERtyN03qewzvkIOOxe2F23B2T6iF/ZNoxXz0d4wc8qg9IRg2CSGFYY5jinBlhWrHJ8IrcIdveBsA6+EfaZ76Lo2u+RP+pemB2coNe0jfolyibSZxvqNgDhw8cidP4kWGe+hzznnMsUAiOvSP2WTzjf+/LHx7gjdCk9sTnUQzzKNMv/hSF7ka2Yq3KyVEEz2G16wNj6AFhN2wLtt4CVU6BerMFryVtWl2lbsMtXI7x0llPAElR//wasBb/ArszufkWjsDkKL/wYhvMdiYTXkp54lsnm0CQwK0phPnJI9gbA5u0R3vb/3Fpe6OyJCB/5MEJbDIXVebsNAiCRjOiVZu9g9x0R3PZgFJzwNIqumYbC8z9AYMBo53raRP1idrHLVqH8wZHuQwClFwbBBDO/fjrrRs+ZbXsh//C7UHTlVDS5dBLsfS5GuKi1epUoRk5gNNt0Q8HBVyJ06uuwzv4Q1kE3wi5orn4hO0iTaPn481WK0gWXTfPQmDLLnzsX4SzYgNNu3R0YcBTsbju6gyDq4nnXwzK91VemXboSoVmTUf3FM7AWz1C5mUu6DKzjnk3NEnxR+LFMWTaNNcEECX3/ZkbvCm+26gzbeRoPnzMR4RPGI7zlkHoDIFGiyXquOdsejMKzXkPR1dOQN+RiGHlN1KuZR3anN968QqUo1RgEE6B62kuoeOUS58izkp02jKatERx4FPLHPIyiq75G4YVO8Ou9F+z8yB35RMlmFDRHzqDjUHTtt7DO+wT2YfcAO46C3SSzRhqbv/0PgUlj3U20KbUYBONMaoCVr12VMR3g5hZ7oujSySi6/EvkH3gFgr1353w9ygAGrNwmCHfbCaHdz0L4jHdgH/M07I5bq9fTn+wdGpw1UaUoVRgE48pGxYTL1HH6klpf3tZj3IEthUc9CKN5W/UKUeYKt+uN8OhH3SZ8e9iVsGWaTpoLf3y/hHOVolRgEIyj6m9fT+/1QDfZEoUXfuTW+nKOuMztayHKNtKEH95yGMKnvwl71MMwW3ZWr6Qfc83fCPz4jkpRKjAIxomstl/5Wnp2dssTsXXoXQgd/QTMVl1ULlG2MxDu1A+FF01E/uF3pG8w/OxBGDa3rUoVBsE4qfrscXeJpLRhmLC7D4B96mvOE/FbsHrsrF4g8p/gNgc4wfAjFF7wIYK993C/H2mjrBjmazKQjlKBQTAOAjM/RPUXT6tUarlz+va7GtYFnyE88l6Em3dQrxD5nQGzdVfkj3nI7Q/PP+IumB22UK+llvHHZFRNvM85ypwR5dmCQbCRzPnfwXjzaufaTWHndiAHVt+h7ur9MqcvtM0QWIH1d1UnorXcpdu2HorCM19zA2Jwx8Oc6mJqvzNVnzyA6vG3qBQlC4NgI5gVZTBeu9Q5StHTW04+8nY8Ek2cL7E19Cp39X4iio0MEMsffh2aXPUV7D67q9zUqPz5WViLf1MpSgbuIuEhWpnlT52E8KzPVCqJZLPObgNhD78BVk6hm8Vz5I1l6vF7mfa/S1D55rUI/TbJeb5N/gOuvVFHhE9+1f2eR8Lz7k2nTO4i0Qih3z5NSQC0euwC64x3ER55138BkIjix9iofc3KSTKVqO/+TkZyb5PGvwsRXPCdSlGiMQg2RKgKleMvUInkcIPfme/BOvROruFJlARGk1bIG3WPEwy/QKBLP5WbJB9I3yAn0ScDg2ADVH14B+zKEpVKINmPb8DRsM56n8GPKEUkGBac+qK7nm7u7qeo3ARbuQDByY+qBCUSg2CMrCW/oerzcSqVOGbHvgif9wlCu50Oq5AruxClmuyskrvvuSi85FPYHbdRuQk05SmYsz5RCUoUBsFY2BbKnz9LJRKkWRsUnvwsCs94dYP9xogo9cyNNkF49CPAsOvc6UmJZL59LcyqJLQ6+RiDYAyqv5kAe/k8lYq/QK+d0eTCj2B220HlEFG6Cm25L8JnvQ97s91UTgKEKoHXL3cOOIk+URgENblrg77pPPklgNGmGwpPGY+C458EOOKTKGPYeU0RHn4rrFHPwG63ucqNL/OvrxCYz9GiicIgqMN5Git/8nggXKUy4sAMIK/n8JoVK857H2bXbdULRJRprE6bIXzMOOCkl4DtD1e5cfTmVTBLlqsExRODoBfbQtmDh8FaPFNlNJIT/HJ67uxuZJtzwi01axdGmRRLRJkj1LIrQnueC+u0N2p2vI9Tn6FRugLmk6NhpNMi/VnCsB3qOCLd2fy6M/lFppS5ZvylMH58TaUaJ9Bpa3fx3lUhvQEv2fh5skxvLFNPJpRpl61CyTNnwJg7TeU0Tv7QKxDc9SieIw06Za4uKWVNMBq7uhzGz2+qVMMZssbnkXeh4PSX3DlHROQPRmFzhA+/H5bz4877baTKzx9zW6cofhgEowh/PgGN3SPQbNurpulzq6FOis2eRH5kdd0B9imvAoX6NZ762Kv/RujnD1WK4oFBMCIbVdOeVMcNE9h0F3fgC5ynQSLyt3BRa4TPeA/hzfdSOQ1T+fpV7BuMIwbBCKomPwnr30UqFZucnjui8MKPUHDcEynfo4yI0odtBmAffCPsM94B2g1EQxbntstXI/jqOSpFjcUgWA9r1VJUvXebSsVG1hjMO+EZmK26qBwiovWFm7RB6Ji7YR16R8MC4ZxpCPz5uUpRYzAI1qPypdh3iLBz8lFwwtPJX22eiDKW1X1nhIfIijCxs9+7GQZ3mmg0BsE6rAU/IDznG5XSFAii6OTnEOi5k8ogItJj9x0G+/D7YeTGtlqUKXMHZ05UKWooBsE6Kl6/Xh3psZu2g3XMM+6uD0REDRHuugOKLvkUxiZ9VI4e48PbYdgcJNMYDILrCP35FazFv6qUN7vnIFinvQ6rTQ+VQ0TUQIUboejMCcjb/jCVoaFiDQJv3qcS1BAMgrVClah88XznwHu1drtJG9gnv4zwIbfDbkCnNhFRvZz7Sc6I61Bw4jgYuUUq08PsCTArS1WCYmUUFxd73vV1l7TRXc5GpF2Z79+M4I9vqERkRvN2KDz7LXcliHVl9N8eAcv0xjL1sExvdcs0nVoexp8G8+/fVU5k+cMuRHCXE1RqLX6e0ZnBHNYEhRGuRvCXd1UqskDX/ii66JMNAiARUbxZ+U1hH/sMrM28J9dXTX3Z+Sf3HGwIBkGHuWgG4ATCaAL9hqHg5OfckaBERMlgyySI4TfCHnalyqmftWIerJULVIpiwSDoML58Sh3VwzCQP/IWFBx2p3PMj4uIki+85TDYRz4Q9SHc/neJOqJY8K7usBd8r47qcC64ghPGIbjtcJVBRJQa4c7bAUOvUKkNVf7vYXVEsfB9EDRluySrnqbQ3ALYRz2BQI8dVQYRUWqF+uwPHPYojKZtVM5a1uwpCM+frlKky99BUPYTfvFMOahJC8OAsde5sE9/G+F2m6tMIqL0EOq2NYoumYS8/7t+gwX6y58/x6kyVqkU6fB1EAws/BHmop9VymGYsA+5DdXbHY5wXlOVSUSUZgJB5OwwEoWnvADk5KtMx6olqJ54h0qQDn/XBD8dqw4cZgDWoXci3GOQyiAiSm+yXGPhaS86NcI8lQNUTXsDsLiwti7fBkGzZDmMxaoWKDXAkffA6j6wJk1ElCHM9r2RN/xalQLsslUI/TZJpciLYTvUcUS6s/l1Z/KLVJdZMf4ChH58203n7n8Rcgcf7x7XlY1/uy6W6Y1l6mGZ3hpbZs7rF8CeVbPHoNWyK6yTXnTKbOGmdfjx81xdUurPmqC9ZhlCP7/vHhstOjgB8Fj3mIgoU4UOuAFW+y3dY3PlXAQWcqSoDl8GwYq3b3QelUIwN+6Fogs+cnL83TVKRJnPDubDOvpx2D13cdPGe859jjz57u5vhCoR/vUTmK26oPDs17kMGhFlD8NAeMTtsLruAKxcALuiRL1AkfguCJpzpsDIb4rCM15yAmCOyiUiyhIy0O+we2G36w1rXoTVsOg//msHnDIOhSc9CxTodxgTEWUS2edUmkbDM2rGPlBkvgqCRnUZ7JF3wdiYO8ETUXazzSBydj8DsMIqh+rjqyBo5xTCKmypUkRE2U1Gv8tCIBSZ/5pDiYiIFAZBIiLyLQZBIiLyLaO4uNhz2TTdJW10l7MRLNMby9TDMr2xTD0s01s2lWkGc1gTJCIi/2IQJCIi32IQJCIi32IQJCIi32IQJCIi32IQJCIi32IQJCIi32IQJCIi32IQJCIi3zJshzqOSHc2v+5MfsEyvbFMPSzTWyrLlFvMvHnzMGvWLHzwwQe4+uqr1Ssb4ueph2V60ylzdUkpa4JEFH8rVqzAxIkTcdlll2HkyJE4++yz8eCDD2LOnDnqN4jSA4MgEcXF33//jVtuuQVHHXUUjjvuOIwdOxYzZsxAVVWV+g2i9MMgSERxsWzZMkydOhWrV69WOUTpj0GQiIh8i0GQiIh8i0GQiIh8i0GQiIh8i0GQiIh8i0GQiIh8i0GQiIh8yyguLvZcNk13SRvd5WwEy/TGMvWwTG/JKHP27Nm4/vrrVSqyN998Ux1tiJ+nHpbpTadMM5jDmiAREfkXgyAREfkWgyBlhIqKCpSUlOD3339316P8+eef8csvv+DXX39104sXL3Zf19gUhShmcl3JNVhaWuouCyfXWllZGcrLy921US3LUr+ZfSorK7Fo0SL88MMP7rJ406ZNw5dffonffvtN/UZmy6o+QbkgZaV6L3l5eTjjjDNUKjqv9ykXv6yYL1+KaPLz81FQUOAeJ/rz/PPPP/H222+r1PrWXcx4iy22wM4776xSG4rlfcqNIRwOq5z6NWvWDK1atVKp6JzrEn/88Ye79Y4EO/ki6igqKsL222+PESNGoFOnTjAMQ70Sv+tTbohyA5B/yzXnpUuXLggGgwk/73VVV1dj5cqV7rHX9bnueamvTPk7ZW3QdUlAWNe3336LV199VaUiu/fee//7LtQV7X3m5uaiadOmKhXb9amrtsxQKOQ+WL377rvuFlDz58/3vL6bN2+Obt26YciQIdh0003/u/aSdd7lelywYIFK1ah7jkTr1q2Rk5OjUmutW6b8rV9//bV7PuV+Uh+5f1x00UUqVb9k/e310SlT+gSzKgjKF/7cc89VqcjkYpUv4ro3yEi83uc///yDk046ybMGIl+Mww47zD1O9OcpF+9NN92kUpHtscceGDNmjEptKJb3eeWVV7o3imhuvPFGbLnllipVP/nSPv/88/jf//6nFWCiadKkCfbee2/3c5ebbjyvT9kTb/r06SoV3cCBA3HyyScn/LzXJde4fI5e+vbtiwsuuECl6i9TagCyQ0Qq9e/fH2eddZZKxXZ96pKb/8MPP4zvv//eDYQNJQ/a2223nXvtyUOQjsaed7kHDR8+3PNedPnll7tBuq7aMuWhXr6rkYJfrWwJgmwOpbiQL70XryfpTz/91N2GR56+GxsAhdQqXn/9dTfQT5o0SeXGx4EHHqiOvEkNyevGFG/y/5OHIR0HH3ywOvIvefh69NFHcfzxx7vNfY0JgEJaLqTJUIL2ddddF9NNvqHkoV5anBpKrpmnnnrK/Qy8AmA2YRCkuND58kW6sUj+rbfeinvuucczUDaE3JDuvvtuPP7443Hru9l22221n0hTsZ+eNOXV1xRWl9SWe/TooVL+Izf+F1980Q1WErQS8bDy3XffufsrfvHFFyonceR8NtT48ePxxhtvJP2BLdUYBCku6utjqEtqRHVJ04s8eU6ZMkXlJM7nn3/uNvvJ5q+NJU/do0ePVilv8ncmk9zYdUj/qU63QDaSwR5yPbz//vuNrvl5kYe7u+66y21WTqSGBsGnn34aL730kkr5C4MgxcVWW22ljiKr28QpwUj6J5LRVFRLgpH8PydOnKhyGm633XZzB+LokJtMskjN86uvvlKp6HbddVd15C/S9H7FFVdg+fLlKifxJBBKv6o0j8rI0kQoLCxUR/pefvll9/PwK8Op+nrWfXVvUrrNQyIRZcooQrnBeZEy5aak8wTs9T5lMM55553n2YQgHdbHHHOMe5zoz1MGbEjzn5f9998fp5xyikptKJb3KaM4H3roIZVTv0GDBrm1PvHTTz+5T8apbHrp06ePO4CovutA92+X2u3999+vUtHJ78kIWS+N/R5Js570b3mRv1sGIdUN5PWVKcPjpbk6lQYMGIBLL71UpWK7PmvJ9SbX3eTJk1WOHvmsZOSn/Oy+++7uZyb9ZtLvOnPmTM/Rt3XJKNc77rhjvW6Exp53IWXK9KFo1h2gJt0QDW2F2XrrrXHttddGvY825Bx5iWeZq0tKWROk+AgEAuoostqaoEynkCAdawCUUb3Sf9W1a9eYvjSRyBzDjz76SKUaRkZ+mqbe1yjacmHxFGl6TF3yOTak5pDJJEjEEgAl2MnD4gMPPOCOCD766KPdqTfdu3d3Rx5LbfK5557DY489hsGDB7tTYXSsWbPGDSDxfgiUaSS65EE00c2zmYBBkOJCJxDUBsEnnnhCa4CKlClPrPLkKk02zzzzjPsUL0P/x40b5/Z7ybxQmeqhU8Oqj5TTmIErEkSkdqBDRh0mmtxclyxZolLRyeem0xoiZG6Z3PTX/Rk2bNh6PxIcdEg/5A477FDvj8xbjfSz+eabqxIaRoKV7uAUmVJz2mmnucHv8MMPj9rsLZ/hxhtv7LYIyfW02WabqVeik8FLc+fOVan40A3CEnylZp/Klph0weZQD17vk82hNe9T+hS8mst69uyJI4880u0TiUaeZmXYvvzo9LnJ+5TPX2p2t99+e8xfbGkWvfnmm1WqRix/+2effeYGZx0yBy3SRPFaDT3vQq5r3f4deYDo0KGDSq0Vy9++rvvuuw+ffPKJSkUmgSKSxvztkUiZUuu56qqrtK4NGfkrc3+jnado71Me8KTvT2eKitTGr7nmGvdeFI+/XWqkXoFeHiql+bbuNV8fGfAm/f3S/y2BXr6bLVq0cN+v/EjrTDQNvZaiiWeZbA6luNF9oPDqP5PmxbFjx2LUqFFaAbCW/P9l8q5M2tdpml2XBM/GNAvFUkORZd8SSZaQ0yGfUdu2bVUq+0nfr04AlPmfZ599tueDSjTSgnHZZZdh3333VTmRSU0wnoNzdL6HEgCjPYgIuTbk4V4elGT6iATCdu3aoWXLlm4QlADjFQAzBYMgJY182WU5tPrIQAF5UpeVVXQm3kcifYYSaHWbpGpJzVmapxpCbhi6AUW3v64h5OYmKxjpkJVMdJvOMp3O6kMSuGQunyy3Fy/SnHrJJZd49tO99tpr6qjxdLolvvnmm4jXeps2bdxpIzJgRga+xNLHmKkYBCkudJ5AI2nfvr3blBqvSdtSg5Qn8RNPPFHleJMJ9bIXXqxNqbUkeOuQPffisRpOfaRsHXKjPOCAA1Qqu8l5lWZaLzLq9KCDDlKp+Nlpp508lxaT0ZkyWCwedL6HH3/8sTpanyylJt0JsoxeY77PmYZBkFJK+hmkjyIRtZJddtnFvQnpkqdj3fVA6+rXr5/WSEsJsjLdIBGkb1KHPOH7ZVSo9AV6PdjIACEZlJMovXr18ixfVmuJh4YGLxlYJs2ffgp+tRgEKS4a+uU5/fTTY+7Di4XU0KSmqauhk9qldiWDB3TIeqaJoNvfOHLkSHWU/byaGmX3DN0dZRpD5sdGu85lvmmqtmOSJk8ZJNOYftBMxiBIKSND6mV0XCJJcJadRXSDtAxUkH3jGkL62XT+P9JvF6lvtKFklLLOWqHS99rYqQaZQlYH8pouIoM+EvkQVksmxUfrp5ZpOvFoIdDpE6xLaoAdO3ZUKf9hEKS4iLUmKCPLZCRnMsigFWny0iVNaA0hI+Z0m1+ffPJJdRQfL7zwglZ/pkz2bsiNMhPJyMZon4mMeNxmm21UKvGGDh2qjuone/c1tE+6Vqzn9v/+7/9i6jLIRtxP0IPX++R+gjXvM5blw4TMjZJ+tEjifS3pnichAwNuuOEGlYqu7vuUEZrSxKtDhqnX995j/dtloI3Mv/RqTpPmLlnazuu6j+W8r0t26ZBFyr1EWzknXuddzrfXwCi5B9Qto6F/ezS1ZUpNXc5TNDrzSEWk9ynzBN955x2Vik5qp3I91AbORP7tXlJVJvcTpJSQUaDRAmAiyAAc3WZAWQuyof0ztRv56rjzzjvVUeNIrVLn/crCCLHW2DOV14hQaf7TvZnGi4xa9mp6lQU/GkN2xNB16qmn+qZVIBp+AhQXsdxcZcftVJAVcnTItjqN2fpIVrrR+TxkoWOdfrxopGarM9FfVv7w2tU/W8j5kweZaHR2PUkEGYgTjczhSxa/9A17YRCkpEvVDah3797awXrWrFnqKHZSG9SZrC8BrLHricrAD1kv1Ev//v19Mzl+6dKlnvsDJnpAViRek891131tLAnGjdmFPpswCFLS6S44HW9yA9IdBVffBsCxkAEHOmRh8MYMhpD/Xsehhx6qjrKfztqpqQoAXuc6Hhs+69hkk03UETEIUtKl8glU9jTU0djV/aUmKDsveJEJ+g1dT1RqOzpNoXLD82qGyyY6o3sl2Mggpro/MnVF56e+/zbSz7r/nQzei0ZWuJGfRPPT9eCFo0M9eL1Pjg6teZ/fffed1vJUMk9NtrTxkqhrSc7XhRdeqHIik0D90ksvqVRk0d7nG2+8oTUxXlYUkX3uaun+7RIAZTShl/PPPz+mJuiGXp/pMDpUdm+XWq/8O1PJ98hrcepI50haIHT+dlmlqW6rSEPPezTpXiZHh1LSxbIzRCLo/v8bOmF+XbJsm44//vijQXsa6g6FlzUh/UIGGqVq5ZV48erPjAf2B67FIEi+0pgdKmIl287orsKvu/h1LblRLly4UKUik/+/TA/xi7KyMnWUuRrTR6xLRgtTDQZB8hUZIZmsG4DMwdpxxx1VKroff/xRHelZtmyZOopuwIABvpoLlg1BMBlNuX4ZKayDO8t78Hqf3Fm+5n1++eWXuO2221ROZFIrke1avCTyWpINe2XAghevjUeF1/uUPRRl8WQvsmGp7OEmdP522SNP+rW9yI73MggikZ9nrXTYWf6vv/5yVyPKZPI5dunSRaXqF+kcyZ6IOkFU+uWlf35dDT3v0aR7mdxZnnwpmU/BMkJU5uh5kblt8qNL1pn0Iivz+G0UoNfoy0yQ6X2amYZBkHynIYNQGkO26tFpddAZNSvkRr9o0SKViixaLT9bxdq3mo6SsasFrcUgSL6T7CAoA2R0zJgxQ2tUqk6NUZqC2rRpo1L+obtrv9TQO3fuvMFPhw4dtH7q+28j/dT339f3U/v7yRy8RewTVDmReb1P3T5BWU/y2GOPdY8T/XmyT7B+UmZ1dTUOOeQQlRNdPPoEa51wwglag1lkUeP99ttPpeo3ceJEjB07VqXqJ/PFDjroIJVK3Oe5rnToE5R5kzoLCMii4/U1FTf0b48mmWWyT3AtnTLZJ5hEyZj7Q950awrxHkHqtYVOLZlg70UeOLzsueee6shfNJ7pXbpryFL2YxBMkkxewSKb6A6hj+XJVIdMVdDp65EFlKPtYCFLanktCyaT42URbz/SfXjRWXSc/IFBsJF0O7H5pauR7P64unTn48V7geHCwkK3SVzHU089pY42NHnyZM8HKtk93q90+9Mas1UWZRcGwUbSDYLJHLqdzkOsU/0woNOUKKTmFm/77ruvVjPclClTIg6QGT9+vDqqn+zQ0alTJ5Xyn8GDB2t9xrKYNZFgEGwk3dU4kvnkKYM/0pXUYlIVpKW/6LffflOp6Hr27KmO4kdqKTrbSMlnJBvu1iUT772uI93aZrbSbQb+6quv1BH5HYNgI8lCtDpPnrJ1SzwWZdbxxRdfqKP0lKzPoS658elsUyPBKlHTC4444gh1FN1DDz20wSAP2aUhmhYtWmCbbbZRKX+S6SgFBQUqFZnsepLOD4uUPNxKyYPO+5SpDzrNnXfeeac7PynRn+fJJ5+sNZcsFVspieuvv95za59EXEuyhZLO3n1SW7vnnntUKrpY36f0iY4cOVJrFKO8BwlsQn5fzmu0ID5ixIiI/YGJ+Dzrlqm7lZKMgI303YvH+7zuuuvc69FLfVtMNfRvjyaZZepupfTggw9usKNKpv/tdemUya2U4kTWfdShs7dcY0kwjmX5rVRIRU119erV7pZFOnbddVd1FH+yq8NOO+2kUtG98sor6qhmJRSvWqzuhsGJojvyNtHThXTngcpcYY7aJgbBOJBNUXV8//332vOYGkq3NiZkxGIqfPrpp0kfJSoTzHU/+6233lodJYZMiNdphZg2bdp/79nrAUqe6mW1kVTSnYOZ6GbI3r17e25KK6R/NdpIXPIHBsE4kGZFHfKkPHPmTJWKP6kt/PDDDyrlTXfT13iTAPjyyy+rVOJJIIm2m/m6pKYmTdaJ1KxZM/Tp00elIpNgIf2nUnOaNWuWyq2f1AJTvWWS7khp2fg2keQBQ/c7Ka0S8+fPVynyIwbBOKjtt9Hx9ttvJ6Q2KGXGUgtMtQkTJiRtmLpsO7Rq1SqVim7gwIHqKLEOP/xwdRTd3Llz3eXWvJrtdAfcJJLubuXJmCYjTaI6QVm+N7LEIHdu8C8GwTiQphfdodm//vqre2OLtyeeeALz5s1TqfQnN52rr7464TefBQsWeK6zWUtqUoceeqhKJVbfvn21muz+/PNPtxYb7cFJapU6ZSWa7sOgNE0nmnwfdVs6pB9d1r1NxMMppT8GwTjx2gRzXXfccUdcv3DS1yg1zFil+ksvQfuzzz5TqfiT5kTZYFU30Mou8Mlabkya7GQBcy/SL+i1TJruuqSJpruLfixN9o1x4oknau8dKd0UDzzwgEqRnzAIxsnee++tjrwtXLgQL774oko1nNzcZXPVhjaDpsOTr8yHk+bKeL8X+YxlSoFMMNchu1vITg/JJFMavAYnyYNCtD40efjacsstVSozyPqosuNLoskuCTJlQNc333zjTh1g06i/MAjGyRZbbKGO9EgQlBphQ79wcmO87LLLGtXHmA5BUIb9y5zNCy64IC4jRuVvkvJOP/107VV6pO/oyiuvTOqO80IG4cgyX40hgVtnpGky1J13Fo3MFdXtp20MmZOp21cpPvzwQxxzzDEJHcC2Lt0RtZQ4DIJxIje0Hj16qJQemVh80kknuc1dugFJgp/MbzrrrLPcJ+r6SO2ivr3S0pmMbJWFDho7WObaa691a5axkGYzGbGZCqNHj27wqE7pB0ynWqCMqtXdxUFGvcriBYkeJCPv55xzzlEpPRKcL7nkErcpPZZJ3Lrkb//666/dh1h5b+nwMOpnWbWprqy3eMUVV6hUZFJmvDbVrSVlyoCXhl7UErT69+/vbqgqN2T58kqZMipQ3oP8be+//747VN6rfHn6lX5CCSzR3HXXXVEDdyx/u+6mul7knMg8Pdnst3379io3OgmcMuBImobnzJmjcvXI6jAyOrDutZDMa15aBOpbK9SLPAjJNaMjHu+zrvrKvPXWW90FwHVJLU1WbpG5tnIO6pYp178EJXmt7sCbWN6nPGw0NODKwCN5UJIl2WrF+nmWlJTgr7/+clfLkWt03RYgGdQmrRDxOEfcVHctnTJlU10GQQ+xvs/hw4fHpU9B3pvUEGJd0ULWvZQOfukn9BpQIcu4RVsoOpa/XTcIypqccuOTUZte5GFA1sKU/tYOHTq4tW35XGTenNSIZQm0SZMmYcaMGQ2egP3II4/Uu+JPMq95WVf2oosuUik90oT7/PPPa62FKuLxPuuqr8x//vnHDRixktYLOccSaORvk6ZxWflo8eLF7vfpwAMPxPHHH69+u0Ys71P6VuUzbsy6tW3btsVmm22GIUOGuLVeuR7l9ln7fZdjuQ7lnEigkwczuc5lHmK0ft3aJczicY4YBNfSKTPrgqDc9KVvx4uUmagg+Oyzz7o1klSQv+fSSy91v6hyc/d6IpegJb8bSSx/u24QlAEo8uR/8cUXq5zUkZpUpB3Yk3nNy1dQ+jCj3SjrktrJzTffnNT3WVekMuXc6u7WoUvOk5yvdcX6PmXZvMsvv1z7wSFZ5Du7+eabx+UcMQiupVOmBMGs6hPUrYHprnHYEEcddZTbHJls0lR0++23/xfU6l7g9ZH1NFNBal6nnXaa+ySdClIbvf/++yMGwGSTh5cDDjhApfSk88a50pcW7yX54nGtSpPrY489hn79+qmc9CDNpJQ6vgyC0tSSyLUrR40ahX322UelEk8CnzRtrrv9j86msMkaAVcfmVMmIwSTPSBlt912w6OPPprydTbr2m677dSRN2ku1F2vNhVkK6N4z12M1wAaGUwkQVq+o+li+vTp6ohSIauC4I8//qiOvCV6JXtp3jrvvPO0mlwbQ3Yrl8EIdZeI0hnun8gasQ6pEcro2GSseSl9pdIUJiNQU73GZn1iWXpPlnZL9nSOWA0dOtTtQ4uXeE8lkNYauRZ0R7MmUqRR3pQcWRUEY+n01ugKbTSZAyYTthNBguuZZ57pNivWF2h1vtzJWMPRiywfJtMaNtlkE5UTfxJg5Ol/hx12UDnpR4Ja3QeZSOTBJ93Jg4YM0Np0001VTuPI6Mp4k1aBJ598MuXNo7JKUTwG01HDZFUQjKXDO9E1tFqyNNaNN94Y16dimRsmG5jutddeKmdDOkFQ+lmS8TDgRZomb7rppriv2ynNw/K0L5vTJjLIxoO0TOiOBI7ntZRIcg3KYCkZ0NLYGlcsg4ZiIc3x8oAkTeTyQJZMMhpWWovk2k/H1gm/yKrRobo7SgsZwanzxYzX+5SPWeYRypdZVnmRfgDdmqs0Gx588MHo1KmTO3euvonwdd+n3FDr63Bfd/UMOU72FAkZHSoDeCKRwCzD7GW1lw8++MD9G3QDtQy0Oeigg9yRdtL3I8PY133YSfX1Ga1MWeZNmmu9SF+vjCaslez3ua5YypSpDtLs98knn7jroepMaZHrU86lbBMlgb/uwgCJeJ8yt1bKlYUsZGk33WX3opH7jHx3pR9cvm+Slu9w3XVq43GO6s4NXvf7vi7Zc7Fuy0OmXEvxLDPrpkhI86DO3mBygxw3bpxWbTCRf7sEQWnmkRu+1GKlSUROh1ycckOXC1UuYunP8pLqcxSvIFir9n1KMJf+IFnpX34kLedNPiP5kd+Tf0tzotdDTaL+dl3RypQVSrz6huT/JS0A6/6dqT7vutYtU65zqfnK4DRpkpcHQ6mRyXUugUHOpfzICNNo39Fk/O3yPiVgywOsfEflPUta3qvU3mrfnxzXvm8ZGNSxY0f3Oyw/un3v6XSOosmmMrMuCMqINJ1mE3mivOGGG1IeBL1kUpmJCoI6Mv3zlAFdsnqPF9l6atttt1WpGpn+t9fFMvWwTG86ZbpBsLi42DMI6r5B3Tcn4l2mPJ3p7gIg88N051llwt8uUl2mNEPr7GYhTbsykd+LXz5PqRXJSihSy41GHh7kIaPug1sm/+31YZl6WKY3nTLNYE72DIyJpeN8jz32UEdEqTV+/HjPACjkoU2n5YKIYpM1QTCW4f6xzMkiShTpv54wYYJKRSa151i36iIiPVkTBHVuJkI2IY1l3zOiRJCmmquuuspzWoQM+jn77LM5hJ4oQbLimyUjuGQnAR2HH364OiJKDWm1kLlzOnsnylZJ6T7HkSiTZUUQlC2UdNYClT6VdFs8l/xFBmPLTie6u6qPGDFCHRFRImRFEHzppZfUUXSygarM4SFKFVkoQXfXAJkgnimrwxBlqowPgrKig+4CtLLqClGqyCarso+lLll3liNCiRIr44OgbGKrq+6yS0TJIk32siya7vqgO+20E3r06KFSRJQoGRsEZV6gNIPq7sW1/fbb17vmJlGiTZ48GXfccYf2TgGy80Kidh8hovVl5LJpP/zwg7shq+5TtUyJGDt27H/DzJP1PiPJxjK5bNqGZG3YCy+8UGs921ry+ciKOrpTIrLxWtLFMr2xzOhk2bSMqgnKiDpZmkv2n9MNgOKUU07hPCtKqjlz5rh7PcYSAGWx5XTd9JcoW6X9t02C3dKlS3HLLbe4S0fJViwaldf/SD/gVlttpVJEiSVPqbI/nAQz2R1ElwyAOf/88zknkCjJ0i4Iynw/aQ6SVfVlexnZaFX6R6ZOnap+Q1/Tpk1x+umnqxRR4sh+gLKf5ZgxY/D111+rXH1Dhw51984jouRKy5qgBDzZXkamPsTS7LkuebKW/hjZk4wokaSVQh62dDd0rkvWsuWkeKLUSLsgKJtSNpbcVOTGJOuEEiVanz591FHspAYoA4rYD0iUGmn3zZObQUNXyejbty+uueYa3H333e7K+0TJsMMOO6gjfXKtSvAbOXKkOyCGiFIjLR8/O3TooI709OrVy635XXDBBe7SaFxlg5JJpjXotmDIQ96pp57qXqtcEo0o9dIyCMpNRUfr1q1xww03uBORe/furXKJkksCm85+f7ItkkybGDBggMoholRLyyA4cOBAdbQhaTraZZdd8Oijj+Lxxx93m5WIUm2//fZTR/XbZptt3DmusnIREaWPtFwxRl6Tfj1pYpJpDlLjk36Xnj17uoNeIjV3Jvt9rsvvZVZXV6OsrEzlRFZSUqK1qXGmfZ6yR+Do0aPd43U1adIExx13HPbcc8+sPO+6WKY3lqknnmXKijFGcXGxZxDUfYO6b06wTG8sU0+6lCnzBGWbJOnrkxqfNHvK5PfahzZ+nt5Yph6W6U2nTDOYk57NoUSZSOalPvbYY+4gLZn3JwO8OEiLKL0xCBLFiWzYHI95rkSUPAyCRETkWwyCRETkW74KgnZFCezSlSpFRJTdzPJiGLbeZs5+5asgaOQ3QflTJ8JcsVjlEBFlKSsMc9IjsA02+EXju08nZ5djYLx8KkyrWuUQEWUZp/ZX/sRxsDcbpDIoEv8Fwd57wChZDuPpMTCcJyUiouxio/z5cxD+8yvYnbZReRSJ/+rJeUWwuw2E8c+fMJ89nu3lRJRVql65GOFfPoTRYhNYOdxP1UtaLpu2rkSU2ay6GGV37u8c2Qh06YeCU8c7x1yKrS6W6Y1l6mGZ3uJRZvC924CfJtQkDrgKTXYeVXOswY+fpyyb5sseU7NNN5id+7nH4Xk/IDz3W/eYiChT5Xz23NoAWNgK4d771BxTVL4dNpR/xB3qCCh/dAzCf32jUkREmSXw68ewp96vUoC934WwzRyVomh8GwTNFh1gduhTk7DCKH9sDEKzp9SkiYgyhPnvIhgf3KRSjtxCWL0GqwR58W0QFPnDrwdq59A4gbDiyRNQPfU5IByqySMiSle2jeDvE2GOOwaoKlWZTvaQyzk3MAa+/qTMjlsi0GtnlXI4gbDyzetRdtcQYHWxyiQiSi+GDOp7+VzgtSuA8tUq1wmATdogvNmeKkU6fP+4kHfQlc4/1x8Zaq2Yh5L7h613cRERpYVwCMYzJ8D4a6rKWMvY8yznH9y+Kxa+D4Jmqy6wAwGVWsea5Sh74BCYpStUBhFRatmrl6Hktj1hLv5F5axlt+qMcO+9VYp0seHYkdtjR3W0Pmv5PJhjhyHw28cqh4goNcKLZqDsDifIrVqqctZnbjEadoT5zhQZg6AjMOgEdVQP24LxxuUIvnu9c+y5rgARUdyFZn6K8gdHwq4qVzkbsvpsq44oFgyCjmDX/s4nUU+T6Lp+fgeBF06BYXO9USJKFhvVz1+PinGnRB21bjdvh/BGHVWKYmEUFxd7Vm90l7TRXc5GpFuZ5ltXwPx1okpFZjTfBIXnvAGjoLnKqZHJf3skLNMby9TDMr3VLVMW+DdfOQ/GX1+pnMjy9z8fwcEnqdRa/DyjM4M5rAn+Z58LnKvO++OwVy1G+cOjnKcybsVERIlhlK2B+dhhWgFQmFsPU0cUKwZBxcrfCNZe56lUdNbff6D0+oEIffM6+wmJKK4CxfNhPjUKRvEClRNdTu/dYW60iUpRrBgE12H1PwR2q24qFZ1dsRoVEy5B2e17wV72h8olImoYt/nz5XNhPHIojDV/q9zojNxC5B1xp0pRQzAIrscAhlyijvVYKxei9J7hCCydpXKIiGJjLf4V5kMHw5wT2/rFuQdc5vyjSKWoIRgE6wh32AZorxbW1iX9g8+dCHPB9yqDiEhPeO73KBt7iFP7+0flaCrYCDn9h6sENRSDYD2s4TerI31GqBLm86fCXPyzyiEiis6a9527g42sWxyr/OFXO3fwoEpRQzEI1sNq1g72oFNUKjbmMycgZ/wZMFctVjlEROuzS4tR+fH9KHvsWKcqWKVy9Zldt0Ow7/4qRY3BIBhBeKdjYDdppVKxsed9A/Oh4TBfOhuGxakURKTYFqq/eRWlN+6M6o/HAqFK9UIMgnkoPPZRcKHs+GAQjEQusJ3GqETDmH99BfPpMTAr16gcIvIre00xyu4+AJUTLm9Q8+d/hlwK5HEwTLwYtkMdR6Q7m193Jr/IhDLtqjKUXt3ffXprDCMnH7mH3oScrYZIyrefp2CZ3limnkwqM7DsT+Cls2CULFe5DWM0aY2iyyfj31V6D9Y8R9GtLillTTAamYMT3mJflWo4u7oClS+ch/IHDoNdwq2ZiHzDCiHno5thPDm60QFQBAcf59yYPNY5ppgwCHow9rsIdpzm4YQX/IjSm3ZF8IPbuOEJUZYL//4FSm4eDPv7NxrdmlQrd6uD1RHFC4OgBytYCOvsD4Dm7VROI0lfwPQJCNy6EwKvnonAvwvVC0SU6Wyntlf5xrUouWQzlD95vLs5dzwYufkoOvs9GM0bNliPImMQ1GAHcmEd/aTzacVxTo7sUzh7GoyHRyD4yAgEFv2oXiCiTGOXr0LFc2eg9IadUf3VCyo3fvKOvAdG+x4qRfHEIKjJKmoFu/9IlYqz4oUwnj3JnWxvhCpUJhGlPSuM6veud4Nf6Bfvrdgawuy2HYKb76ZSFG8MgjGw9jgTdrM4NYvWQ5Zdk/mFwQXfqBwiSlfWwp+d4DcQlZOfQ8K2VgvmomD0WOeAowgShUEwBrbsNzj8RpVKDKN0JfD8GTCf5J6FROnIqCpBxYsXo+yBkbDL9IbrN1Te8OtgFLVQKUoEBsEYhdtvCWuTviqVOOY/s92nzGp3ZBn3LCRKB4FFMxC4dz+EpsdvxGckRtteyNmWo0ETjUGwIQ693R0sk2h2+WpUvnwxSm/fB6FfP4ZdWapeIaJkkX3+gt9/hOAjh8B49riktNAYRa1QePrLzgGbQRONQbABrIIWwIHXqlTi2Svno+KZ01F69bbusGt71RL1ChEligxSC7x5LwL37AV8dCWgudN7POSNvMVdrIMSzyguLvZsa9Nd0kZ3ORuRDWWWPzIa4b9SM4jF6jYAGHINrKY1/QU8R95Yph6/l2lXrEHog7Go+v4l2FXl6pXksZtuDOv0t2BHGQzD8+5Np0wzmMOaYGMUHP2Q88jWRKWSSxbnNh4+EMFP7oNZxWZSokazbVR9+SxKrx+Ayq+eTkkAlOZPa8RtUQMgxReDYGMUNEXBEXc6B6m5YA3Zh+yb52Heuw8qXr6Y65ISNYBRVYnAbxNhjh2KqrdvAMIh9UoKbHsI7Ha9VYKSgUGwkQKb74ZAX9kdIoWcL23o+zfc0aRlj4yCtfQv9QIRRWJUrEZw4m0I3Lc3jDeugFma2odIu3V3hPc+T6UoWRgE46DgSKc22L6XSqWW9de3KLt3iLtjRejnD9zlnIiohrSeBBdOR/DtqxC4Z2/guwkN29g2zsx2vWAfOw42b8lJx088HqQd/5B73X+nBdtCeMF0VDx/Nkqv3QGlN++G0MxP1YtE/hNY8A0CL56JwB2DgOdOBmZ8qF5JPSOvKQrPfB1WEqZd0YYYBONE1hbFVsNVKr3IlIqKcaegfOwhCKxerHKJsp/9zx9u8DOePwPG3Gnu4Jd0k7PfWU6UzlEpSjYGwTgK7XeR88/0HdUVXvgzjAeHI3D//gi+cTfMCjaVUhaywrB+/8ydwlR69wE1wS9NyZJouTuOUilKBQbBeJLm0M0OVYn05a5P+tuLMO/ZB8ZrFyFQsky9QpS5ZHR0xUsXoOTq/ih78qSaObxpvuRg7lDnwdnkTvGpxCAYZ6Hh58Pa61yVSn8B54nZGDsMwfuHIPDJ3QjMmYJAVYl6lSiNVVfAmvcNqifej7L7/g+lN+6C0A9vO/kpmN/XADkdBiGnH9cGTTXDdqjjiHRn8+vO5BfZXmb1Czei8qdnVCrzmC07IjzoNFjddoCd11Tl1o/nXQ/L9OZZphVGePZUVL5zM6x/ZqvMzGN32xHhw+51jtZ2n/C864lnmatLShkEvTSmzPCcb1D+6GiVymx2MA921x2AgSfD2mT96SA873pYpre6Zdr/LkbosydRPWsSrJXJW7szkewhlyO81YEqtRbPu554lilBkM2hCRTovj2CnbNjR2gjVAlz9ucwnxmNwBNHIjDrU5gVq9WrRHHkXGvW0j9QdtdQlN6yOyqnPps9AbD7wHoDIKUOg2CC5R17O4zcApXKDsayP2G8fgnMe/ZG8KH/Q/lb18Fe/bd6lSh2Zvm/MH/7GGWPjUHJ1dui7J5hGd3cWR+7eTtYh8oyi5ROGAQTzChohvzjnnQ+6aDKyTKrFiE85XmU3jQIpTcPRuWrl8Ja8hvsqjL1C0T1sG13VLI54z0EHj8C5r37wnzjclh/fpXatTsT6bD7YBu85aYb9gl6iFeZ1vK5KH9wJOwyn8zNc77sRtseyO2zD4yOfRDYuAfQrC1WlVWpX4iO15KejCgzXI01K/6G/ffvMJwHJMz4AFj+V80C8H4QyIE19ApYffZTGfXjtaQnnmVyYIyGeJZpO4Gw7P4RsCt9PAUhryms7gNg7HIs7KLWsPKbqxfWx2tJTzqWaVdXwi5eiOpJTyA89xtYK+erV3zIeRi0jnwQVqd+KiMyXkt64lkmB8YkmdG6K/JPHOc8Gfp4jcDKNTBnToTx2JHuZP3AQwfBfPd6BJfNhsF9ETOSXVkKa9lfqP7yGZTdPQylV22DsruGoPr7Cf4OgI78I+7UCoCUOqwJekhEmat/+h/M8ac7dw9L5VAtu0lr2O02R2G/YTC79IPRtDUMj42LeX16i1uZzu3CLFvp/KxAzs9vIzxnmtvUTxvKG3EdcrY/jNeShlSVyeZQDYkqMzDlSRiTH1E5FI3RqgsCnfrC3HQwgh23gFHU0l1zsRavT28NKVP67MzyVe7IzfC0F2AsnAFj1UJ3wjpFlzvwaOQeeLl7zGvJW6rKZBDUkKgyDdgIPHIoUJwd85+STQKh2aEPzFbdUN17L9i5TWHlN4OdH3l1G16fEUgfnhPo7NJiWE7trnzuTBh//wakeJPZTGV03x5FJz2nUj67lupI9zLdIFhcXOwZBHXfoO6bEyzT4TxRVzxwCkKLJtekqdGMolYwNmrnBsng5oOBvCYw8gphFDRHWVE72GbQ/ZEpK+6/I8j469O5tuxwtTsyE6EqlM7/tWZAVnU5TOnDm+Vcc6XLnBvAIoCLHsSNvfGmsMY8AXudfv+Mv5bqyKYyzWAOg6CXZJRZ/daNqJySueuMZixZvb9ZW1jODwpawC7YyKldbunu8l3Q3Amm+U2AYJ7zkwvD+alvrmfSriXLcn6qYDhBTVbvMSSYOT/5qxc7D1EzYJcVuwsW2P8ugrV6ubvqCiWX3bk/rCPHbrA7PO913lJVJoOghmSVWTXhKlR985JKUVrKyXdrlMgtclcBMnLyUG0EnX/nww46rzlpCZSWBEyHIUHWrDkObLwJgqtU86JVCVuCmsMIOTU1KwS7qtytpcn0glB5qVODc36nusKppa2B4dTUJPBR+rK7OAHwiAecALjhfqK813lLVZkMghqSWWbVu9ei6vMXVIqIMoHddUdYh99bbwAUvNd5S1WZEgQ5TzCN5A69GjkdB6sUEaU7u/sAJwDeEzEAUvpjEEwzecfdDaN5O5UionRltd0U1kgJgLyNZjKevXRTWISi8z9CzuATVQYRpRur01bA0U+wBpgFGATTUW4e8va/AHa7LVQGEaWLvIFjYI16DJaflz/MIgyCacwa8zjsbgNUiohSzWzVBTkHXqZSlA0YBNOY7D0WPuxe2Addq3KIKCXMAAqOfwKFF36kMihbcNk0D+lSZvW3E1D5Kp9AiVLB3v9ShLc+WKV4X9KV7mVyK6UMkrPdCBRd/D93RRMiSg67aVtg5MPrBUDKLgyCGcRo0QGFZ76KvB1HqRwiShR3EvxpryPUnfsBZjMGwYxjIGf4Vcg/+iG3n4KIEmCrQ2r64w1+x7Idg2CGCvbZw920k4jiyHmwtA+5HaEhFzrPm5wD6AcMghksp/8hyB99HxCIvCUQEcXggGsR7jlIJcgPGAQzXHDLfVF05muwi1qqHCKKWSAPBcc8ilDvvVUG+QWDYBYw2m0G64z3YO99vlM9LFC5ROTJDCB38IkounwyArIJM/kOg2CWsA0D4f4jET79baBFJ5VLRJHIQvWFZ7yG3P0vgFGoP0+NsguDYJax85sifNRTQMsuKoeI6jI79EXRRZ/A3GRzlUN+xSCYhexCJxCe+CLCfYeqHCKqZXbph8JTn+OAMnJxZ3kPmV5mePZXqHjuTNgVq1UOkU/J9If9LnEeDg+IOP2B9xBv2VQmd5b3gUDPASi66GOYHbgtE/mX3awdrOOeQXirAzn/j9bDIOgHhc1RePoryN3lGJVB5BOyqtIuJ8A67U1YrXuqTKK1GAT9QoaCD7sU1pinnKfi9iqTKHsZOfnuw19olxPh2edDvsUg6DNW+z6wTn0N4a0PUDlE2SfQbQcUXTqZ3QDkiUHQh2SzXnv/K2Ad+yzsJhurXKLMJ/P98o95CAUnP+t2AxB5YRD0MavtprBPeRV2u94qhyhzmd2d2t/lXyC4+R4qh8gbg6DPWcE8hI95GjhxPLDP+UAgR71ClBkCW+6NgtNeQuGJz/D6pZgxCJIr1Ko7QtuORPi8/8E+9A7YTVqrV4jSUGFL5Ox/gVPz+xIFo8ci0HkbTn2gBmEQpPXYgVyEe+zqDikPbHeoc2PhJULpxd71BITOfA95g0+E0ZQPa9Q4hu1QxxHpzubXnckvWKa3dCjTLC+G8cYVMOZ9q3KJUsNo0w0FI26E2bW/m+b33RvLjG51SSlrghSdVdAC4SMegD3mUdjtOYCGks9o1hb5Yx5C0Xnv/xcAieKFQZC0hNtvjfCYp2EPu5qDDygpjPymyDvyLhRdOgnB3ns4Gezzo/hjEKSYhLccgvCZ78IefBp3s6fECBYgZ5djUHTlVORsNdQJfrxNUeLw6qKY2fnNEd5pDMJnvIfw4ffBbNtLvULUCDLR/fA70OS675A37FK2OFBSMAhSwxkG7K47ovDcd5B/xO0w8pqoF4hiUNgC9ojbED7rAwS3OcC5KwXUC0SJxyBIcRHc+kAUXT3NeZK/E2jaRuUSRWYH84CthyN8+lsI9xoMG+zzo+RjEKT4cZ7gg9sMQ5PLJqPgmMdgtuqsXiBay27aFtZBN8I6ayJC+1/izk0lShUGQYo/w0Rg80EovOAj5B81FsbG3MeNHIUbAfte49b8rN57wc51aoJEKcYgSIljGAhusTeKznsXRdd86wTEB4HuA/jk7xeBIMzO/ZB/xF2wz3gbobM+QKjf/upFovTAIEhJIXO+glvsidDIe2Gf/z/YA490m8Uo+xh5Rcg74HI0ueY7FJ72IoJbD0XY3bKLfX6Ufozi4mLPZdN0l7TRXc5G+KHMcDiMqqoq99/ys3r1apSUlCAvL88tt1mzZsjNzXV/JM+oMxk4+z9PG6Hfv0DVWzfAWj5X5VGmsttuCmPQqQj32GmDQS6ZeX1GxjL1pHuZZjCHQdBLLGVKoFuyZAnmzZuHVatWobKyUr3qzTRNtGjRAj169EC3bt1QWFjoq8/TLl2J6q/Go2rSo0B1hcqltJdbBGvLfYABY2A1a+dk1F/by/Trsy6WqSfdy2QQ1KBT5po1a/DFF1/g77//hsZ65Fry8/PRr18/tGsnNxZvWfN52hasv6ai5H9PwZz7NRCqUi9Q2jAMmB22RGjH0bB77ALbDKoXIsua61NhmXrSvUwGQQ2RypRgN3fuXHz33XduEEyUQCCAvn37omvXrhs0l64rG8+REa6C+e9i2J+OhTlnCmCF1auUdIEcBHvtjNztj4DRczt3YYRMupZ0sUxv2VQmg6CGumWGQiH89ttvmD59Oqqrq1Vu4km/YW1TqfQf1pXt58hwaohmVSmw5Fdg/nQYMz8CiheqVymuDBNmq04IbL4bAl37w2y/OcwWHZ07xvoruWTqtRQNy/SWTWUyCGqoLXPlypX49ddf8eeff8KyLDcvVVq3bu3WDtf9e/14jozqMphr/kEhappMQ9++juof3wbCyXs4yXgFTWF13h6BzXZzTk57dxWXos593NG8XrLpWqrFMr1lU5kMghpkBOfHH3+MRYsWqZz00bJlSwwaNMhtJvXzOVqvTCsMa+UChOd+j/DPHyA87wfYFavVi4RgLuw2PYEOfYH+h8DaqCPsOrs08FryxjL1pHuZDIIeZHrDp59+irKyMpWTfiQQDh482LfnSHiVaZcWw1o0E2XfvAos/wvG8jn+GIFqBmC06IhAl21Qvc0hsItawyps4Q5siYbXkjeWqSfdy2QQ9PDJJ5+4c/vSXUFBAYYMGeLWWr1k2zkSsZdpw6gogVmxCsbsz2H/ORUoXgRjzVIgHFK/k0GkJtesLQJteyDo1PIC2x0Mo6gljMKWTs2vZjsinnc9LNNbNpXJIBiBjPycPHmy2w+YKWSwzLBhwzwDYbaco3XFs0yjuhxG+b8oWr0A1TMmwl6zHPbqZbBLnJ8y/fcUd7lFQFOnJicbGTdrD/TeE0arbmjSpj2MfOecB6JPU+B518MyvWVTmW4QdG74nkFQ9w3qvjmRrmWWlpbi3Xffdf+daWQ6Rf/+/dGhQweVs6FsOEd1JatM58sCw6qumarh/MiI1SZFBU6AdAJl2SrYMiBHapK287p8rWQAlXvs/NuyUSGLJ5hOrc0dZWnCllZJI+BU5JzjQB6MJi2A/I1Q1LRpze/IT8D5kgZza2p79eA58sYy9fixzNUlpQyC61q+fLkbAFM9+rOx9tlnHxQVOTWHemT6OaoPy/TGMvWwTG/ZVKYEQS6grVRUVOCjjz7K+AAopkyZEreVa4iIshmDoPLBBx/EtNZnOpNFumVOIxERRccg6Fi8eDGKi4tVKjv8/vvv7iLeREQUGYOg48svv1RH2UUW9c6G5l0iokTxfRCUJlBpPsxGMtl/0qRJKkVERHX5Pgh+/vnn6ig7SZPoP//8o1JERLQuXwdBWQ5twYIFKpW9ZMcLIiLakK+DoEwl8AOZ+J+tTb5ERI3h2yAofYELF/pnPzrZB5GIiNbn27VDZWPcmTNnqpzst/HGG2Po0KEZdY50sUxvLFMPy/SWTWXK2qG+rAmGw2HMmjVLpfxBBsewNkhEtD5fBkHZHcKP8+fWrFmjjoiISPgyCEpTqB/NnTtXHRERkfBdEJSm0BUrVqiUv8jycEREtJbvgqDMDfTrDgucJkFEtD7fBUE/TYuoSx4ApCZMREQ1fBcElyxZoo78qbq6Wh0REZHvgmB5ebk68idOkyAiWst3QVB2kPcz7jhPRLSW4dwUPe+KurP5dWfyi1SV+d5772XNDvINIavGyOoxOrLpvAuWqYdlemOZetK9zNUlpf6rCfp9k1nWBImI1vJdECQiIqrluyAYDAbVkT+ZJp97iIhq+e6OmJOTo478KRAIqCMiIvJdEMzPz1dH/pSbm6uOiIjId0GwqKhIHfkTgyAR0Vq+C4I9evRQR/4j/aEMgkREa7E51EeaNWumjoiISPhyYIxfA2Hr1q3VERERCd8FQdG+fXt15C8MgkRE6zOKi4s9lxDRXdJGdzkbkcoyFy1ahI8++kil/GPEiBExrZiTbeedZephmd5Ypp50L9MM5vizJijNoX6bLyeT5Js0aaJSREQkfBkEJQAOHDhQpfxhu+2242oxRER1+PauKP1jfqoZtWvXTh0REVEtX1cNtt56a3WU3aT5t2XLlipFRES1fB0EZV+9goIClcpeAwYMgGEYKkVERLV830kkfWXZTJaJ69q1q0oREdG6fB8Es33u3C677MJaIBFRBL4PgqJ79+7qKLtsv/322GSTTVSKiIjqYhB09O3bN+umD3Tq1AlbbrmlShERUX0M26GOI9Kdza87k1+kW5kLFy7ExIkTVSqzyU4RQ4YMqbcZNJPPUSQs0xvL1MMyvWVTmatLSlkTrNWxY0dsuummKpXZ+vXrx35AIiINDILr2Hnnnd1mxEwmA33YD0hEpIdBsI4999wzY3eZkAnxu+66q0oREZEXBsE6pBlxv/32cyeYZ8pgGXmfW221FQYPHqxyiIhIB4NgBL1798buu++uUulLlkQ76KCD0KNHD5VDRES6GASj6Ny5s7vbRLrWCJs3b46RI0fGNLKKiIjWYhD00LZtW3e6gQScdCKB78ADD/TdvohERPHEIKghJyfHbRqVFVhSHXTk/y9LoR188MEIBoMql4iIGoJBUJMMmJG5hMOGDUP//v2Rl5enXkkOmfqw1157YdSoUejVqxfnARIRxQGDYIykf1D6Cvfff38MGjQo4fv0tWrVyq31HXDAAe4cRjZ/EhHFj1FcXOy5bJruwAvd5WxEtpW5cuVKLFq0CDNnzkRpaanKjV2zZs3ctUyl1llVVaVyvfEceWOZelimN5apJ93LNIM5rAnGi9QQpaa2zz77uLU2+bf0IUowa9Gihbuvn0xnkHU9ZSNfGWjTrl07d2qDrFQzfPhwt6lzxIgR7vJthYWFqmQiIkoU1gQ9sExvLFMPy/TGMvWwTG86ZbImSEREvsYgSEREvsUgSEREvsUgSEREvsUgSEREvsUgSEREvsUgSEREvmXYDnUcke4cDt35G4JlemOZelimN5aph2V6y6YyV5eUsiZIRET+xSBIREQ+Bfw/+FXp7RTUZeQAAAAASUVORK5CYII=;" vertex="1" parent="1">
          <mxGeometry x="660.5" y="280" width="69" height="71.31" as="geometry" />
        </mxCell>
        <mxCell id="1SWu9gg4s54Sxi2x8I6W-20" value="Анализ данных&#xa;Вычисление метрик&#xa;Визуализация и отчеты" style="text;whiteSpace=wrap;" vertex="1" parent="1">
          <mxGeometry x="635" y="360" width="120" height="70" as="geometry" />
        </mxCell>
      </root>
    </mxGraphModel>
  </diagram>
</mxfile>
